<svg id="Layer_5" data-name="Layer 5" xmlns="http://www.w3.org/2000/svg" xmlns:xlink="http://www.w3.org/1999/xlink" viewBox="0 0 756 878.68"><defs><style>.cls-1{fill:none;}.cls-2{isolation:isolate;}.cls-3{fill:#761114;}.cls-4{clip-path:url(#clip-path);}.cls-5{fill:#3a434b;}.cls-6{clip-path:url(#clip-path-2);}.cls-7{fill:#7b1114;}.cls-8{fill:#384048;}.cls-9{clip-path:url(#clip-path-3);}.cls-10{clip-path:url(#clip-path-4);}.cls-11{clip-path:url(#clip-path-5);}.cls-12{clip-path:url(#clip-path-6);}.cls-13{clip-path:url(#clip-path-7);}.cls-14{fill:#d61e23;}.cls-15{clip-path:url(#clip-path-8);}.cls-16{fill:#891317;}.cls-17{fill:#841216;}.cls-18{fill:#7f1215;}.cls-19{fill:#881317;}.cls-20{clip-path:url(#clip-path-9);}.cls-21{fill:#414a54;}.cls-22{fill:#3f4851;}.cls-23{fill:#3c454e;}.cls-24{clip-path:url(#clip-path-10);}.cls-25{fill:#667483;}.cls-26{clip-path:url(#clip-path-11);}.cls-27{clip-path:url(#clip-path-12);}.cls-28{clip-path:url(#clip-path-13);}.cls-29{clip-path:url(#clip-path-14);}.cls-30{clip-path:url(#clip-path-15);}.cls-31{clip-path:url(#clip-path-16);}.cls-32{clip-path:url(#clip-path-17);}.cls-33{clip-path:url(#clip-path-18);}.cls-34{clip-path:url(#clip-path-19);}.cls-35{clip-path:url(#clip-path-20);}.cls-36{clip-path:url(#clip-path-21);}.cls-37{clip-path:url(#clip-path-22);}.cls-38{clip-path:url(#clip-path-23);}.cls-39{clip-path:url(#clip-path-24);}.cls-40{fill:#7a1215;}.cls-41{clip-path:url(#clip-path-25);}.cls-42{clip-path:url(#clip-path-26);}.cls-43{fill:#e02026;}.cls-44{clip-path:url(#clip-path-27);}.cls-45{clip-path:url(#clip-path-28);}.cls-46{clip-path:url(#clip-path-29);}.cls-47{clip-path:url(#clip-path-30);}.cls-48{clip-path:url(#clip-path-31);}.cls-49{clip-path:url(#clip-path-32);}.cls-50{fill:#7a1114;}.cls-51{clip-path:url(#clip-path-33);}.cls-52{clip-path:url(#clip-path-34);}.cls-53{clip-path:url(#clip-path-35);}.cls-54{clip-path:url(#clip-path-36);}.cls-55{clip-path:url(#clip-path-37);}.cls-56{clip-path:url(#clip-path-38);}.cls-57{clip-path:url(#clip-path-39);}.cls-58{clip-path:url(#clip-path-40);}.cls-59{clip-path:url(#clip-path-41);}.cls-60{clip-path:url(#clip-path-42);}.cls-61{clip-path:url(#clip-path-43);}.cls-62{clip-path:url(#clip-path-44);}.cls-63{clip-path:url(#clip-path-45);}.cls-64{clip-path:url(#clip-path-46);}.cls-65{clip-path:url(#clip-path-47);}.cls-66{clip-path:url(#clip-path-48);}.cls-67{clip-path:url(#clip-path-49);}.cls-68{clip-path:url(#clip-path-50);}.cls-69{clip-path:url(#clip-path-51);}.cls-70{clip-path:url(#clip-path-52);}.cls-71{fill:#e01f25;}.cls-72{clip-path:url(#clip-path-53);}.cls-73{clip-path:url(#clip-path-54);}.cls-74{clip-path:url(#clip-path-55);}.cls-75{clip-path:url(#clip-path-56);}.cls-76{clip-path:url(#clip-path-57);}.cls-77{clip-path:url(#clip-path-58);}.cls-78{clip-path:url(#clip-path-59);}.cls-79{clip-path:url(#clip-path-60);}.cls-80{clip-path:url(#clip-path-61);}.cls-81{clip-path:url(#clip-path-62);}.cls-82{clip-path:url(#clip-path-63);}.cls-83{clip-path:url(#clip-path-64);}.cls-84{clip-path:url(#clip-path-65);}.cls-85{clip-path:url(#clip-path-66);}.cls-86{clip-path:url(#clip-path-67);}.cls-87{clip-path:url(#clip-path-68);}.cls-88{clip-path:url(#clip-path-69);}.cls-89{clip-path:url(#clip-path-70);}.cls-90{clip-path:url(#clip-path-71);}</style><clipPath id="clip-path"><path class="cls-1" d="M109.59,92.16V118c0-5.89-2.64-15.44-19.28-17V75.14C107,76.72,109.59,86.26,109.59,92.16Z"/></clipPath><clipPath id="clip-path-2"><path class="cls-1" d="M99.59,92.16V118c0-2.27,0-7.58-14.28-7.58V84.58C99.59,84.58,99.59,89.89,99.59,92.16Z"/></clipPath><clipPath id="clip-path-3"><path class="cls-1" d="M280.27,153.14C274.06,143,267,138,258.88,138V112.16c8.09,0,15.18,5,21.39,15.1v25.88Z"/></clipPath><clipPath id="clip-path-4"><path class="cls-1" d="M280.27,153.14a1.21,1.21,0,0,1,0-.19V127.26c3.84,6.26,7.35,14.48,10.55,24.72q1.86,6,3.43,12.36v25.88q-1.58-6.39-3.43-12.36C287.62,167.62,284.11,159.4,280.27,153.14Z"/></clipPath><clipPath id="clip-path-5"><path class="cls-1" d="M292.41,241.16V267c0-33.62-3.76-62.68-11.17-86.39-6.64-21.25-14.6-33-22.4-33V121.82c7.8,0,15.76,11.7,22.4,33C288.65,178.47,292.41,207.54,292.41,241.16Z"/></clipPath><clipPath id="clip-path-6"><path class="cls-1" d="M408.1,241.16V267c0-46.6-14.78-86.9-43.92-119.78C335.23,114.6,299.79,98,258.84,98V72.15c41,0,76.39,16.57,105.34,49.23C393.32,154.25,408.1,194.56,408.1,241.16Z"/></clipPath><clipPath id="clip-path-7"><path class="cls-1" d="M294.25,190.22a8.61,8.61,0,0,1,0-.88v-25c5.41,22.07,8.16,47.84,8.16,76.82V267C302.41,238.06,299.66,212.29,294.25,190.22Z"/></clipPath><clipPath id="clip-path-8"><path class="cls-1" d="M302.41,241.16V267c0,34.57-3.91,64.58-11.59,89.18C282.44,383,272,396,258.84,396V370.15c13.14,0,23.6-13,32-39.81C298.5,305.74,302.41,275.73,302.41,241.16Z"/></clipPath><clipPath id="clip-path-9"><path class="cls-1" d="M297.25,430.73V404.85c25.05-7.26,47.46-21.94,66.93-43.91,29.14-32.88,43.92-73.18,43.92-119.78V267c0,46.6-14.78,86.9-43.92,119.78C344.71,408.79,322.3,423.47,297.25,430.73Z"/></clipPath><clipPath id="clip-path-10"><path class="cls-1" d="M109.58,390.3v25.89c-.18,5.82-3,15.26-19.27,16.86V407.17C106.54,405.57,109.4,396.13,109.58,390.3Z"/></clipPath><clipPath id="clip-path-11"><path class="cls-1" d="M418.1,241.16V267c0,49-15.59,91.39-46.33,126.07C340.85,428,302.85,445.7,258.84,445.7V419.82c44,0,82-17.7,112.93-52.6C402.51,332.55,418.1,290.13,418.1,241.16Z"/></clipPath><clipPath id="clip-path-12"><path class="cls-1" d="M372.93,448.86v25.88c0-5.9-2.63-15.44-19.27-17V431.83C370.3,433.42,372.93,443,372.93,448.86Z"/></clipPath><clipPath id="clip-path-13"><path class="cls-1" d="M362.93,448.85v25.89c0-2.27,0-7.58-14.28-7.58V441.27C362.93,441.27,362.93,446.59,362.93,448.85Z"/></clipPath><clipPath id="clip-path-14"><path class="cls-1" d="M551.5,526.71c-7.91-21.49-17.53-32-29.28-32V468.86c11.75,0,21.37,10.47,29.28,32v25.89Z"/></clipPath><clipPath id="clip-path-15"><path class="cls-1" d="M551.5,526.71a4.51,4.51,0,0,1,0-.52V500.82q1.37,3.71,2.67,7.85c.36,1.18.72,2.36,1.07,3.56v25.88c-.35-1.2-.71-2.38-1.07-3.55C553.3,531.79,552.41,529.18,551.5,526.71Z"/></clipPath><clipPath id="clip-path-16"><path class="cls-1" d="M555.24,538.11a8.67,8.67,0,0,1,0-1.14V512.23c7,23.92,10.51,52.7,10.51,85.62v25.88C565.75,590.81,562.21,562,555.24,538.11Z"/></clipPath><clipPath id="clip-path-17"><path class="cls-1" d="M671.44,597.85v25.88c0-46.59-14.77-86.9-43.92-119.77-28.94-32.67-64.38-49.23-105.33-49.23V428.85c40.95,0,76.39,16.56,105.33,49.22C656.67,511,671.44,551.25,671.44,597.85Z"/></clipPath><clipPath id="clip-path-18"><path class="cls-1" d="M555.75,597.85v25.88c0-33.61-3.75-62.69-11.16-86.38-6.65-21.25-14.6-33-22.4-33V478.52c7.8,0,15.75,11.7,22.4,32.94C552,535.16,555.75,564.23,555.75,597.85Z"/></clipPath><clipPath id="clip-path-19"><path class="cls-1" d="M663.76,678.69V652.81a191.91,191.91,0,0,0,7.68-55v25.88A191.86,191.86,0,0,1,663.76,678.69Z"/></clipPath><clipPath id="clip-path-20"><path class="cls-1" d="M565.75,597.85v25.88c0,34.58-3.9,64.58-11.58,89.19-8.38,26.79-18.85,39.81-32,39.81V726.85c13.13,0,23.6-13,32-39.82C561.85,662.43,565.75,632.42,565.75,597.85Z"/></clipPath><clipPath id="clip-path-21"><path class="cls-1" d="M561.12,787.28V761.4c24.84-7.32,47.07-21.95,66.4-43.76a170.18,170.18,0,0,0,36.24-64.83v25.88a170.11,170.11,0,0,1-36.24,64.83C608.19,765.33,586,780,561.12,787.28Z"/></clipPath><clipPath id="clip-path-22"><path class="cls-1" d="M372.93,747v25.88c-.18,5.84-3.05,15.28-19.27,16.88V763.87C369.88,762.27,372.75,752.83,372.93,747Z"/></clipPath><clipPath id="clip-path-23"><path class="cls-1" d="M681.44,597.85v25.88c0,49-15.58,91.4-46.32,126.07-30.93,34.9-68.93,52.6-112.93,52.6V776.52c44,0,82-17.7,112.93-52.6C665.86,689.24,681.44,646.83,681.44,597.85Z"/></clipPath><clipPath id="clip-path-24"><path class="cls-1" d="M534.75,352.17l-12.66,10.4-1.16.72,12.66-10.39Z"/></clipPath><clipPath id="clip-path-25"><path class="cls-1" d="M513.83,368l12.66-10.4a53.16,53.16,0,0,1,7.1-4.69l-12.66,10.39A53.88,53.88,0,0,0,513.83,368Z"/></clipPath><clipPath id="clip-path-26"><path class="cls-1" d="M616.33,388.22l-12.66,10.4A57.16,57.16,0,0,0,591,397.25a91.38,91.38,0,0,0-18.27,2.1c-10.17,2.07-20.06,4.93-28.09,11.2l12.66-10.4c8-6.27,17.92-9.13,28.09-11.2a91.38,91.38,0,0,1,18.27-2.1A57.76,57.76,0,0,1,616.33,388.22Z"/></clipPath><clipPath id="clip-path-27"><path class="cls-1" d="M492.4,362.75l-12.66,10.4-.06,0,12.66-10.4Z"/></clipPath><clipPath id="clip-path-28"><path class="cls-1" d="M492.34,362.79l-12.66,10.4,0-.07,12.66-10.4Z"/></clipPath><clipPath id="clip-path-29"><path class="cls-1" d="M497.37,373.31l-12.66,10.4q3.68-3,7.28-6.13c1-.87,2-1.73,3.05-2.57l12.66-10.4-3.05,2.57Q501,370.29,497.37,373.31Z"/></clipPath><clipPath id="clip-path-30"><path class="cls-1" d="M492,413.49l12.66-10.39a41.75,41.75,0,0,1,27.21-9.78,56.58,56.58,0,0,1,15,2.17c3.53,1,6.82,3.05,10.33,4.66l-12.66,10.4c-3.5-1.61-6.8-3.68-10.33-4.66a56.2,56.2,0,0,0-15-2.18A41.82,41.82,0,0,0,492,413.49Z"/></clipPath><clipPath id="clip-path-31"><path class="cls-1" d="M454,414.67l12.66-10.39a110.06,110.06,0,0,1,14.14-9.84c13-7.63,26.78-13.14,42.16-14.44,1.34-.11,2.7-.15,4.06-.15,2.32,0,4.65.11,6.94.11l-12.66,10.39c-2.28,0-4.62-.1-6.94-.1-1.36,0-2.72,0-4.06.15-15.38,1.3-29.19,6.8-42.15,14.43A111.49,111.49,0,0,0,454,414.67Z"/></clipPath><clipPath id="clip-path-32"><path class="cls-1" d="M564.51,526.6,551.85,537c5.76-4.73,8.64-11.12,7.86-19.4-.69-7.35-4.53-13.12-10.2-17.79a32.32,32.32,0,0,0-11.76-6.2l12.65-10.4a32.28,32.28,0,0,1,11.77,6.2c5.67,4.67,9.51,10.44,10.2,17.79C573.15,515.47,570.27,521.87,564.51,526.6Z"/></clipPath><clipPath id="clip-path-33"><path class="cls-1" d="M471.7,378.81l12.66-10.39a104.21,104.21,0,0,0-22.27,25.92,82.71,82.71,0,0,0-10,22.1,7.68,7.68,0,0,0-.33,3l-12.66,10.39a7.89,7.89,0,0,1,.33-3,82.5,82.5,0,0,1,10-22.09A104,104,0,0,1,471.7,378.81Z"/></clipPath><clipPath id="clip-path-34"><path class="cls-1" d="M518.05,500.74l-12.66,10.4a17.29,17.29,0,0,0,6-10.6,20.75,20.75,0,0,0-.85-10.37c-.15-.44-.27-.89-.51-1.68l12.65-10.39c.25.79.37,1.24.52,1.68a20.84,20.84,0,0,1,.85,10.37A17.31,17.31,0,0,1,518.05,500.74Z"/></clipPath><clipPath id="clip-path-35"><path class="cls-1" d="M308.61,270.34l12.66-10.4a25,25,0,0,1,12.54-5.52,34.58,34.58,0,0,1,4.61-.32,26.69,26.69,0,0,1,20,8.68c5.82,6.09,8.56,13.56,9.62,21.62a51.36,51.36,0,0,1-4,28,1.88,1.88,0,0,0,.26,2.21c1.2,1.44,2.32,3,3.55,4.4,5.84,6.82,12.52,12.77,19.22,18.68,4.09,3.6,8.14,7.26,12.25,10.94L386.62,359c-4.11-3.68-8.15-7.33-12.25-10.93-6.7-5.92-13.38-11.86-19.22-18.68-1.23-1.43-2.34-3-3.55-4.4a1.88,1.88,0,0,1-.26-2.21,51.3,51.3,0,0,0,4-28c-1.05-8.05-3.79-15.53-9.62-21.62a26.71,26.71,0,0,0-20-8.68,33,33,0,0,0-4.61.33A25,25,0,0,0,308.61,270.34Z"/></clipPath><clipPath id="clip-path-36"><path class="cls-1" d="M426.65,407.14,414,417.53a32.78,32.78,0,0,0,7.06-9l12.66-10.4A33,33,0,0,1,426.65,407.14Z"/></clipPath><clipPath id="clip-path-37"><path class="cls-1" d="M389.61,374.25,377,384.65c-.19-.47-.37-.94-.58-1.4L389,372.85C389.24,373.32,389.42,373.79,389.61,374.25Z"/></clipPath><clipPath id="clip-path-38"><path class="cls-1" d="M389,372.85l-12.66,10.4a64.43,64.43,0,0,0-13.47-18.9c-7.12-7-14.61-13.5-21.94-20.24-2.55-2.36-5-4.81-7.61-7.13a11.53,11.53,0,0,1-3.55-6.29,42.07,42.07,0,0,1,1.72-24.93,22.36,22.36,0,0,1,1.33-2.53l12.65-10.4a22.28,22.28,0,0,0-1.32,2.54,42.06,42.06,0,0,0-1.72,24.93,11.5,11.5,0,0,0,3.55,6.28c2.58,2.33,5.06,4.77,7.61,7.13C361,340.46,368.44,347,375.56,354A64.56,64.56,0,0,1,389,372.85Z"/></clipPath><clipPath id="clip-path-39"><path class="cls-1" d="M594.31,567.87l-12.66,10.39c-7.64,6.28-16.76,9.81-27,11a56.75,56.75,0,0,1-6.64.4,50,50,0,0,1-6.21-.38c-.49-.06-1,0-1.92-.1l12.66-10.39c.92,0,1.42,0,1.92.09a48.17,48.17,0,0,0,6.21.39,56.75,56.75,0,0,0,6.64-.4C577.55,577.67,586.67,574.14,594.31,567.87Z"/></clipPath><clipPath id="clip-path-40"><path class="cls-1" d="M466,465.77l-12.66,10.4c-3-2.42-6-4.84-9-7.12-4.18-3.17-8.36-6.34-12.69-9.29a40.58,40.58,0,0,0-6-2.85l12.65-10.39a40.67,40.67,0,0,1,6,2.84c4.33,2.95,8.51,6.12,12.69,9.29C460.07,460.94,463,463.35,466,465.77Z"/></clipPath><clipPath id="clip-path-41"><path class="cls-1" d="M461.43,417l12.66-10.4c-13.69,11.24-25.29,24.55-35.45,39.27a4.82,4.82,0,0,0-.29.64L425.7,456.91a3.61,3.61,0,0,1,.28-.63A189.06,189.06,0,0,1,461.43,417Z"/></clipPath><clipPath id="clip-path-42"><path class="cls-1" d="M388.59,393.43l-12.65,10.39c-2.19-7.41-12.53-17.5-19.08-18.58l12.66-10.4C376.07,375.92,386.4,386,388.59,393.43Z"/></clipPath><clipPath id="clip-path-43"><path class="cls-1" d="M420,440.55,407.35,451a22.59,22.59,0,0,1-4.59,3l12.65-10.39A22.86,22.86,0,0,0,420,440.55Z"/></clipPath><clipPath id="clip-path-44"><path class="cls-1" d="M341.79,363.33l-12.66,10.39c-.65-1.57-1.1-3-1.75-4.26-4.27-8.56-10.91-14.9-18.8-20a4.91,4.91,0,0,1-2.18-2.68,56.26,56.26,0,0,1-2.9-17,71.8,71.8,0,0,1,2.68-23.08,15.69,15.69,0,0,1,3.91-7.18l12.66-10.4a15.67,15.67,0,0,0-3.91,7.19,71.73,71.73,0,0,0-2.68,23.08,55.83,55.83,0,0,0,2.9,17,5,5,0,0,0,2.18,2.69c7.89,5.1,14.53,11.44,18.8,20C340.68,360.37,341.14,361.75,341.79,363.33Z"/></clipPath><clipPath id="clip-path-45"><path class="cls-1" d="M415.41,443.53l-12.65,10.39c.11-1.9.38-3.86.31-5.82-.25-7-3.92-12-10.57-14.44a48.54,48.54,0,0,0-16.67-2.53c-1.08,0-2.15,0-3.22.05l12.66-10.39q1.61-.06,3.21-.06a48.48,48.48,0,0,1,16.67,2.54c6.66,2.39,10.33,7.39,10.58,14.44C415.8,439.66,415.53,441.62,415.41,443.53Z"/></clipPath><clipPath id="clip-path-46"><path class="cls-1" d="M306.66,326,294,336.36c-2-1.37-4-2.67-6-4a40.83,40.83,0,0,1-14.54-17.62c-3.05-7.1-6.51-14-9.79-21-.14-.3-.29-.6-.57-1.2l12.65-10.4c.29.6.44.9.57,1.2,3.28,7,6.75,13.95,9.79,21.06a40.94,40.94,0,0,0,14.54,17.61C302.63,323.3,304.62,324.59,306.66,326Z"/></clipPath><clipPath id="clip-path-47"><path class="cls-1" d="M585,594.87l-12.66,10.39a53.43,53.43,0,0,1-10.26,6.45,66.48,66.48,0,0,1-30,7.22c-15.79-.07-29.44-5.3-40.47-17.22a58,58,0,0,1-15.46-32.09l12.66-10.39a58,58,0,0,0,15.46,32.09c11,11.92,24.68,17.14,40.47,17.22a66.61,66.61,0,0,0,30-7.22A53.43,53.43,0,0,0,585,594.87Z"/></clipPath><clipPath id="clip-path-48"><path class="cls-1" d="M385.27,420.79l-12.66,10.39c.08-1.84,1-3.53,1.62-5.35a31.91,31.91,0,0,0,1.38-5.81c.4-3.08-.9-5.23-3.94-5.93a50.89,50.89,0,0,0-10.29-1.43c-.79,0-1.59,0-2.38,0a106.3,106.3,0,0,0-30.82,4.53,3.86,3.86,0,0,0-1,.45l12.66-10.4a4.26,4.26,0,0,1,1-.45,106.61,106.61,0,0,1,30.81-4.52l2.39,0a51.61,51.61,0,0,1,10.29,1.43c3,.7,4.33,2.85,3.94,5.93a30.94,30.94,0,0,1-1.39,5.81C386.27,417.26,385.35,419,385.27,420.79Z"/></clipPath><clipPath id="clip-path-49"><path class="cls-1" d="M490.7,599.12,478,609.51c-.89-.25-1.48-.35-2-.57-15.12-6-24.95-16.62-27.81-32.8-1-5.66-.59-11.51-.69-17.27-.09-5.15-.1-10.31-1.39-15.42a31.51,31.51,0,0,0-11.05-17Q416,511,396.94,495.75c-5.29-4.25-10-9-13-15.18-2.1-4.39-2.85-9.05-3.32-13.72a19.17,19.17,0,0,0-7.52-13.61c-3.33-2.63-6.74-5.16-10.08-7.76a20.07,20.07,0,0,1-7.54-21.38c.19-.74.5-1.46.82-2.36L369,411.34c-.32.91-.63,1.62-.82,2.36a20,20,0,0,0,7.54,21.38c3.34,2.61,6.75,5.14,10.07,7.77a19.06,19.06,0,0,1,7.52,13.61c.48,4.66,1.23,9.33,3.33,13.71,3,6.22,7.68,10.94,13,15.18q19.08,15.31,38.13,30.66a31.43,31.43,0,0,1,11,17c1.3,5.1,1.31,10.26,1.4,15.41.1,5.77-.32,11.61.69,17.27,2.86,16.18,12.69,26.84,27.8,32.8C489.21,598.76,489.81,598.87,490.7,599.12Z"/></clipPath><clipPath id="clip-path-50"><path class="cls-1" d="M362.62,431,350,441.44c.74-.6,1.42-1.28,2.15-1.89l12.66-10.4C364,429.76,363.36,430.44,362.62,431Z"/></clipPath><clipPath id="clip-path-51"><path class="cls-1" d="M283.86,340.71l-12.66,10.4c-5.8-9.39-7.6-19.07-5.42-29.36l12.66-10.4C276.26,321.64,278.06,331.33,283.86,340.71Z"/></clipPath><clipPath id="clip-path-52"><path class="cls-1" d="M269.55,244l12.65-10.4c-.58.48-1.15,1-1.72,1.47-10.45,9.13-18,20.24-21.58,34.06-2.78,10.77-2.87,21.78-1.08,33a60.81,60.81,0,0,0,9.44,24.37,19,19,0,0,0,1.29,1.56l-12.66,10.4c-.53-.64-1-1.07-1.29-1.56a60.94,60.94,0,0,1-9.44-24.38,80,80,0,0,1,1.09-33c3.57-13.82,11.13-24.92,21.57-34.06C268.39,245,269,244.51,269.55,244Z"/></clipPath><clipPath id="clip-path-53"><path class="cls-1" d="M329.12,393.7l-12.66,10.39c-6.1-2-12.19-3.51-18.55-5.11l12.66-10.4C316.93,390.19,323,391.72,329.12,393.7Z"/></clipPath><clipPath id="clip-path-54"><path class="cls-1" d="M284.52,399.14l12.66-10.39c8.75-7.18,26.13-12.78,39-12.78a27.37,27.37,0,0,1,9.47,1.42L333,387.79a27.56,27.56,0,0,0-9.47-1.43C310.65,386.36,293.27,392,284.52,399.14Z"/></clipPath><clipPath id="clip-path-55"><path class="cls-1" d="M269.86,365.33l-12.66,10.4c.37-.31.73-.65,1.07-1,2.68-2.62,3.08-4.79,1.38-8.38a34.4,34.4,0,0,0-9.13-11.13c-2.9-2.49-6-4.7-9.05-7l12.66-10.4c3,2.32,6.15,4.52,9.05,7A34.17,34.17,0,0,1,272.3,356c1.71,3.58,1.31,5.75-1.37,8.38C270.58,364.68,270.23,365,269.86,365.33Z"/></clipPath><clipPath id="clip-path-56"><path class="cls-1" d="M339.4,455.78l-12.66,10.4a22.16,22.16,0,0,0,6.59-9.76,22.62,22.62,0,0,0,.22-16.05c-2.58-7.08-7.88-11.22-14.78-13.19a34.43,34.43,0,0,0-9.47-1.4,30,30,0,0,0-16.12,4.76l12.65-10.4A30.11,30.11,0,0,1,322,415.39a34.47,34.47,0,0,1,9.47,1.39c6.89,2,12.2,6.11,14.78,13.2a22.68,22.68,0,0,1-.22,16A22.12,22.12,0,0,1,339.4,455.78Z"/></clipPath><clipPath id="clip-path-57"><path class="cls-1" d="M353.87,454.26l-12.66,10.39a37.92,37.92,0,0,1-12.38,2.07c-.89,0-1.77,0-2.67-.09l12.66-10.39c.9.05,1.78.08,2.67.08A38.22,38.22,0,0,0,353.87,454.26Z"/></clipPath><clipPath id="clip-path-58"><path class="cls-1" d="M345,466.55l-12.66,10.39a30.05,30.05,0,0,0,6.81-7.89c.76-1.27,1.3-2.68,2.11-4.4l12.66-10.39c-.82,1.71-1.36,3.12-2.11,4.39A30.26,30.26,0,0,1,345,466.55Z"/></clipPath><clipPath id="clip-path-59"><path class="cls-1" d="M307.66,409.59l12.66-10.4a49.6,49.6,0,0,0-5.42,5.24,40.53,40.53,0,0,0-9.07,15.71l-12.65,10.4a40.32,40.32,0,0,1,9.06-15.71A47.81,47.81,0,0,1,307.66,409.59Z"/></clipPath><clipPath id="clip-path-60"><path class="cls-1" d="M368.57,458.58,355.91,469A45.44,45.44,0,0,1,331,479.11l12.66-10.4A45.43,45.43,0,0,0,368.57,458.58Z"/></clipPath><clipPath id="clip-path-61"><path class="cls-1" d="M343.68,468.71,331,479.11c-.77,0-1.19,0-1.6-.06l12.66-10.4A13,13,0,0,0,343.68,468.71Z"/></clipPath><clipPath id="clip-path-62"><path class="cls-1" d="M342.08,468.65l-12.66,10.4,0,0L342,468.68Z"/></clipPath><clipPath id="clip-path-63"><path class="cls-1" d="M342,468.68l-12.65,10.39h-.05L342,468.69Z"/></clipPath><clipPath id="clip-path-64"><path class="cls-1" d="M383.73,528.6,371.07,539a98.51,98.51,0,0,0,14-14.4,102.15,102.15,0,0,0,10.47-15.65c.24-.44.54-.84.89-1.38l12.66-10.4c-.35.54-.66.95-.89,1.39a103.14,103.14,0,0,1-10.47,15.65A99,99,0,0,1,383.73,528.6Z"/></clipPath><clipPath id="clip-path-65"><path class="cls-1" d="M259.06,428.34l12.66-10.4c11.5-9.45,24.18-16.8,38.88-21l-12.66,10.4C283.25,411.54,270.57,418.89,259.06,428.34Z"/></clipPath><clipPath id="clip-path-66"><path class="cls-1" d="M223,397.19l12.66-10.4a40.11,40.11,0,0,0-4.83,4.67l-12.66,10.4A40.86,40.86,0,0,1,223,397.19Z"/></clipPath><clipPath id="clip-path-67"><path class="cls-1" d="M264.43,424.33l-12.66,10.4c.07-.66.13-1.26.2-1.85s.19-1.3.27-1.95c.52-4,1.19-8.06,1.53-12.12.81-9.86-4.53-16.5-14.31-18.12a40.2,40.2,0,0,0-6.71-.54,69.75,69.75,0,0,0-12.05,1.23c-.86.15-1.71.32-2.57.48l12.66-10.4,2.56-.47a70,70,0,0,1,12.06-1.23,41.36,41.36,0,0,1,6.71.53c9.78,1.62,15.12,8.27,14.31,18.13-.34,4.06-1,8.08-1.53,12.11-.08.65-.2,1.3-.27,2S264.5,423.67,264.43,424.33Z"/></clipPath><clipPath id="clip-path-68"><path class="cls-1" d="M254.85,452l-12.66,10.4a4,4,0,0,0,.52-.69c4.86-5.78,9.82-11.48,14.59-17.34a58.71,58.71,0,0,1,8.42-8.34l12.66-10.4A59.23,59.23,0,0,0,270,434c-4.77,5.87-9.73,11.56-14.59,17.35A5.08,5.08,0,0,1,254.85,452Z"/></clipPath><clipPath id="clip-path-69"><path class="cls-1" d="M406.53,579.49l-12.66,10.4a95.43,95.43,0,0,1-39.94,19.62A107.92,107.92,0,0,1,330,612.29a96.16,96.16,0,0,1-13.38-.93,99.7,99.7,0,0,1-45.23-18.27c-7.18-5.2-13.1-11.83-18.73-18.7a18,18,0,0,0-2.29-2.41,4.06,4.06,0,0,0-2.56-1.09,2.31,2.31,0,0,0-1.48.51L259,561a2.3,2.3,0,0,1,1.48-.52,4.08,4.08,0,0,1,2.56,1.1A17.44,17.44,0,0,1,265.3,564c5.63,6.87,11.55,13.49,18.73,18.7A99.57,99.57,0,0,0,329.26,601a94.67,94.67,0,0,0,13.38.94,108.52,108.52,0,0,0,23.95-2.78A95.32,95.32,0,0,0,406.53,579.49Z"/></clipPath><clipPath id="clip-path-70"><path class="cls-1" d="M214.34,467.81,227,457.41a13.12,13.12,0,0,1,2.55-1.65,3.87,3.87,0,0,1,1.64-.42c1.37,0,2.29,1,2.26,2.87a26.68,26.68,0,0,1-.92,6.49c-5.21,19.79-6.41,39.94-2.07,60.58a98.68,98.68,0,0,0,21.34,44.07,92.4,92.4,0,0,0,9.48,9.61l-12.66,10.39a94.33,94.33,0,0,1-9.48-9.6,98.68,98.68,0,0,1-21.34-44.07c-4.34-20.65-3.14-40.8,2.07-60.59a26.55,26.55,0,0,0,.92-6.49c0-1.84-.89-2.86-2.25-2.86a3.76,3.76,0,0,0-1.65.42A12.25,12.25,0,0,0,214.34,467.81Z"/></clipPath><clipPath id="clip-path-71"><path class="cls-1" d="M241.92,412.31l12.65-10.4a101.59,101.59,0,0,0-15.48,15.82c-8.38,10.72-14.45,22.63-16.88,36.4a56.14,56.14,0,0,0-.82,9.76l-12.66,10.39a57.11,57.11,0,0,1,.82-9.75c2.43-13.78,8.5-25.69,16.89-36.4A100.27,100.27,0,0,1,241.92,412.31Z"/></clipPath></defs><g class="cls-2"><rect class="cls-3" x="90.31" y="72.15" width="168.53" height="25.88"/><rect class="cls-3" x="80.31" y="84.58" width="5" height="25.88"/><g class="cls-2"><g class="cls-4"><g class="cls-2"><path class="cls-5" d="M109.59,92.16V118c0-5.89-2.64-15.44-19.28-17V75.14c16.64,1.58,19.28,11.12,19.28,17"/></g></g></g><g class="cls-2"><g class="cls-6"><g class="cls-2"><path class="cls-7" d="M99.59,92.16V118c0-2.27,0-7.58-14.28-7.58V84.58c14.28,0,14.28,5.31,14.28,7.58"/></g></g></g><polygon class="cls-8" points="258.88 112.16 258.88 138.04 215.27 137.76 215.27 111.88 258.88 112.16"/><polygon class="cls-3" points="258.84 121.82 258.84 147.7 225.29 147.49 225.29 121.6 258.84 121.82"/><g class="cls-2"><g class="cls-9"><g class="cls-2"><path class="cls-5" d="M302.41,241.16V267c0-34.57-3.91-64.57-11.59-89.18C282.44,151.07,272,138,258.88,138V112.16c13.1,0,23.56,13,31.94,39.82,7.68,24.61,11.59,54.61,11.59,89.18"/></g></g></g><g class="cls-2"><g class="cls-10"><g class="cls-2"><path class="cls-5" d="M302.41,241.16V267c0-34.57-3.91-64.57-11.59-89.18C282.44,151.07,272,138,258.88,138V112.16c13.1,0,23.56,13,31.94,39.82,7.68,24.61,11.59,54.61,11.59,89.18"/></g></g></g><g class="cls-2"><g class="cls-11"><g class="cls-2"><path class="cls-7" d="M292.41,241.16V267c0-33.62-3.76-62.68-11.17-86.39-6.64-21.25-14.6-33-22.4-33V121.82c7.8,0,15.76,11.7,22.4,33,7.41,23.7,11.17,52.77,11.17,86.39"/></g></g></g><g class="cls-2"><g class="cls-12"><g class="cls-2"><path class="cls-7" d="M408.1,241.16V267c0-46.6-14.78-86.9-43.92-119.78C335.23,114.6,299.79,98,258.84,98V72.15c41,0,76.39,16.57,105.34,49.23,29.14,32.87,43.92,73.18,43.92,119.78"/></g></g></g><g class="cls-2"><g class="cls-13"><g class="cls-2"><path class="cls-5" d="M302.41,241.16V267c0-34.57-3.91-64.57-11.59-89.18C282.44,151.07,272,138,258.88,138V112.16c13.1,0,23.56,13,31.94,39.82,7.68,24.61,11.59,54.61,11.59,89.18"/></g></g></g><path class="cls-14" d="M258.88,112.16c13.1,0,23.56,13,31.94,39.82,7.68,24.61,11.59,54.61,11.59,89.18s-3.91,64.58-11.59,89.18c-8.38,26.79-18.84,39.81-32,39.81H215.68l-.41-258.27Zm22.36,215.39c7.41-23.7,11.17-52.76,11.17-86.39s-3.76-62.69-11.17-86.39c-6.64-21.25-14.6-33-22.4-33l-33.55-.22.37,238.9h33.18c7.8,0,15.76-11.71,22.4-32.95"/><g class="cls-2"><g class="cls-15"><g class="cls-2"><path class="cls-16" d="M302.41,241.16V267c0,34.57-3.91,64.58-11.59,89.18-.12.37-.23.74-.35,1.1V331.44l.35-1.1c7.68-24.6,11.59-54.61,11.59-89.18"/><path class="cls-17" d="M290.47,331.44v25.88q-4.87,15.27-10.71,24.44V355.88q5.85-9.19,10.71-24.44"/><path class="cls-18" d="M279.76,355.88v25.88a41.35,41.35,0,0,1-6.7,8.26V364.14a41.35,41.35,0,0,0,6.7-8.26"/><path class="cls-7" d="M273.06,364.14V390c-4.36,4-9.08,6-14.22,6V370.15c5.14,0,9.86-2,14.22-6"/></g></g></g><polygon class="cls-3" points="215.68 370.15 215.68 396.04 215.27 137.76 215.27 111.88 215.68 370.15"/><rect class="cls-3" x="215.68" y="370.15" width="43.16" height="25.88"/><polygon class="cls-19" points="109.59 92.16 109.59 118.04 109.58 416.19 109.58 390.31 109.59 92.16"/><g class="cls-2"><g class="cls-20"><g class="cls-2"><path class="cls-21" d="M408.1,241.16V267a190.29,190.29,0,0,1-8.69,58.19V299.35a190.33,190.33,0,0,0,8.69-58.19"/><path class="cls-22" d="M399.41,299.35v25.88A168.05,168.05,0,0,1,381,364.54V338.66a168.05,168.05,0,0,0,18.4-39.31"/><path class="cls-23" d="M381,338.66v25.88a175.26,175.26,0,0,1-16.83,22.28q-5.81,6.56-11.95,12.23V373.17q6.13-5.69,11.95-12.23A176,176,0,0,0,381,338.66"/><path class="cls-5" d="M352.23,373.17v25.88c-26.57,24.56-57.91,37-93.39,37V410.16c35.48,0,66.82-12.43,93.39-37"/></g></g></g><g class="cls-2"><g class="cls-24"><g class="cls-2"><path class="cls-16" d="M109.58,390.3v25.89a18,18,0,0,1-.81,4.9V395.21a18,18,0,0,0,.81-4.91"/><path class="cls-17" d="M108.77,395.21v25.88a15.24,15.24,0,0,1-1.65,3.54V398.75a15.24,15.24,0,0,0,1.65-3.54"/><path class="cls-18" d="M107.12,398.75v25.88a14.83,14.83,0,0,1-2.47,2.95V401.7a14.83,14.83,0,0,0,2.47-2.95"/><path class="cls-7" d="M104.65,401.7v25.88c-2.88,2.66-7.39,4.79-14.34,5.47V407.17c7-.69,11.46-2.81,14.34-5.47"/></g></g></g><rect class="cls-8" x="90.31" y="410.16" width="168.53" height="25.88"/><path class="cls-25" d="M364.18,121.38c29.14,32.88,43.92,73.18,43.92,119.78s-14.78,86.9-43.92,119.78c-28.95,32.66-64.39,49.22-105.34,49.22H90.31v-3c16.23-1.6,19.09-11,19.27-16.87V92.16c0-5.9-2.64-15.44-19.28-17v-3H258.84C299.79,72.15,335.23,88.72,364.18,121.38Zm-73.36,209c7.68-24.6,11.59-54.61,11.59-89.18S298.5,176.59,290.82,152c-8.38-26.8-18.84-39.82-31.94-39.82l-43.61-.28.41,258.27h43.16c13.14,0,23.6-13,32-39.81"/><path class="cls-14" d="M371.77,115.09c30.74,34.69,46.33,77.1,46.33,126.07s-15.59,91.39-46.33,126.06c-30.92,34.9-68.92,52.6-112.93,52.6H80.31V397.74h5c13.9,0,14.2-5.31,14.28-7.66V92.16c0-2.27,0-7.58-14.28-7.58h-5V62.5H258.84C302.84,62.5,340.84,80.2,371.77,115.09Zm-7.59,245.85c29.14-32.88,43.92-73.18,43.92-119.78s-14.78-86.91-43.92-119.78c-28.95-32.66-64.39-49.23-105.34-49.23H90.31v3c16.64,1.58,19.28,11.12,19.28,17V390.3c-.18,5.83-3,15.27-19.27,16.87v3H258.84c41,0,76.39-16.56,105.34-49.22"/><g class="cls-2"><g class="cls-26"><g class="cls-2"><path class="cls-16" d="M418.1,241.16V267A199.76,199.76,0,0,1,409,328.11V302.22a199.7,199.7,0,0,0,9.13-61.06"/><path class="cls-17" d="M409,302.22v25.89a177.5,177.5,0,0,1-19.4,41.45V343.67A177.31,177.31,0,0,0,409,302.22"/><path class="cls-18" d="M389.57,343.67v25.89a187.1,187.1,0,0,1-17.8,23.55q-6.16,7-12.71,13V380.23q6.54-6,12.71-13a185.66,185.66,0,0,0,17.8-23.55"/><path class="cls-7" d="M359.06,380.23v25.88C330.64,432.4,297,445.7,258.84,445.7V419.82c38.16,0,71.8-13.31,100.22-39.59"/></g></g></g><rect class="cls-3" x="80.31" y="419.82" width="178.53" height="25.88"/></g><g class="cls-2"><rect class="cls-3" x="353.66" y="428.85" width="168.53" height="25.88"/><rect class="cls-3" x="343.66" y="441.27" width="5" height="25.88"/><g class="cls-2"><g class="cls-27"><g class="cls-2"><path class="cls-5" d="M372.93,448.86v25.88c0-5.9-2.63-15.44-19.27-17V431.83c16.64,1.59,19.27,11.13,19.27,17"/></g></g></g><g class="cls-2"><g class="cls-28"><g class="cls-2"><path class="cls-7" d="M362.93,448.85v25.89c0-2.27,0-7.58-14.28-7.58V441.27c14.28,0,14.28,5.32,14.28,7.58"/></g></g></g><polygon class="cls-8" points="522.23 468.86 522.23 494.74 478.62 494.46 478.62 468.58 522.23 468.86"/><polygon class="cls-3" points="522.19 478.52 522.19 504.4 488.63 504.18 488.63 478.3 522.19 478.52"/><g class="cls-2"><g class="cls-29"><g class="cls-2"><path class="cls-5" d="M565.75,597.85v25.88c0-34.56-3.9-64.56-11.58-89.17-8.39-26.8-18.85-39.82-31.95-39.82V468.86c13.1,0,23.56,13,31.95,39.81,7.68,24.62,11.58,54.62,11.58,89.18"/></g></g></g><g class="cls-2"><g class="cls-30"><g class="cls-2"><path class="cls-5" d="M565.75,597.85v25.88c0-34.56-3.9-64.56-11.58-89.17-8.39-26.8-18.85-39.82-31.95-39.82V468.86c13.1,0,23.56,13,31.95,39.81,7.68,24.62,11.58,54.62,11.58,89.18"/></g></g></g><g class="cls-2"><g class="cls-31"><g class="cls-2"><path class="cls-5" d="M565.75,597.85v25.88c0-34.56-3.9-64.56-11.58-89.17-8.39-26.8-18.85-39.82-31.95-39.82V468.86c13.1,0,23.56,13,31.95,39.81,7.68,24.62,11.58,54.62,11.58,89.18"/></g></g></g><g class="cls-2"><g class="cls-32"><g class="cls-2"><path class="cls-7" d="M671.44,597.85v25.88c0-46.59-14.77-86.9-43.92-119.77-28.94-32.67-64.38-49.23-105.33-49.23V428.85c40.95,0,76.39,16.56,105.33,49.22,29.15,32.88,43.92,73.18,43.92,119.78"/></g></g></g><g class="cls-2"><g class="cls-33"><g class="cls-2"><path class="cls-7" d="M555.75,597.85v25.88c0-33.61-3.75-62.69-11.16-86.38-6.65-21.25-14.6-33-22.4-33V478.52c7.8,0,15.75,11.7,22.4,32.94,7.41,23.7,11.16,52.77,11.16,86.39"/></g></g></g><g class="cls-2"><g class="cls-34"><g class="cls-2"><path class="cls-21" d="M671.44,597.85v25.88a190.4,190.4,0,0,1-8.68,58.2V656.05a190.4,190.4,0,0,0,8.68-58.2"/></g></g></g><path class="cls-14" d="M522.22,468.86c13.1,0,23.56,13,31.95,39.81,7.68,24.62,11.58,54.62,11.58,89.18s-3.9,64.58-11.58,89.18c-8.38,26.8-18.85,39.82-32,39.82H479l-.4-258.27Zm22.37,215.38c7.41-23.69,11.16-52.76,11.16-86.39s-3.75-62.69-11.16-86.39c-6.65-21.24-14.6-32.94-22.4-32.94l-33.56-.22L489,717.19h33.18c7.8,0,15.76-11.7,22.4-33"/><rect class="cls-3" x="479.02" y="726.85" width="43.17" height="25.88"/><g class="cls-2"><g class="cls-35"><g class="cls-2"><path class="cls-16" d="M565.75,597.85v25.88c0,34.58-3.9,64.58-11.58,89.19-.12.37-.24.73-.35,1.1V688.13c.11-.36.23-.73.35-1.1,7.68-24.6,11.58-54.61,11.58-89.18"/><path class="cls-17" d="M553.82,688.13V714q-4.87,15.26-10.71,24.43V712.57q5.85-9.2,10.71-24.44"/><path class="cls-18" d="M543.11,712.57v25.88a41.75,41.75,0,0,1-6.71,8.27V720.83a41.38,41.38,0,0,0,6.71-8.26"/><path class="cls-7" d="M536.4,720.83v25.89c-4.35,4-9.08,6-14.21,6V726.85c5.13,0,9.86-2,14.21-6"/></g></g></g><polygon class="cls-3" points="479.02 726.85 479.02 752.73 478.62 494.46 478.62 468.58 479.02 726.85"/><g class="cls-2"><g class="cls-36"><g class="cls-2"><path class="cls-21" d="M671.44,597.85v25.88a190.4,190.4,0,0,1-8.68,58.2V656.05a190.4,190.4,0,0,0,8.68-58.2"/><path class="cls-22" d="M662.76,656.05v25.88a168.05,168.05,0,0,1-18.4,39.31V695.36a168.05,168.05,0,0,0,18.4-39.31"/><path class="cls-23" d="M644.36,695.36v25.88a176.77,176.77,0,0,1-16.84,22.28q-5.79,6.54-11.95,12.23V729.87q6.15-5.68,11.95-12.23a176.77,176.77,0,0,0,16.84-22.28"/><path class="cls-5" d="M615.57,729.87v25.88c-26.56,24.56-57.9,37-93.38,37V766.86c35.48,0,66.82-12.43,93.38-37"/></g></g></g><g class="cls-2"><g class="cls-37"><g class="cls-2"><path class="cls-16" d="M372.93,747v25.88a18,18,0,0,1-.81,4.91V751.9a18,18,0,0,0,.81-4.91"/><path class="cls-17" d="M372.12,751.9v25.88a15.5,15.5,0,0,1-1.65,3.55V755.44a15.24,15.24,0,0,0,1.65-3.54"/><path class="cls-18" d="M370.47,755.44v25.89a14.78,14.78,0,0,1-2.47,2.94V758.39a14.55,14.55,0,0,0,2.47-2.95"/><path class="cls-7" d="M368,758.39v25.88c-2.89,2.67-7.39,4.79-14.34,5.48V763.87c6.95-.69,11.45-2.81,14.34-5.48"/></g></g></g><rect class="cls-8" x="353.66" y="766.86" width="168.53" height="25.88"/><path class="cls-14" d="M635.12,471.79c30.74,34.68,46.32,77.1,46.32,126.06s-15.58,91.39-46.32,126.07c-30.93,34.9-68.93,52.6-112.93,52.6H343.66V754.43h5c13.9,0,14.21-5.3,14.28-7.65V448.85c0-2.26,0-7.58-14.28-7.58h-5V419.19H522.19C566.19,419.19,604.19,436.89,635.12,471.79Zm-7.6,245.85c29.15-32.88,43.92-73.18,43.92-119.79S656.67,511,627.52,478.07c-28.94-32.66-64.38-49.22-105.33-49.22H353.66v3c16.64,1.59,19.27,11.13,19.27,17V747c-.18,5.84-3.05,15.28-19.27,16.88v3H522.19c40.95,0,76.39-16.56,105.33-49.22"/><path class="cls-25" d="M627.52,478.07c29.15,32.88,43.92,73.18,43.92,119.78s-14.77,86.91-43.92,119.79c-28.94,32.66-64.38,49.22-105.33,49.22H353.66v-3c16.22-1.6,19.09-11,19.27-16.88V448.86c0-5.9-2.63-15.44-19.27-17v-3H522.19C563.14,428.85,598.58,445.41,627.52,478.07ZM554.17,687c7.68-24.61,11.58-54.62,11.58-89.19s-3.9-64.56-11.58-89.18c-8.39-26.79-18.85-39.81-31.95-39.81l-43.6-.28.4,258.27h43.17c13.13,0,23.6-13,32-39.81"/><rect class="cls-3" x="343.66" y="776.52" width="178.53" height="25.88"/><g class="cls-2"><g class="cls-38"><g class="cls-2"><path class="cls-16" d="M681.44,597.85v25.88a199.82,199.82,0,0,1-9.12,61.08V658.92a199.71,199.71,0,0,0,9.12-61.07"/><path class="cls-17" d="M672.32,658.92v25.89a177.43,177.43,0,0,1-19.4,41.44V700.37a177.31,177.31,0,0,0,19.4-41.45"/><path class="cls-18" d="M652.92,700.37v25.88a185.66,185.66,0,0,1-17.8,23.55q-6.17,7-12.7,13V736.92q6.54-6,12.7-13a186.38,186.38,0,0,0,17.8-23.55"/><path class="cls-7" d="M622.42,736.92V762.8c-28.44,26.29-62.08,39.6-100.23,39.6V776.52c38.15,0,71.79-13.31,100.23-39.6"/></g></g></g></g><g class="cls-2"><g class="cls-2"><g class="cls-39"><g class="cls-2"><path class="cls-40" d="M534.75,352.17l-12.66,10.4-1.16.72,12.66-10.39,1.16-.73"/></g></g></g><g class="cls-2"><g class="cls-41"><g class="cls-2"><path class="cls-40" d="M533.59,352.9l-12.66,10.39a53.88,53.88,0,0,0-7.1,4.7l12.66-10.4a53.16,53.16,0,0,1,7.1-4.69"/></g></g></g><g class="cls-2"><g class="cls-42"><g class="cls-2"><path class="cls-40" d="M616.33,388.22l-12.66,10.4A57.16,57.16,0,0,0,591,397.25a91.38,91.38,0,0,0-18.27,2.1c-10.17,2.07-20.06,4.93-28.09,11.2l12.66-10.4c8-6.27,17.92-9.13,28.09-11.2a91.38,91.38,0,0,1,18.27-2.1,57.76,57.76,0,0,1,12.71,1.37"/></g></g></g><polygon class="cls-3" points="492.56 362.74 479.91 373.13 479.76 373.12 492.42 362.72 492.56 362.74"/><polygon class="cls-3" points="492.42 362.72 479.76 373.12 479.85 372.97 492.51 362.57 492.42 362.72"/><polygon class="cls-43" points="492.51 362.57 492.56 362.74 492.42 362.72 492.51 362.57"/><polygon class="cls-43" points="492.4 362.75 492.37 362.72 492.42 362.72 492.4 362.75"/><polygon class="cls-3" points="492.4 362.75 479.74 373.15 479.71 373.12 492.37 362.72 492.4 362.75"/><g class="cls-2"><g class="cls-44"><g class="cls-2"><path class="cls-40" d="M492.4,362.75l-12.66,10.4-.06,0,12.66-10.4.06,0"/></g></g></g><path class="cls-43" d="M492.37,362.72l0,0-.06,0Z"/><g class="cls-2"><g class="cls-45"><g class="cls-2"><path class="cls-40" d="M492.34,362.79l-12.66,10.4,0-.07,12.66-10.4,0,.07"/></g></g></g><g class="cls-2"><g class="cls-46"><g class="cls-2"><path class="cls-40" d="M497.37,373.31l-12.66,10.4q3.68-3,7.28-6.13c1-.87,2-1.73,3.05-2.57l12.66-10.4-3.05,2.57q-3.61,3.1-7.28,6.13"/></g></g></g><g class="cls-2"><g class="cls-47"><g class="cls-2"><path class="cls-40" d="M557.26,400.15l-12.66,10.4c-3.5-1.61-6.8-3.68-10.33-4.66a56.2,56.2,0,0,0-15-2.18A41.82,41.82,0,0,0,492,413.49l12.66-10.39a41.75,41.75,0,0,1,27.21-9.78,56.58,56.58,0,0,1,15,2.17c3.53,1,6.82,3.05,10.33,4.66"/></g></g></g><g class="cls-2"><g class="cls-48"><g class="cls-2"><path class="cls-40" d="M533.92,380l-12.66,10.39c-2.28,0-4.62-.1-6.94-.1-1.36,0-2.72,0-4.06.15-15.38,1.3-29.19,6.8-42.15,14.43A111.49,111.49,0,0,0,454,414.67l12.66-10.39a110.06,110.06,0,0,1,14.14-9.84c13-7.63,26.78-13.14,42.16-14.44,1.34-.11,2.7-.15,4.06-.15,2.32,0,4.65.11,6.94.11"/></g></g></g><g class="cls-2"><g class="cls-49"><g class="cls-2"><path class="cls-50" d="M564.51,526.6,551.85,537c5.76-4.73,8.64-11.12,7.86-19.4-.69-7.35-4.53-13.12-10.2-17.79a32.32,32.32,0,0,0-11.76-6.2l12.65-10.4a32.28,32.28,0,0,1,11.77,6.2c5.67,4.67,9.51,10.44,10.2,17.79.78,8.28-2.1,14.68-7.86,19.41"/></g></g></g><g class="cls-2"><g class="cls-51"><g class="cls-2"><path class="cls-40" d="M451.74,419.45l-12.66,10.39a7.89,7.89,0,0,1,.33-3,82.5,82.5,0,0,1,10-22.09,104,104,0,0,1,22.26-25.93l12.66-10.39a104.21,104.21,0,0,0-22.27,25.92,82.71,82.71,0,0,0-10,22.1,7.68,7.68,0,0,0-.33,3"/></g></g></g><g class="cls-2"><g class="cls-52"><g class="cls-2"><path class="cls-50" d="M518.05,500.74l-12.66,10.4a17.29,17.29,0,0,0,6-10.6,20.75,20.75,0,0,0-.85-10.37c-.15-.44-.27-.89-.51-1.68l12.65-10.39c.25.79.37,1.24.52,1.68a20.84,20.84,0,0,1,.85,10.37,17.31,17.31,0,0,1-6,10.59"/></g></g></g><g class="cls-2"><g class="cls-53"><g class="cls-2"><path class="cls-50" d="M399.28,348.62,386.62,359c-4.11-3.68-8.15-7.33-12.25-10.93-6.7-5.92-13.38-11.86-19.22-18.68-1.23-1.43-2.34-3-3.55-4.4a1.88,1.88,0,0,1-.26-2.21,51.3,51.3,0,0,0,4-28c-1.05-8.05-3.79-15.53-9.62-21.62a26.71,26.71,0,0,0-20-8.68,33,33,0,0,0-4.61.33,25,25,0,0,0-12.54,5.52l12.66-10.4a25,25,0,0,1,12.54-5.52,34.58,34.58,0,0,1,4.61-.32,26.69,26.69,0,0,1,20,8.68c5.82,6.09,8.56,13.56,9.62,21.62a51.36,51.36,0,0,1-4,28,1.88,1.88,0,0,0,.26,2.21c1.2,1.44,2.32,3,3.55,4.4,5.84,6.82,12.52,12.77,19.22,18.68,4.09,3.6,8.14,7.26,12.25,10.94"/></g></g></g><g class="cls-2"><g class="cls-54"><g class="cls-2"><path class="cls-40" d="M426.65,407.14,414,417.53a32.78,32.78,0,0,0,7.06-9l12.66-10.4a33,33,0,0,1-7.06,9"/></g></g></g><g class="cls-2"><g class="cls-55"><g class="cls-2"><path class="cls-40" d="M389.61,374.25,377,384.65c-.19-.47-.37-.94-.58-1.4L389,372.85c.21.47.39.94.58,1.4"/></g></g></g><g class="cls-2"><g class="cls-56"><g class="cls-2"><path class="cls-40" d="M389,372.85l-12.66,10.4a64.43,64.43,0,0,0-13.47-18.9c-7.12-7-14.61-13.5-21.94-20.24-2.55-2.36-5-4.81-7.61-7.13a11.53,11.53,0,0,1-3.55-6.29,42.07,42.07,0,0,1,1.72-24.93,22.36,22.36,0,0,1,1.33-2.53l12.65-10.4a22.28,22.28,0,0,0-1.32,2.54,42.06,42.06,0,0,0-1.72,24.93,11.5,11.5,0,0,0,3.55,6.28c2.58,2.33,5.06,4.77,7.61,7.13C361,340.46,368.44,347,375.56,354A64.56,64.56,0,0,1,389,372.85"/></g></g></g><g class="cls-2"><g class="cls-57"><g class="cls-2"><path class="cls-50" d="M594.31,567.87l-12.66,10.39c-7.64,6.28-16.76,9.81-27,11a56.75,56.75,0,0,1-6.64.4,50,50,0,0,1-6.21-.38c-.49-.06-1,0-1.92-.1l12.66-10.39c.92,0,1.42,0,1.92.09a48.17,48.17,0,0,0,6.21.39,56.75,56.75,0,0,0,6.64-.4c10.26-1.21,19.38-4.74,27-11"/></g></g></g><g class="cls-2"><g class="cls-58"><g class="cls-2"><path class="cls-40" d="M466,465.77l-12.66,10.4c-3-2.42-6-4.84-9-7.12-4.18-3.17-8.36-6.34-12.69-9.29a40.58,40.58,0,0,0-6-2.85l12.65-10.39a40.67,40.67,0,0,1,6,2.84c4.33,2.95,8.51,6.12,12.69,9.29,3,2.29,5.94,4.7,9,7.12"/></g></g></g><g class="cls-2"><g class="cls-59"><g class="cls-2"><path class="cls-40" d="M438.35,446.52,425.7,456.91a3.61,3.61,0,0,1,.28-.63A189.06,189.06,0,0,1,461.43,417l12.66-10.4c-13.69,11.24-25.29,24.55-35.45,39.27a4.82,4.82,0,0,0-.29.64"/></g></g></g><path class="cls-43" d="M615.47,387.15a5.36,5.36,0,0,1,.86,1.07,57.76,57.76,0,0,0-12.71-1.37,91.38,91.38,0,0,0-18.27,2.1c-10.17,2.07-20.06,4.93-28.09,11.2-3.51-1.61-6.8-3.68-10.33-4.66a56.58,56.58,0,0,0-15-2.17c-12.51,0-23.52,4.95-32.69,15-9.36,10.28-16.48,22.34-22.77,34.84-3.54,7-6.59,14.31-9.86,21.48-.16.33-.3.66-.53,1.13-3-2.42-6-4.83-9-7.12-4.18-3.17-8.36-6.34-12.69-9.29a40.67,40.67,0,0,0-6-2.84,4.82,4.82,0,0,1,.29-.64c12.29-17.8,26.68-33.54,44.32-46.05,11.1-7.87,23.09-14.06,36.54-17.25,4.75-1.13,9.62-1.77,14.42-2.62-2.29,0-4.62-.11-6.94-.11-1.36,0-2.72,0-4.06.15-15.38,1.3-29.2,6.81-42.16,14.44a102.72,102.72,0,0,0-27.11,22.67c-.65.77-1.27,1.56-1.91,2.34a7.68,7.68,0,0,1,.33-3,82.71,82.71,0,0,1,10-22.1c7.07-11.38,15.68-21.34,26.5-29.2,1.19-.87,2.49-1.57,3.75-2.35-.16.38-.3.76-.49,1.12-1.59,2.89-3.26,5.75-4.77,8.69a10.46,10.46,0,0,0-.88,3.21c-.24,1.64.61,2.82,2.12,2.82a8.52,8.52,0,0,0,4.19-1.41c4.13-3.24,8.16-6.61,12.14-10,6-5.13,12.15-10,19.67-12.76,3.29-1.2,6.8-1.87,10.21-2.77l.22.52-1.16.73c-3.57,2.07-7.1,4.21-9.86,7.33a10.06,10.06,0,0,0-2.1,3.64,2.92,2.92,0,0,0,2.87,3.91,26.05,26.05,0,0,0,5.54-1.27c6.06-2,12.09-4.07,18.52-4.95A61,61,0,0,1,557,361a67.28,67.28,0,0,1,21,3.48A97,97,0,0,1,615.47,387.15Z"/><g class="cls-2"><g class="cls-60"><g class="cls-2"><path class="cls-40" d="M388.59,393.43l-12.65,10.39c-2.19-7.41-12.53-17.5-19.08-18.58l12.66-10.4c6.55,1.08,16.88,11.17,19.07,18.59"/></g></g></g><g class="cls-2"><g class="cls-61"><g class="cls-2"><path class="cls-40" d="M420,440.55,407.35,451a22.59,22.59,0,0,1-4.59,3l12.65-10.39a22.86,22.86,0,0,0,4.6-3"/></g></g></g><g class="cls-2"><g class="cls-62"><g class="cls-2"><path class="cls-40" d="M341.79,363.33l-12.66,10.39c-.65-1.57-1.1-3-1.75-4.26-4.27-8.56-10.91-14.9-18.8-20a4.91,4.91,0,0,1-2.18-2.68,56.26,56.26,0,0,1-2.9-17,71.8,71.8,0,0,1,2.68-23.08,15.69,15.69,0,0,1,3.91-7.18l12.66-10.4a15.67,15.67,0,0,0-3.91,7.19,71.73,71.73,0,0,0-2.68,23.08,55.83,55.83,0,0,0,2.9,17,5,5,0,0,0,2.18,2.69c7.89,5.1,14.53,11.44,18.8,20,.64,1.3,1.1,2.68,1.75,4.26"/></g></g></g><g class="cls-2"><g class="cls-63"><g class="cls-2"><path class="cls-40" d="M415.41,443.53l-12.65,10.39c.11-1.9.38-3.86.31-5.82-.25-7-3.92-12-10.57-14.44a48.54,48.54,0,0,0-16.67-2.53c-1.08,0-2.15,0-3.22.05l12.66-10.39q1.61-.06,3.21-.06a48.48,48.48,0,0,1,16.67,2.54c6.66,2.39,10.33,7.39,10.58,14.44.07,2-.2,3.91-.32,5.82"/></g></g></g><g class="cls-2"><g class="cls-64"><g class="cls-2"><path class="cls-50" d="M306.66,326,294,336.36c-2-1.37-4-2.67-6-4a40.83,40.83,0,0,1-14.54-17.62c-3.05-7.1-6.51-14-9.79-21-.14-.3-.29-.6-.57-1.2l12.65-10.4c.29.6.44.9.57,1.2,3.28,7,6.75,13.95,9.79,21.06a40.94,40.94,0,0,0,14.54,17.61c1.95,1.37,3.94,2.66,6,4"/></g></g></g><g class="cls-2"><g class="cls-65"><g class="cls-2"><path class="cls-50" d="M585,594.87l-12.66,10.39a53.43,53.43,0,0,1-10.26,6.45,66.48,66.48,0,0,1-30,7.22c-15.79-.07-29.44-5.3-40.47-17.22a58,58,0,0,1-15.46-32.09l12.66-10.39a58,58,0,0,0,15.46,32.09c11,11.92,24.68,17.14,40.47,17.22a66.61,66.61,0,0,0,30-7.22A53.43,53.43,0,0,0,585,594.87"/></g></g></g><g class="cls-2"><g class="cls-66"><g class="cls-2"><path class="cls-40" d="M385.27,420.79l-12.66,10.39c.08-1.84,1-3.53,1.62-5.35a31.91,31.91,0,0,0,1.38-5.81c.4-3.08-.9-5.23-3.94-5.93a50.89,50.89,0,0,0-10.29-1.43c-.79,0-1.59,0-2.38,0a106.3,106.3,0,0,0-30.82,4.53,3.86,3.86,0,0,0-1,.45l12.66-10.4a4.26,4.26,0,0,1,1-.45,106.61,106.61,0,0,1,30.81-4.52l2.39,0a51.61,51.61,0,0,1,10.29,1.43c3,.7,4.33,2.85,3.94,5.93a30.94,30.94,0,0,1-1.39,5.81c-.61,1.83-1.53,3.52-1.61,5.36"/></g></g></g><g class="cls-2"><g class="cls-67"><g class="cls-2"><path class="cls-50" d="M490.7,599.12,478,609.51c-.89-.25-1.48-.35-2-.57-15.12-6-24.95-16.62-27.81-32.8-1-5.66-.59-11.51-.69-17.27-.09-5.15-.1-10.31-1.39-15.42a31.51,31.51,0,0,0-11.05-17Q416,511,396.94,495.75c-5.29-4.25-10-9-13-15.18-2.1-4.39-2.85-9.05-3.32-13.72a19.17,19.17,0,0,0-7.52-13.61c-3.33-2.63-6.74-5.16-10.08-7.76a20.07,20.07,0,0,1-7.54-21.38c.19-.74.5-1.46.82-2.36L369,411.34c-.32.91-.63,1.62-.82,2.36a20,20,0,0,0,7.54,21.38c3.34,2.61,6.75,5.14,10.07,7.77a19.06,19.06,0,0,1,7.52,13.61c.48,4.66,1.23,9.33,3.33,13.71,3,6.22,7.68,10.94,13,15.18q19.08,15.31,38.13,30.66a31.43,31.43,0,0,1,11,17c1.3,5.1,1.31,10.26,1.4,15.41.1,5.77-.32,11.61.69,17.27,2.86,16.18,12.69,26.84,27.8,32.8.56.22,1.16.33,2.05.58"/></g></g></g><polygon class="cls-3" points="364.77 429.15 352.11 439.55 352.33 439.35 364.99 428.96 364.77 429.15"/><polygon class="cls-3" points="364.97 429.33 352.31 439.72 352.11 439.55 364.77 429.15 364.97 429.33"/><path class="cls-43" d="M365,429c0,.12,0,.24,0,.37l-.2-.18Z"/><g class="cls-2"><g class="cls-68"><g class="cls-2"><path class="cls-40" d="M362.62,431,350,441.44c.74-.6,1.42-1.28,2.15-1.89l12.66-10.4c-.73.61-1.41,1.29-2.15,1.89"/></g></g></g><g class="cls-2"><g class="cls-69"><g class="cls-2"><path class="cls-40" d="M283.86,340.71l-12.66,10.4c-5.8-9.39-7.6-19.07-5.42-29.36l12.66-10.4c-2.18,10.29-.38,20,5.42,29.36"/></g></g></g><g class="cls-2"><g class="cls-70"><g class="cls-2"><path class="cls-50" d="M268.55,328.06l-12.66,10.4c-.53-.64-1-1.07-1.29-1.56a60.94,60.94,0,0,1-9.44-24.38,80,80,0,0,1,1.09-33c3.57-13.82,11.13-24.92,21.57-34.06.57-.5,1.15-1,1.73-1.46l12.65-10.4c-.58.48-1.15,1-1.72,1.47-10.45,9.13-18,20.24-21.58,34.06-2.78,10.77-2.87,21.78-1.08,33a60.81,60.81,0,0,0,9.44,24.37,19,19,0,0,0,1.29,1.56"/></g></g></g><path class="cls-71" d="M335.18,216.82a94.12,94.12,0,0,1,30.25,4.83c26,8.73,42.46,26.65,49.49,53.32,4.26,16.15,2.46,31.66-2.6,46.79a111.33,111.33,0,0,1-12.27,25.77c-.25.37-.53.73-.77,1.09-4.11-3.68-8.16-7.34-12.25-10.94-6.7-5.91-13.38-11.86-19.22-18.68-1.23-1.42-2.35-3-3.55-4.4a1.88,1.88,0,0,1-.26-2.21,51.36,51.36,0,0,0,4-28c-1.06-8.06-3.8-15.53-9.62-21.62a26.69,26.69,0,0,0-20-8.68,34.58,34.58,0,0,0-4.61.32c-12.4,1.7-21.46,12.35-23.15,25.46a87.36,87.36,0,0,0-.24,9.31,4.44,4.44,0,0,1-.17,1.37c-3.83,10.81-4.55,22.14-3.59,33.74,0,.38.07.76.1,1.13a2.78,2.78,0,0,1-.1.54c-2-1.38-4-2.67-6-4a40.94,40.94,0,0,1-14.54-17.61c-3-7.11-6.51-14-9.79-21.06-.13-.3-.28-.6-.57-1.2-2.25,8.7-4.4,17.12-6.61,25.52a44.68,44.68,0,0,0-1.32,14.51c.13,1.9.43,3.78.7,6a19,19,0,0,1-1.29-1.56,60.81,60.81,0,0,1-9.44-24.37c-1.79-11.18-1.7-22.19,1.08-33,3.58-13.82,11.13-24.93,21.58-34.06a71.25,71.25,0,0,1,37.16-16.92A116.55,116.55,0,0,1,335.18,216.82Z"/><g class="cls-2"><g class="cls-72"><g class="cls-2"><path class="cls-40" d="M329.12,393.7l-12.66,10.39c-6.1-2-12.19-3.51-18.55-5.11l12.66-10.4c6.36,1.61,12.45,3.14,18.55,5.12"/></g></g></g><path class="cls-71" d="M369,411.34a37.61,37.61,0,0,0,.91,4.63c1.6,4.93,5.29,7.8,9.8,9.76,4,1.74,8.25,1.87,12.45,2.37a45.78,45.78,0,0,1,8.4,1.75c4,1.24,6.22,4.35,7.37,8.25.88,3,1.53,6,2.46,9,1.47,4.74,3.9,6.53,8.74,6.85,4.11.27,8.23.49,12.33,1A25.29,25.29,0,0,1,444,460.73q23.57,18.84,47.16,37.65c4.51,3.59,9.41,6.17,15.15,6.35,9.26,0,16.25-6,17.73-14.58a20.84,20.84,0,0,0-.85-10.37c-.15-.44-.27-.89-.52-1.68a33.32,33.32,0,0,1,12.72,13.27c5.78,10.91,7.23,22,2.88,33.27a20.31,20.31,0,0,1-6,8.4,1.82,1.82,0,0,0-.62,1.05c2.67.18,5.34.51,8,.51,8,0,15.5-1.74,22.12-6,7.57-4.87,11.51-11.89,10.61-21.4-.69-7.35-4.53-13.12-10.2-17.79a32.28,32.28,0,0,0-11.77-6.2c1.67-.08,3.33-.23,5-.23,1.91,0,3.55.07,5.18.23a58.6,58.6,0,0,1,26.7,9.13c10.65,6.91,18.49,16.16,22,28.44,4.74,16.77.75,31.16-10.61,43.06-8.43,8.83-19.08,13.6-31.36,15a56.75,56.75,0,0,1-6.64.4,48.17,48.17,0,0,1-6.21-.39c-.5-.06-1,0-1.92-.09,5.9,4.78,12.32,7.23,19.07,8.76A47.66,47.66,0,0,0,582,588.84a30.56,30.56,0,0,0,9.79-1.54c-.63.9-1.19,1.86-1.89,2.7-4.13,5-9.43,8.46-15.17,11.32a66.61,66.61,0,0,1-30,7.22c-15.79-.08-29.45-5.3-40.47-17.22a58,58,0,0,1-15.46-32.09c-8.69,7-10.4,27.3,1.86,39.89-.89-.25-1.49-.36-2.05-.58-15.11-6-24.94-16.62-27.8-32.8-1-5.66-.59-11.5-.69-17.27-.09-5.15-.1-10.31-1.4-15.41a31.43,31.43,0,0,0-11-17q-19-15.37-38.13-30.66c-5.28-4.24-10-9-13-15.18-2.1-4.38-2.85-9.05-3.33-13.71a19.06,19.06,0,0,0-7.52-13.61c-3.32-2.63-6.73-5.16-10.07-7.77a20,20,0,0,1-7.54-21.38C368.36,413,368.67,412.25,369,411.34Z"/><g class="cls-2"><g class="cls-73"><g class="cls-2"><path class="cls-40" d="M345.61,377.39,333,387.79a27.56,27.56,0,0,0-9.47-1.43c-12.83,0-30.21,5.6-39,12.78l12.66-10.39c8.75-7.18,26.13-12.78,39-12.78a27.37,27.37,0,0,1,9.47,1.42"/></g></g></g><g class="cls-2"><g class="cls-74"><g class="cls-2"><path class="cls-40" d="M269.86,365.33l-12.66,10.4c.37-.31.73-.65,1.07-1,2.68-2.62,3.08-4.79,1.38-8.38a34.4,34.4,0,0,0-9.13-11.13c-2.9-2.49-6-4.7-9.05-7l12.66-10.4c3,2.32,6.15,4.52,9.05,7A34.17,34.17,0,0,1,272.3,356c1.71,3.58,1.31,5.75-1.37,8.38-.35.33-.7.68-1.07,1"/></g></g></g><g class="cls-2"><g class="cls-75"><g class="cls-2"><path class="cls-40" d="M339.4,455.78l-12.66,10.4a22.16,22.16,0,0,0,6.59-9.76,22.62,22.62,0,0,0,.22-16.05c-2.58-7.08-7.88-11.22-14.78-13.19a34.43,34.43,0,0,0-9.47-1.4,30,30,0,0,0-16.12,4.76l12.65-10.4A30.11,30.11,0,0,1,322,415.39a34.47,34.47,0,0,1,9.47,1.39c6.89,2,12.2,6.11,14.78,13.2a22.68,22.68,0,0,1-.22,16,22.12,22.12,0,0,1-6.59,9.75"/></g></g></g><g class="cls-2"><g class="cls-76"><g class="cls-2"><path class="cls-40" d="M353.87,454.26l-12.66,10.39a37.92,37.92,0,0,1-12.38,2.07c-.89,0-1.77,0-2.67-.09l12.66-10.39c.9.05,1.78.08,2.67.08a38.22,38.22,0,0,0,12.38-2.06"/></g></g></g><g class="cls-2"><g class="cls-77"><g class="cls-2"><path class="cls-40" d="M345,466.55l-12.66,10.39a30.05,30.05,0,0,0,6.81-7.89c.76-1.27,1.3-2.68,2.11-4.4l12.66-10.39c-.82,1.71-1.36,3.12-2.11,4.39a30.26,30.26,0,0,1-6.81,7.9"/></g></g></g><g class="cls-2"><g class="cls-78"><g class="cls-2"><path class="cls-40" d="M305.83,420.14l-12.65,10.4a40.32,40.32,0,0,1,9.06-15.71,47.81,47.81,0,0,1,5.42-5.24l12.66-10.4a49.6,49.6,0,0,0-5.42,5.24,40.53,40.53,0,0,0-9.07,15.71"/></g></g></g><g class="cls-2"><g class="cls-79"><g class="cls-2"><path class="cls-40" d="M368.57,458.58,355.91,469A45.44,45.44,0,0,1,331,479.11l12.66-10.4a45.43,45.43,0,0,0,24.89-10.13"/></g></g></g><g class="cls-2"><g class="cls-80"><g class="cls-2"><path class="cls-40" d="M343.68,468.71,331,479.11c-.77,0-1.19,0-1.6-.06l12.66-10.4a13,13,0,0,0,1.6.06"/></g></g></g><g class="cls-2"><g class="cls-81"><g class="cls-2"><path class="cls-40" d="M342.08,468.65l-12.66,10.4,0,0L342,468.68l0,0"/></g></g></g><path class="cls-43" d="M342,468.68l0,0h.06Z"/><polygon class="cls-3" points="342.04 468.68 329.38 479.07 329.36 479.05 342.02 468.65 342.04 468.68"/><g class="cls-2"><g class="cls-82"><g class="cls-2"><path class="cls-40" d="M342,468.68l-12.65,10.39h-.05L342,468.69H342"/></g></g></g><path class="cls-43" d="M342,468.65l0,0H342Z"/><polygon class="cls-3" points="341.99 468.69 329.33 479.08 329.36 479.05 342.02 468.65 341.99 468.69"/><path class="cls-43" d="M341.9,468.83l-.11-.1.2,0Z"/><polygon class="cls-3" points="341.9 468.83 329.25 479.23 329.13 479.13 341.79 468.73 341.9 468.83"/><g class="cls-2"><g class="cls-83"><g class="cls-2"><path class="cls-50" d="M383.73,528.6,371.07,539a98.51,98.51,0,0,0,14-14.4,102.15,102.15,0,0,0,10.47-15.65c.24-.44.54-.84.89-1.38l12.66-10.4c-.35.54-.66.95-.89,1.39a103.14,103.14,0,0,1-10.47,15.65,99,99,0,0,1-14,14.4"/></g></g></g><g class="cls-2"><g class="cls-84"><g class="cls-2"><path class="cls-40" d="M310.6,397l-12.66,10.4c-14.69,4.18-27.37,11.53-38.88,21l12.66-10.4c11.5-9.45,24.18-16.8,38.88-21"/></g></g></g><g class="cls-2"><g class="cls-85"><g class="cls-2"><path class="cls-40" d="M230.79,391.46l-12.66,10.4a40.86,40.86,0,0,1,4.83-4.67l12.66-10.4a40.11,40.11,0,0,0-4.83,4.67"/></g></g></g><g class="cls-2"><g class="cls-86"><g class="cls-2"><path class="cls-40" d="M264.43,424.33l-12.66,10.4c.07-.66.13-1.26.2-1.85s.19-1.3.27-1.95c.52-4,1.19-8.06,1.53-12.12.81-9.86-4.53-16.5-14.31-18.12a40.2,40.2,0,0,0-6.71-.54,69.75,69.75,0,0,0-12.05,1.23c-.86.15-1.71.32-2.57.48l12.66-10.4,2.56-.47a70,70,0,0,1,12.06-1.23,41.36,41.36,0,0,1,6.71.53c9.78,1.62,15.12,8.27,14.31,18.13-.34,4.06-1,8.08-1.53,12.11-.08.65-.2,1.3-.27,2s-.13,1.18-.2,1.84"/></g></g></g><path class="cls-43" d="M433.71,398.17c3.9,15.9-4.76,38.85-18.3,45.36.12-1.91.39-3.87.32-5.82-.25-7-3.92-12-10.58-14.44a48.48,48.48,0,0,0-16.67-2.54q-1.61,0-3.21.06c.08-1.84,1-3.53,1.61-5.36a30.94,30.94,0,0,0,1.39-5.81c.39-3.08-.9-5.23-3.94-5.93A51.61,51.61,0,0,0,374,402.26l-2.39,0a106.61,106.61,0,0,0-30.81,4.52,4.26,4.26,0,0,0-1,.45A70,70,0,0,1,359,409.69c-.83,2.17-1.68,4.19-2.37,6.28a28.39,28.39,0,0,0-1.77,11,10.14,10.14,0,0,0,.46,2.37,4,4,0,0,0,6.07,2.56,28.3,28.3,0,0,0,3.36-2.76c-.35,3.83-.91,7.47-1.42,11.13a12,12,0,0,0,0,2.54c.26,4.37,2.36,6.45,6.71,6.46a57.48,57.48,0,0,0,5.8-.57,21.87,21.87,0,0,1-6.68,9.35,45.33,45.33,0,0,1-25.5,10.65,13,13,0,0,1-1.6-.06,30.64,30.64,0,0,0,9.68-10c.75-1.27,1.29-2.68,2.11-4.39a38.22,38.22,0,0,1-12.38,2.06c-.89,0-1.77,0-2.67-.08A21.83,21.83,0,0,0,346,446a22.68,22.68,0,0,0,.22-16c-2.58-7.09-7.89-11.23-14.78-13.2a34.47,34.47,0,0,0-9.47-1.39,30.11,30.11,0,0,0-16.13,4.75,40.53,40.53,0,0,1,9.07-15.71,42.28,42.28,0,0,1,14.22-10.73c-6.1-2-12.19-3.51-18.55-5.12,10.6-7.15,22.56-10.05,35-11.19a27.37,27.37,0,0,0-9.47-1.42c-15.65,0-38.08,8.33-43.33,17.7,3,.44,6,.79,9,1.33s5.85,1.22,8.75,2c-17.86,5.08-32.75,14.85-46.17,27.37.07-.66.12-1.25.2-1.84s.19-1.31.27-2c.52-4,1.19-8,1.53-12.11.81-9.86-4.53-16.51-14.31-18.13a41.36,41.36,0,0,0-6.71-.53A70,70,0,0,0,233.35,391l-2.56.47a40.93,40.93,0,0,1,5.77-5.42c6.24-4.88,13.25-8.57,20.1-12.54,4.23-2.43,8.35-5.08,12.49-7.66a10.5,10.5,0,0,0,1.78-1.49c2.68-2.63,3.08-4.8,1.37-8.38a34.17,34.17,0,0,0-9.12-11.14c-2.9-2.49-6-4.69-9.05-7,1.64,0,3.28-.07,4.93-.07a92.55,92.55,0,0,1,24.8,3c-5.8-9.38-7.6-19.07-5.42-29.36,5,9.65,12.51,16.2,21.11,21.55,6.68,4.17,13.58,7.94,20.37,11.9,5.86,3.42,11.62,7,16.4,12,1.89,2,3.52,4.19,5.47,6.55-.65-1.58-1.11-3-1.75-4.26-4.27-8.57-10.91-14.91-18.8-20a5,5,0,0,1-2.18-2.69,55.83,55.83,0,0,1-2.9-17,71.73,71.73,0,0,1,2.68-23.08,15.67,15.67,0,0,1,3.91-7.19c.11,2,.07,3.92.35,5.87,1.18,8.21,4.81,15.47,9.72,22.2,6.3,8.62,14.09,15.78,22,22.82,8.16,7.24,16.33,14.49,24.36,21.88a57.77,57.77,0,0,1,9.79,12,.8.8,0,0,0,.64.36c-.19-.46-.37-.93-.58-1.4A64.56,64.56,0,0,0,375.56,354c-7.12-6.94-14.61-13.49-21.94-20.24-2.55-2.36-5-4.8-7.61-7.13a11.5,11.5,0,0,1-3.55-6.28,42.06,42.06,0,0,1,1.72-24.93,22.28,22.28,0,0,1,1.32-2.54c.42,2.81.63,5.4,1.2,7.92,1.69,7.57,5.51,14.19,10.21,20.36,6.57,8.59,14.5,15.8,22.56,22.88,7.22,6.36,14.59,12.53,20.74,20,5.41,6.61,9.88,13.7,12,22a31.8,31.8,0,0,1,.78,12.32c5.17,1.92,8.87,5,8.87,11C425.34,409.22,429.74,405.07,433.71,398.17Zm-45.24-4.74h.12c-2.19-7.42-12.52-17.51-19.07-18.59,1.72,5,3.48,9.82,7.17,13.72a15.47,15.47,0,0,0,11.78,4.87"/><g class="cls-2"><g class="cls-87"><g class="cls-2"><path class="cls-50" d="M254.85,452l-12.66,10.4a4,4,0,0,0,.52-.69c4.86-5.78,9.82-11.48,14.59-17.34a58.71,58.71,0,0,1,8.42-8.34l12.66-10.4A59.23,59.23,0,0,0,270,434c-4.77,5.87-9.73,11.56-14.59,17.35a5.08,5.08,0,0,1-.52.68"/></g></g></g><g class="cls-2"><g class="cls-88"><g class="cls-2"><path class="cls-50" d="M406.53,579.49l-12.66,10.4a95.43,95.43,0,0,1-39.94,19.62A107.92,107.92,0,0,1,330,612.29a96.16,96.16,0,0,1-13.38-.93,99.7,99.7,0,0,1-45.23-18.27c-7.18-5.2-13.1-11.83-18.73-18.7a18,18,0,0,0-2.29-2.41,4.06,4.06,0,0,0-2.56-1.09,2.31,2.31,0,0,0-1.48.51L259,561a2.3,2.3,0,0,1,1.48-.52,4.08,4.08,0,0,1,2.56,1.1A17.44,17.44,0,0,1,265.3,564c5.63,6.87,11.55,13.49,18.73,18.7A99.57,99.57,0,0,0,329.26,601a94.67,94.67,0,0,0,13.38.94,108.52,108.52,0,0,0,23.95-2.78,95.32,95.32,0,0,0,39.94-19.63"/></g></g></g><g class="cls-2"><g class="cls-89"><g class="cls-2"><path class="cls-50" d="M261.28,579l-12.66,10.39a94.33,94.33,0,0,1-9.48-9.6,98.68,98.68,0,0,1-21.34-44.07c-4.34-20.65-3.14-40.8,2.07-60.59a26.55,26.55,0,0,0,.92-6.49c0-1.84-.89-2.86-2.25-2.86a3.76,3.76,0,0,0-1.65.42,12.25,12.25,0,0,0-2.55,1.65L227,457.41a13.12,13.12,0,0,1,2.55-1.65,3.87,3.87,0,0,1,1.64-.42c1.37,0,2.29,1,2.26,2.87a26.68,26.68,0,0,1-.92,6.49c-5.21,19.79-6.41,39.94-2.07,60.58a98.68,98.68,0,0,0,21.34,44.07,92.4,92.4,0,0,0,9.48,9.61"/></g></g></g><g class="cls-2"><g class="cls-90"><g class="cls-2"><path class="cls-50" d="M221.39,463.89l-12.66,10.39a57.11,57.11,0,0,1,.82-9.75c2.43-13.78,8.5-25.69,16.89-36.4a100.27,100.27,0,0,1,15.48-15.82l12.65-10.4a101.59,101.59,0,0,0-15.48,15.82c-8.38,10.72-14.45,22.63-16.88,36.4a56.14,56.14,0,0,0-.82,9.76"/></g></g></g><path class="cls-71" d="M254.84,401.69a3.71,3.71,0,0,1,1.87,3.62c-.29,3.13-.42,6.29-.94,9.38a106.69,106.69,0,0,0-1.25,17c0,6.85-.15,13.68-.23,20.53.66,0,.78-.51,1.08-.87,4.86-5.79,9.82-11.48,14.59-17.35,5.67-7,12.85-12,20.34-16.72,2.27-1.44,4.64-2.72,7.07-4.13-2.3,9.44-2.51,19.11-4.13,28.93l1.54-1c5.46-4,10.94-7.94,16.39-11.93a18.53,18.53,0,0,1,11.34-3.63,30.72,30.72,0,0,1,7.15.93c-2,2.5-4,4.82-5.86,7.25-9.17,12-15.7,25.34-18,40.71-2.2,14.42-.69,28.55,6.64,41.92s18.27,22,33.23,24.65a40.3,40.3,0,0,0,6.84.6,41.92,41.92,0,0,0,20.23-5.45c10-5.43,18-13.12,25-21.87a103.14,103.14,0,0,0,10.47-15.65c.23-.44.54-.85.89-1.39,2.41,1.89,4.79,3.69,7.1,5.57q12.89,10.42,25.71,20.91c3,2.43,2.93,2.48,1.38,5.81-7.08,15.19-15.75,29.26-27.31,41.27-13.64,14.18-29.93,24-49.4,28.4a108.52,108.52,0,0,1-23.95,2.78,94.67,94.67,0,0,1-13.38-.94A99.57,99.57,0,0,1,284,582.7c-7.18-5.21-13.1-11.83-18.73-18.7a17.44,17.44,0,0,0-2.29-2.41,4.08,4.08,0,0,0-2.56-1.1c-1.34,0-2.39,1-2.58,2.93a19.28,19.28,0,0,0,.42,6c.63,2.77,1.67,5.47,2.55,8.21.13.43.3.86.44,1.29a92.4,92.4,0,0,1-9.48-9.61,98.68,98.68,0,0,1-21.34-44.07c-4.34-20.64-3.14-40.79,2.07-60.58a26.68,26.68,0,0,0,.92-6.49c0-1.84-.89-2.87-2.26-2.87a3.87,3.87,0,0,0-1.64.42c-3,1.46-5,4-7.05,6.6-.38.5-.74,1-1.11,1.53a56.14,56.14,0,0,1,.82-9.76c2.43-13.77,8.5-25.68,16.88-36.4A101.25,101.25,0,0,1,254.84,401.69Z"/></g></svg>