<svg id="Layer_5" data-name="Layer 5" xmlns="http://www.w3.org/2000/svg" xmlns:xlink="http://www.w3.org/1999/xlink" viewBox="0 0 690 711.68"><defs><style>.cls-1{fill:none;}.cls-2{isolation:isolate;}.cls-3{fill:#670101;}.cls-4{clip-path:url(#clip-path);}.cls-5{fill:#6b0101;}.cls-6{clip-path:url(#clip-path-2);}.cls-7{fill:#ca0202;}.cls-8{fill:#690101;}.cls-9{clip-path:url(#clip-path-3);}.cls-10{clip-path:url(#clip-path-4);}.cls-11{clip-path:url(#clip-path-5);}.cls-12{clip-path:url(#clip-path-6);}.cls-13{clip-path:url(#clip-path-7);}.cls-14{clip-path:url(#clip-path-8);}.cls-15{clip-path:url(#clip-path-9);}.cls-16{clip-path:url(#clip-path-10);}.cls-17{clip-path:url(#clip-path-11);}.cls-18{clip-path:url(#clip-path-12);}.cls-19{clip-path:url(#clip-path-13);}.cls-20{clip-path:url(#clip-path-14);}.cls-21{fill:#6b0606;}.cls-22{clip-path:url(#clip-path-15);}.cls-23{fill:#cb0b0b;}.cls-24{clip-path:url(#clip-path-16);}.cls-25{clip-path:url(#clip-path-17);}.cls-26{clip-path:url(#clip-path-18);}.cls-27{clip-path:url(#clip-path-19);}.cls-28{clip-path:url(#clip-path-20);}.cls-29{clip-path:url(#clip-path-21);}.cls-30{clip-path:url(#clip-path-22);}.cls-31{clip-path:url(#clip-path-23);}.cls-32{clip-path:url(#clip-path-24);}.cls-33{clip-path:url(#clip-path-25);}.cls-34{clip-path:url(#clip-path-26);}.cls-35{clip-path:url(#clip-path-27);}.cls-36{clip-path:url(#clip-path-28);}.cls-37{clip-path:url(#clip-path-29);}.cls-38{clip-path:url(#clip-path-30);}.cls-39{clip-path:url(#clip-path-31);}.cls-40{clip-path:url(#clip-path-32);}.cls-41{clip-path:url(#clip-path-33);}.cls-42{clip-path:url(#clip-path-34);}.cls-43{clip-path:url(#clip-path-35);}.cls-44{clip-path:url(#clip-path-36);}.cls-45{clip-path:url(#clip-path-37);}.cls-46{clip-path:url(#clip-path-38);}.cls-47{clip-path:url(#clip-path-39);}.cls-48{clip-path:url(#clip-path-40);}.cls-49{fill:#ca0101;}.cls-50{clip-path:url(#clip-path-41);}.cls-51{clip-path:url(#clip-path-42);}.cls-52{clip-path:url(#clip-path-43);}.cls-53{clip-path:url(#clip-path-44);}.cls-54{clip-path:url(#clip-path-45);}.cls-55{clip-path:url(#clip-path-46);}.cls-56{clip-path:url(#clip-path-47);}.cls-57{clip-path:url(#clip-path-48);}.cls-58{clip-path:url(#clip-path-49);}.cls-59{clip-path:url(#clip-path-50);}.cls-60{clip-path:url(#clip-path-51);}.cls-61{clip-path:url(#clip-path-52);}.cls-62{clip-path:url(#clip-path-53);}.cls-63{clip-path:url(#clip-path-54);}.cls-64{fill:#6b0202;}.cls-65{clip-path:url(#clip-path-55);}.cls-66{clip-path:url(#clip-path-56);}.cls-67{clip-path:url(#clip-path-57);}.cls-68{clip-path:url(#clip-path-58);}.cls-69{clip-path:url(#clip-path-59);}.cls-70{clip-path:url(#clip-path-60);}.cls-71{clip-path:url(#clip-path-61);}.cls-72{clip-path:url(#clip-path-62);}.cls-73{clip-path:url(#clip-path-63);}.cls-74{clip-path:url(#clip-path-64);}.cls-75{fill:#6a0101;}.cls-76{clip-path:url(#clip-path-65);}.cls-77{fill:#670606;}.cls-78{clip-path:url(#clip-path-66);}.cls-79{clip-path:url(#clip-path-67);}.cls-80{fill:#794b4b;}.cls-81{clip-path:url(#clip-path-68);}.cls-82{clip-path:url(#clip-path-69);}.cls-83{clip-path:url(#clip-path-70);}.cls-84{clip-path:url(#clip-path-71);}.cls-85{clip-path:url(#clip-path-73);}.cls-86{clip-path:url(#clip-path-74);}.cls-87{fill:#e58f8f;}.cls-88{clip-path:url(#clip-path-75);}.cls-89{clip-path:url(#clip-path-76);}.cls-90{clip-path:url(#clip-path-77);}.cls-91{clip-path:url(#clip-path-78);}.cls-92{clip-path:url(#clip-path-79);}.cls-93{clip-path:url(#clip-path-80);}.cls-94{clip-path:url(#clip-path-81);}.cls-95{clip-path:url(#clip-path-82);}.cls-96{fill:#774a4a;}.cls-97{clip-path:url(#clip-path-83);}.cls-98{clip-path:url(#clip-path-84);}.cls-99{clip-path:url(#clip-path-85);}.cls-100{clip-path:url(#clip-path-86);}.cls-101{clip-path:url(#clip-path-87);}.cls-102{clip-path:url(#clip-path-88);}.cls-103{clip-path:url(#clip-path-89);}.cls-104{clip-path:url(#clip-path-90);}.cls-105{clip-path:url(#clip-path-91);}.cls-106{clip-path:url(#clip-path-92);}.cls-107{clip-path:url(#clip-path-93);}.cls-108{clip-path:url(#clip-path-94);}.cls-109{clip-path:url(#clip-path-95);}.cls-110{clip-path:url(#clip-path-96);}.cls-111{clip-path:url(#clip-path-97);}.cls-112{clip-path:url(#clip-path-98);}.cls-113{clip-path:url(#clip-path-99);}.cls-114{clip-path:url(#clip-path-100);}.cls-115{clip-path:url(#clip-path-101);}.cls-116{clip-path:url(#clip-path-102);}.cls-117{clip-path:url(#clip-path-103);}.cls-118{clip-path:url(#clip-path-104);}.cls-119{clip-path:url(#clip-path-105);}.cls-120{clip-path:url(#clip-path-106);}.cls-121{clip-path:url(#clip-path-107);}.cls-122{clip-path:url(#clip-path-108);}.cls-123{clip-path:url(#clip-path-109);}.cls-124{clip-path:url(#clip-path-110);}.cls-125{clip-path:url(#clip-path-111);}.cls-126{clip-path:url(#clip-path-112);}.cls-127{clip-path:url(#clip-path-113);}.cls-128{clip-path:url(#clip-path-114);}.cls-129{fill:#cb0404;}.cls-130{clip-path:url(#clip-path-115);}.cls-131{clip-path:url(#clip-path-116);}.cls-132{clip-path:url(#clip-path-117);}.cls-133{clip-path:url(#clip-path-118);}.cls-134{clip-path:url(#clip-path-119);}.cls-135{clip-path:url(#clip-path-120);}.cls-136{clip-path:url(#clip-path-121);}.cls-137{clip-path:url(#clip-path-122);}.cls-138{clip-path:url(#clip-path-123);}.cls-139{clip-path:url(#clip-path-124);}.cls-140{clip-path:url(#clip-path-125);}.cls-141{fill:#6b0303;}.cls-142{clip-path:url(#clip-path-126);}.cls-143{clip-path:url(#clip-path-127);}.cls-144{clip-path:url(#clip-path-128);}.cls-145{fill:#cb0606;}.cls-146{clip-path:url(#clip-path-129);}.cls-147{clip-path:url(#clip-path-130);}.cls-148{clip-path:url(#clip-path-131);}.cls-149{clip-path:url(#clip-path-132);}.cls-150{clip-path:url(#clip-path-133);}.cls-151{clip-path:url(#clip-path-134);}.cls-152{clip-path:url(#clip-path-135);}.cls-153{clip-path:url(#clip-path-136);}.cls-154{clip-path:url(#clip-path-137);}.cls-155{clip-path:url(#clip-path-138);}.cls-156{clip-path:url(#clip-path-139);}.cls-157{clip-path:url(#clip-path-140);}.cls-158{fill:#837b7b;}.cls-159{clip-path:url(#clip-path-141);}.cls-160{clip-path:url(#clip-path-142);}.cls-161{clip-path:url(#clip-path-143);}.cls-162{clip-path:url(#clip-path-144);}.cls-163{clip-path:url(#clip-path-145);}.cls-164{fill:#f7e9e9;}.cls-165{clip-path:url(#clip-path-146);}.cls-166{clip-path:url(#clip-path-147);}.cls-167{clip-path:url(#clip-path-148);}.cls-168{clip-path:url(#clip-path-149);}.cls-169{clip-path:url(#clip-path-150);}.cls-170{clip-path:url(#clip-path-151);}.cls-171{clip-path:url(#clip-path-152);}.cls-172{clip-path:url(#clip-path-153);}.cls-173{clip-path:url(#clip-path-154);}.cls-174{clip-path:url(#clip-path-155);}.cls-175{clip-path:url(#clip-path-156);}.cls-176{clip-path:url(#clip-path-157);}.cls-177{clip-path:url(#clip-path-158);}.cls-178{clip-path:url(#clip-path-159);}.cls-179{clip-path:url(#clip-path-160);}.cls-180{clip-path:url(#clip-path-161);}.cls-181{clip-path:url(#clip-path-162);}.cls-182{clip-path:url(#clip-path-163);}.cls-183{clip-path:url(#clip-path-164);}.cls-184{clip-path:url(#clip-path-165);}.cls-185{fill:#6b0b0b;}.cls-186{clip-path:url(#clip-path-166);}.cls-187{clip-path:url(#clip-path-167);}.cls-188{clip-path:url(#clip-path-168);}.cls-189{clip-path:url(#clip-path-169);}.cls-190{clip-path:url(#clip-path-170);}.cls-191{clip-path:url(#clip-path-171);}.cls-192{clip-path:url(#clip-path-172);}.cls-193{clip-path:url(#clip-path-173);}.cls-194{fill:#ca1616;}.cls-195{clip-path:url(#clip-path-174);}.cls-196{clip-path:url(#clip-path-175);}.cls-197{clip-path:url(#clip-path-176);}.cls-198{clip-path:url(#clip-path-177);}.cls-199{clip-path:url(#clip-path-178);}.cls-200{clip-path:url(#clip-path-179);}.cls-201{clip-path:url(#clip-path-180);}.cls-202{clip-path:url(#clip-path-181);}.cls-203{clip-path:url(#clip-path-182);}.cls-204{clip-path:url(#clip-path-184);}.cls-205{clip-path:url(#clip-path-185);}.cls-206{clip-path:url(#clip-path-186);}.cls-207{clip-path:url(#clip-path-187);}.cls-208{clip-path:url(#clip-path-188);}.cls-209{clip-path:url(#clip-path-189);}.cls-210{clip-path:url(#clip-path-190);}.cls-211{clip-path:url(#clip-path-191);}.cls-212{clip-path:url(#clip-path-192);}.cls-213{clip-path:url(#clip-path-193);}.cls-214{clip-path:url(#clip-path-194);}.cls-215{clip-path:url(#clip-path-195);}.cls-216{clip-path:url(#clip-path-196);}.cls-217{clip-path:url(#clip-path-197);}.cls-218{clip-path:url(#clip-path-198);}.cls-219{clip-path:url(#clip-path-200);}.cls-220{clip-path:url(#clip-path-201);}.cls-221{clip-path:url(#clip-path-202);}.cls-222{clip-path:url(#clip-path-203);}.cls-223{clip-path:url(#clip-path-204);}.cls-224{clip-path:url(#clip-path-205);}</style><clipPath id="clip-path"><path class="cls-1" d="M43.64,246.39l23.23,15.4-.1.08L43.55,246.48Z"/></clipPath><clipPath id="clip-path-2"><polygon class="cls-1" points="43.64 246.38 66.87 261.78 66.87 261.79 43.64 246.39 43.64 246.38"/></clipPath><clipPath id="clip-path-3"><path class="cls-1" d="M43.76,246.27,67,261.66l-.12.12-23.23-15.4Z"/></clipPath><clipPath id="clip-path-4"><rect class="cls-1" x="55.23" y="240.26" height="27.87" transform="matrix(0.55, -0.83, 0.83, 0.55, -187.16, 159.79)"/></clipPath><clipPath id="clip-path-5"><path class="cls-1" d="M43.64,246.39l23.23,15.39,0,.11L43.61,246.5Z"/></clipPath><clipPath id="clip-path-6"><path class="cls-1" d="M43.86,246.17l23.23,15.4-.1.09L43.76,246.27Z"/></clipPath><clipPath id="clip-path-7"><path class="cls-1" d="M149.23,149.8l23.22,15.39c-.14.32-.28.63-.43.94L148.8,150.74C148.94,150.42,149.08,150.12,149.23,149.8Z"/></clipPath><clipPath id="clip-path-8"><path class="cls-1" d="M195.86,111.63,219.09,127c-4.91,2.73-9.14,4.83-13.12,7.37-2.07,1.33-3.63,3.53-5.58,5.14-5.24,4.33-10.35,8.94-15.94,12.73a38,38,0,0,0-12,12.92L149.23,149.8a37.92,37.92,0,0,1,12-12.92c5.59-3.79,10.7-8.4,15.94-12.74,2-1.61,3.51-3.81,5.59-5.14C186.72,116.46,191,114.36,195.86,111.63Z"/></clipPath><clipPath id="clip-path-9"><path class="cls-1" d="M167.53,137.81l23.23,15.4c-.1.29-.19.6-.3.89l-23.22-15.39C167.34,138.41,167.43,138.11,167.53,137.81Z"/></clipPath><clipPath id="clip-path-10"><path class="cls-1" d="M167.24,138.71l23.22,15.39-.77-.36-23.23-15.4Z"/></clipPath><clipPath id="clip-path-11"><path class="cls-1" d="M167.24,138.71l23.22,15.39-16.79,25.05-23.23-15.4Z"/></clipPath><clipPath id="clip-path-12"><path class="cls-1" d="M229.81,132.39,206.58,117c-1.11-.74-1-1.75.47-3.45A117.07,117.07,0,0,1,220.27,100a103.12,103.12,0,0,1,27.1-16,3.93,3.93,0,0,1,.58-.19c1.63-.43,3.54-.06,5.28-.12L276.46,99c-1.75.07-3.65-.3-5.28.12a5.66,5.66,0,0,0-.58.2,103.26,103.26,0,0,0-27.11,16,118.62,118.62,0,0,0-13.21,13.58C228.81,130.64,228.7,131.66,229.81,132.39Z"/></clipPath><clipPath id="clip-path-13"><path class="cls-1" d="M208.54,117.79l23.23,15.39a34.61,34.61,0,0,0-4.17,3.21c-4.31,4.5-8.59,9-12.65,13.77-.84,1-.67,2.85-1,4.31l-23.22-15.4c.3-1.45.14-3.33,1-4.3,4.05-4.74,8.33-9.27,12.64-13.77A32.68,32.68,0,0,1,208.54,117.79Z"/></clipPath><clipPath id="clip-path-14"><path class="cls-1" d="M225.48,111.63,248.71,127l.39,1.05-23.22-15.39Z"/></clipPath><clipPath id="clip-path-15"><path class="cls-1" d="M225.88,112.69l23.22,15.39c-2.91,5.86-7.72,9.81-13.13,13.06a5.07,5.07,0,0,1-1.4.56c-1,.26-2,.35-3,.59L208.34,126.9c1-.24,2-.34,3-.59a5.61,5.61,0,0,0,1.41-.56C218.16,122.5,223,118.54,225.88,112.69Z"/></clipPath><clipPath id="clip-path-16"><path class="cls-1" d="M236.26,95.06l23.23,15.39c-.3,3.92-7.63,10.4-12.75,11.74a7.44,7.44,0,0,1-1.6.25L221.91,107a7.3,7.3,0,0,0,1.6-.24C228.63,105.45,236,99,236.26,95.06Z"/></clipPath><clipPath id="clip-path-17"><path class="cls-1" d="M241.84,101.55,265.07,117a11.77,11.77,0,0,0-2.31-.69l-23.23-15.39A11.07,11.07,0,0,1,241.84,101.55Z"/></clipPath><clipPath id="clip-path-18"><path class="cls-1" d="M147.85,259.6,171.08,275a11.92,11.92,0,0,0-9.76-1.28,16.34,16.34,0,0,0-2.81,1,25.41,25.41,0,0,0-11.72,11.5,88.33,88.33,0,0,0-10.36,33c-.93,8.71,1.64,14.86,7.47,18.72l-23.23-15.4c-5.82-3.86-8.39-10-7.47-18.72a88.46,88.46,0,0,1,10.37-33,25.41,25.41,0,0,1,11.72-11.5,17.47,17.47,0,0,1,2.8-1A12,12,0,0,1,147.85,259.6Z"/></clipPath><clipPath id="clip-path-19"><path class="cls-1" d="M155.28,316.76l-23.23-15.39c.29.19.6.38.91.56l23.23,15.39C155.87,317.14,155.57,317,155.28,316.76Z"/></clipPath><clipPath id="clip-path-20"><path class="cls-1" d="M266.58,33.81l23.22,15.4c.91,4.58,1.91,9,2.65,13.52,3.37,20.54,6.62,41.11,10.06,61.63.51,3,.08,4.57-3,6.28Q184.21,195.62,69,260.86a11.51,11.51,0,0,1-1.91.71l-23.23-15.4a11.15,11.15,0,0,0,1.91-.7Q161,180.33,276.32,115.24c3.05-1.71,3.47-3.24,3-6.28-3.44-20.52-6.68-41.08-10.06-61.62C268.48,42.83,267.48,38.4,266.58,33.81Z"/></clipPath><clipPath id="clip-path-21"><path class="cls-1" d="M138.64,281.39l23.23,15.39a7.45,7.45,0,0,1,2.34,2.75,39,39,0,0,1,2.93,8.22c2,7.43,3.61,15,5.67,22.35,1.75,6.25,4.47,12,9.2,16.43l-23.23-15.4c-4.72-4.38-7.45-10.18-9.2-16.42-2.05-7.4-3.7-14.92-5.67-22.35a38.44,38.44,0,0,0-2.93-8.22A7.28,7.28,0,0,0,138.64,281.39Z"/></clipPath><clipPath id="clip-path-22"><path class="cls-1" d="M173.42,261.73l23.22,15.39c-3.57,12.14-7.09,24.07-10.8,36.7l-23.23-15.39C166.33,285.8,169.84,273.87,173.42,261.73Z"/></clipPath><clipPath id="clip-path-23"><path class="cls-1" d="M187.87,263.75l23.23,15.4-14.46-2-23.22-15.39Z"/></clipPath><clipPath id="clip-path-24"><path class="cls-1" d="M68.88,392.51l23.23,15.4c-.18,2-.17,3.55-.47,5-.87,4.33.27,8,2.32,11.61,3.42,6.07,6.47,12.38,9.69,18.59l-23.23-15.4c-3.21-6.21-6.26-12.52-9.69-18.58-2-3.64-3.18-7.28-2.32-11.61A48.51,48.51,0,0,0,68.88,392.51Z"/></clipPath><clipPath id="clip-path-25"><path class="cls-1" d="M103.53,443.34,95.4,438l-8.14-5.4-1.05-.69-2.06-1.37-2.93-1.94c-.28-.19-.59-.61-.92-.61l.12-.19,23.23,15.4Z"/></clipPath><clipPath id="clip-path-26"><path class="cls-1" d="M103.53,443.34l-.27.42L80,428.37l.27-.42Z"/></clipPath><clipPath id="clip-path-27"><path class="cls-1" d="M80.42,427.76l23.23,15.4.33.86-23.23-15.4Z"/></clipPath><clipPath id="clip-path-28"><path class="cls-1" d="M80.75,428.62,104,444l-.72-.26L80,428.37Z"/></clipPath><clipPath id="clip-path-29"><path class="cls-1" d="M109.42,494.94l0,0L86.24,479.58l0,0a16.33,16.33,0,0,1-3.92-4.24c-7.45-12.21-13.81-25-15.63-39.76a35.72,35.72,0,0,1,0-8.33c.26-2.28,1.07-3.59,2.36-3.92a4.83,4.83,0,0,1,3.33.66c2.63,1.35,5.11,2.93,7.66,4.41l23.23,15.39c-2.55-1.48-5-3.06-7.66-4.4a4.85,4.85,0,0,0-3.33-.67c-1.29.34-2.1,1.65-2.36,3.93a35.63,35.63,0,0,0,0,8.32c1.82,14.8,8.17,27.55,15.63,39.77A16.45,16.45,0,0,0,109.42,494.94Z"/></clipPath><clipPath id="clip-path-30"><path class="cls-1" d="M82.72,457.45l23.22,15.39c-.61,1.21-1.06,2.09-1.83,3.58L80.89,461Z"/></clipPath><clipPath id="clip-path-31"><path class="cls-1" d="M102.75,457.32,126,472.71a11.13,11.13,0,0,0-.36,1.4q-1.8,23.73-3.53,47.45a5,5,0,0,0,.4,2.51c2,4,4.16,7.91,6.19,11.77l-23.23-15.4c-2-3.85-4.16-7.78-6.18-11.77a4.78,4.78,0,0,1-.4-2.5q1.72-23.73,3.52-47.45A10.71,10.71,0,0,1,102.75,457.32Z"/></clipPath><clipPath id="clip-path-32"><path class="cls-1" d="M111.13,521l23.23,15.39c2.27,1.51,3.67,4.42,5.92,5.87l-23.22-15.39C114.8,525.36,113.41,522.45,111.13,521Z"/></clipPath><clipPath id="clip-path-33"><path class="cls-1" d="M158.78,331.13,182,346.53a86.36,86.36,0,0,0,7.85,5.78l-23.23-15.39A84.55,84.55,0,0,1,158.78,331.13Z"/></clipPath><clipPath id="clip-path-34"><path class="cls-1" d="M379.9,68.42l23.23,15.4a14.28,14.28,0,0,0-8.72-2.46c-5.32.18-10.87-1-15.9.28l-.33.09c-5.21,1.49-9.85,5.57-14.73,8.52-1,.59-2,1.18-3,1.81-.58.38-1.09.84-2.38,1.84L334.87,78.5c1.29-1,1.8-1.45,2.38-1.83,1-.63,2-1.22,3-1.82,4.88-2.94,9.52-7,14.73-8.52l.34-.09c5-1.32,10.57-.09,15.89-.27A14.27,14.27,0,0,1,379.9,68.42Z"/></clipPath><clipPath id="clip-path-35"><path class="cls-1" d="M375.28,78.6,398.51,94l-19.12-.24-23.22-15.4Z"/></clipPath><clipPath id="clip-path-36"><path class="cls-1" d="M375.47,78,398.69,93.4l-.18.59L375.28,78.6C375.34,78.4,375.41,78.2,375.47,78Z"/></clipPath><clipPath id="clip-path-37"><path class="cls-1" d="M390,74.93l23.23,15.4c-2.49-1.65-5.09-3.16-7.58-4.81l-23.23-15.4C384.86,71.78,387.46,73.28,390,74.93Z"/></clipPath><clipPath id="clip-path-38"><path class="cls-1" d="M384.11,83.13l23.22,15.39a.35.35,0,0,1,.09.07l.49.33L384.68,83.53l-.48-.34Z"/></clipPath><clipPath id="clip-path-39"><path class="cls-1" d="M408.57,80.56,431.8,96a10.14,10.14,0,0,0-7.37-1.79,12.4,12.4,0,0,1-9-2.28L392.22,76.49a12.36,12.36,0,0,0,9,2.27A10.1,10.1,0,0,1,408.57,80.56Z"/></clipPath><clipPath id="clip-path-40"><path class="cls-1" d="M311.89,123.83l-23.23-15.4a3.93,3.93,0,0,0,2.16.39q28.32,0,56.62.14,102.71.3,205.42.56a7.85,7.85,0,0,0,2-.42l23.23,15.39a8,8,0,0,1-2,.42q-102.72-.24-205.42-.55-28.31-.08-56.62-.14A3.93,3.93,0,0,1,311.89,123.83Z"/></clipPath><clipPath id="clip-path-41"><path class="cls-1" d="M28.87,273.35l23.22,15.4,15.33,29.56Q123,425.49,178.55,532.66l-23.22-15.4Q99.73,410.1,44.2,302.92,36.52,288.13,28.87,273.35Z"/></clipPath><clipPath id="clip-path-42"><path class="cls-1" d="M155.33,517.26l23.22,15.4c.73,1.4,1.32,2.33-.36,3.9q-32.37,30.23-64.58,60.63c-.41.38-.83.73-1.15,1L89.23,582.8c.32-.27.74-.63,1.15-1q32.27-30.34,64.59-60.64C156.64,519.6,156.05,518.67,155.33,517.26Z"/></clipPath><clipPath id="clip-path-43"><path class="cls-1" d="M281.27,122.47l23.23,15.4c-39.66,129.76-79.14,259-118.8,388.76l-23.22-15.39C202.13,381.46,241.62,252.24,281.27,122.47Z"/></clipPath><clipPath id="clip-path-44"><path class="cls-1" d="M316.43,310l23.23,15.39a25.39,25.39,0,0,0-15.92-3.87,75.61,75.61,0,0,0-14.35,2.32,77.08,77.08,0,0,0-11.88,4.2c-12.57,5.63-19.91,16.11-17.94,33.58l-23.23-15.4c-2-17.46,5.37-28,17.94-33.58a76.44,76.44,0,0,1,26.23-6.52A25.32,25.32,0,0,1,316.43,310Z"/></clipPath><clipPath id="clip-path-45"><path class="cls-1" d="M298.38,326.58,321.61,342c3.34,2.22,4.83,6.41,3.34,11.12a32.36,32.36,0,0,1-4.62,9.09c-4.4,6-9.26,11.7-13.83,17.6-7.2,9.28-13.86,18.92-15.94,30.74-.74,4.23-.83,8.55-1.24,13.09l-23.23-15.39c.41-4.55.5-8.86,1.24-13.1,2.08-11.82,8.74-21.45,15.94-30.74,4.57-5.9,9.43-11.58,13.83-17.6a32,32,0,0,0,4.62-9.09C303.21,333,301.73,328.8,298.38,326.58Z"/></clipPath><clipPath id="clip-path-46"><path class="cls-1" d="M154.9,571.26l23.22,15.4c-1.75,1.36-4.25,2.38-5.08,4.16-1.21,2.56,1.23,4.34,2.94,5.77l-23.22-15.4c-1.72-1.43-4.16-3.2-2.95-5.77C150.64,573.65,153.15,572.62,154.9,571.26Z"/></clipPath><clipPath id="clip-path-47"><path class="cls-1" d="M444.69,147.3l23.23,15.39c-3.6,2.23-7,4.58-11.09,7.37L433.6,154.67C437.73,151.87,441.1,149.53,444.69,147.3Z"/></clipPath><clipPath id="clip-path-48"><path class="cls-1" d="M183.1,601.9l-23.22-15.39a79.83,79.83,0,0,1-7.12-5.32L176,596.59A82.7,82.7,0,0,0,183.1,601.9Z"/></clipPath><clipPath id="clip-path-49"><path class="cls-1" d="M455.62,166.08l23.22,15.39-32.18,23-23.23-15.4Z"/></clipPath><clipPath id="clip-path-50"><path class="cls-1" d="M423.43,189.06l23.23,15.4L462,221.14l-23.23-15.4Z"/></clipPath><clipPath id="clip-path-51"><path class="cls-1" d="M335.34,369.16l23.22,15.39-36.91,9.69-23.22-15.39Z"/></clipPath><clipPath id="clip-path-52"><path class="cls-1" d="M475.63,158l23.22,15.4a6.43,6.43,0,0,0-5.07-1,11.75,11.75,0,0,1-3.59-.4c-7.56-1.09-14-4.76-20.27-8.64a3.53,3.53,0,0,0-2-.68L444.69,147.3a3.56,3.56,0,0,1,2,.67c6.31,3.88,12.71,7.55,20.27,8.65a11.5,11.5,0,0,0,3.6.39A6.51,6.51,0,0,1,475.63,158Z"/></clipPath><clipPath id="clip-path-53"><path class="cls-1" d="M205.22,580.93l23.23,15.4a59.74,59.74,0,0,0-26.14-10,88.16,88.16,0,0,0-24.19.35l-23.22-15.4a88.48,88.48,0,0,1,24.18-.35A59.86,59.86,0,0,1,205.22,580.93Z"/></clipPath><clipPath id="clip-path-54"><path class="cls-1" d="M197.74,582.68,221,598.08l1,.67c1.31,1,1.26,2.52-.46,3l-.12,0c-10.18,2.27-20.37,3.81-30-.86a3.07,3.07,0,0,1-.36-.2l-23.23-15.4a3.24,3.24,0,0,0,.36.2c9.59,4.67,19.78,3.13,30,.86l.12,0c1.71-.45,1.77-2,.45-3C198.4,583.13,198.07,582.9,197.74,582.68Z"/></clipPath><clipPath id="clip-path-55"><path class="cls-1" d="M222.33,628.18l-23.23-15.4c-2-1.34-4-2.86-5.9-4.41l23.22,15.4C218.35,625.32,220.3,626.84,222.33,628.18Z"/></clipPath><clipPath id="clip-path-56"><path class="cls-1" d="M245,608.24l23.23,15.4c-1.52-1-3-2-4.54-2.92a6.52,6.52,0,0,0-3.69-.65c-7.24.55-14.47,1.22-21.7,1.84l-21.91,1.86-23.22-15.4,21.9-1.85c7.24-.63,14.46-1.3,21.7-1.84a6.57,6.57,0,0,1,3.7.65C242,606.26,243.51,607.23,245,608.24Z"/></clipPath><clipPath id="clip-path-57"><path class="cls-1" d="M223.69,616.44l23.23,15.39c-.26-.1-.53-.2-.78-.31l-23.22-15.39Z"/></clipPath><clipPath id="clip-path-58"><path class="cls-1" d="M224,615.93l23.23,15.39c-.08.18-.17.34-.26.51l-23.23-15.39C223.78,616.27,223.87,616.1,224,615.93Z"/></clipPath><clipPath id="clip-path-59"><path class="cls-1" d="M240.78,623.92,264,639.32a3.68,3.68,0,0,0-.58-.32q-8.25-3.6-16.51-7.17l-23.23-15.39Q232,620,240.2,623.6A4.71,4.71,0,0,1,240.78,623.92Z"/></clipPath><clipPath id="clip-path-60"><path class="cls-1" d="M241.8,624.64,265,640l.06.26-23.23-15.4C241.84,624.82,241.82,624.73,241.8,624.64Z"/></clipPath><clipPath id="clip-path-61"><path class="cls-1" d="M242.09,624.81l23.22,15.4L265,640l-23.22-15.4Z"/></clipPath><clipPath id="clip-path-62"><path class="cls-1" d="M348.2,670.88l-1.76.86-23.23-15.39,1.76-.87Z"/></clipPath><clipPath id="clip-path-63"><path class="cls-1" d="M348.2,670.88,325,655.48l.08,0,23.22,15.4Z"/></clipPath><clipPath id="clip-path-64"><path class="cls-1" d="M325.05,655.44l23.22,15.4.45,1.58L325.49,657C325.34,656.5,325.2,656,325.05,655.44Z"/></clipPath><clipPath id="clip-path-65"><path class="cls-1" d="M333.37,657.31,356.6,672.7l0,.32-23.22-15.4C333.4,657.52,333.38,657.41,333.37,657.31Z"/></clipPath><clipPath id="clip-path-66"><path class="cls-1" d="M341.36,658.47l23.23,15.4-1.11-.06-23.23-15.39Z"/></clipPath><clipPath id="clip-path-67"><path class="cls-1" d="M341.09,658.94l23.23,15.4-.84-.53-23.23-15.39C340.53,658.59,340.82,658.76,341.09,658.94Z"/></clipPath><clipPath id="clip-path-68"><path class="cls-1" d="M341.36,658.47l23.23,15.4c-.08.16-.18.31-.27.47l-23.23-15.4C341.18,658.78,341.28,658.63,341.36,658.47Z"/></clipPath><clipPath id="clip-path-69"><path class="cls-1" d="M342.58,658.76l23.22,15.39-1.21-.28-23.23-15.4Z"/></clipPath><clipPath id="clip-path-70"><path class="cls-1" d="M320,654.87l23.23,15.39c-6-1.53-12.13-2.88-18.1-4.6Q222.3,635.84,119.56,605.92c-.51-.15-1-.35-1.8-.63l-23.23-15.4c.8.28,1.29.49,1.8.64q102.77,29.88,205.52,59.73C307.83,652,313.91,653.34,320,654.87Z"/></clipPath><clipPath id="clip-path-71"><path class="cls-1" d="M321.25,655.33l23.23,15.39-1.3-.46L320,654.87Z"/></clipPath><clipPath id="clip-path-73"><path class="cls-1" d="M323.21,656.35l23.23,15.39-2-1-23.23-15.39Z"/></clipPath><clipPath id="clip-path-74"><path class="cls-1" d="M325.49,657l23.23,15.39-2.28-.68-23.23-15.39Z"/></clipPath><clipPath id="clip-path-75"><path class="cls-1" d="M342.58,658.76l23.22,15.39-.25.45-23.23-15.39Z"/></clipPath><clipPath id="clip-path-76"><path class="cls-1" d="M342.32,659.21l23.23,15.39-1.23-.26-23.23-15.4Z"/></clipPath><clipPath id="clip-path-77"><path class="cls-1" d="M343.77,659.08,367,674.48l-1.2-.33-23.22-15.39Z"/></clipPath><clipPath id="clip-path-78"><path class="cls-1" d="M343.59,659.4l23.22,15.4-1.26-.2-23.23-15.39Z"/></clipPath><clipPath id="clip-path-79"><path class="cls-1" d="M343.77,659.08,367,674.48l-.19.32-23.22-15.4Z"/></clipPath><clipPath id="clip-path-80"><path class="cls-1" d="M344.81,659.44,368,674.83l-1-.35-23.23-15.4Z"/></clipPath><clipPath id="clip-path-81"><path class="cls-1" d="M344.81,659.44,368,674.83l-1.23,0-23.22-15.4Z"/></clipPath><clipPath id="clip-path-82"><path class="cls-1" d="M344.94,659.44l23.22,15.4H368l-23.23-15.39Z"/></clipPath><clipPath id="clip-path-83"><path class="cls-1" d="M344.92,659.48l23.22,15.39-.1,0-23.23-15.39Z"/></clipPath><clipPath id="clip-path-84"><path class="cls-1" d="M368.21,674.85h0l-23.22-15.4h0Z"/></clipPath><clipPath id="clip-path-85"><path class="cls-1" d="M345,659.45l23.23,15.4-.07,0-23.22-15.39Z"/></clipPath><clipPath id="clip-path-86"><path class="cls-1" d="M368.21,674.85h0L345,659.45h0l23.23,15.4Z"/></clipPath><clipPath id="clip-path-87"><path class="cls-1" d="M368.21,674.85,345,659.45l.1,0,23.22,15.39Z"/></clipPath><clipPath id="clip-path-88"><path class="cls-1" d="M368.3,674.81l-23.22-15.39a3.66,3.66,0,0,1,.43-.15l.07,0h.07l23.19,15.37-23.19-15.37h0l23.23,15.39-.07,0h-.07Z"/></clipPath><clipPath id="clip-path-89"><path class="cls-1" d="M369,674.66l-.12,0-23.23-15.39a.15.15,0,0,1,.13,0Z"/></clipPath><clipPath id="clip-path-90"><path class="cls-1" d="M346,659.72l23.23,15.39-1-.26L345,659.45Z"/></clipPath><clipPath id="clip-path-91"><path class="cls-1" d="M345.78,659.27,369,674.66a.66.66,0,0,1,.2.39.13.13,0,0,0,0,.06L346,659.72s0-.05,0-.07A.56.56,0,0,0,345.78,659.27Z"/></clipPath><clipPath id="clip-path-92"><path class="cls-1" d="M347.58,659.64,370.8,675l-.86.16-23.23-15.39Z"/></clipPath><clipPath id="clip-path-93"><path class="cls-1" d="M347.29,660.11l23.23,15.4-.58-.31-23.23-15.39Z"/></clipPath><clipPath id="clip-path-94"><path class="cls-1" d="M347.58,659.64,370.8,675h0a4.34,4.34,0,0,1-.28.46l-23.23-15.4a3.14,3.14,0,0,0,.28-.46Z"/></clipPath><clipPath id="clip-path-95"><path class="cls-1" d="M348.42,660.19l23.23,15.4-.85-.55-23.22-15.4Z"/></clipPath><clipPath id="clip-path-96"><path class="cls-1" d="M348.42,660.19l23.23,15.4-1.13-.08-23.23-15.4Z"/></clipPath><clipPath id="clip-path-97"><path class="cls-1" d="M372.72,675.42c0,.2,0,.4-.06.61l-23.22-15.39c0-.21,0-.42.05-.62l7.07,4.68Z"/></clipPath><clipPath id="clip-path-98"><path class="cls-1" d="M351.45,660.2l23.23,15.39-2-.17L349.49,660Z"/></clipPath><clipPath id="clip-path-99"><path class="cls-1" d="M351.45,660.2l23.23,15.39c0,.21-.05.41-.07.62l-23.22-15.39Z"/></clipPath><clipPath id="clip-path-100"><path class="cls-1" d="M351.39,660.82l23.22,15.39-1.95-.18-23.22-15.39Z"/></clipPath><clipPath id="clip-path-101"><path class="cls-1" d="M377.47,676.3c-.13.12-.32.21-.37.35l-23.22-15.4h0L377,676.6l-23.15-15.35c.05-.14.23-.23.36-.34Z"/></clipPath><clipPath id="clip-path-102"><path class="cls-1" d="M371.87,672.59l-17.63-11.68,23.23,15.39Z"/></clipPath><clipPath id="clip-path-103"><path class="cls-1" d="M377.3,677l-23.23-15.4a2.42,2.42,0,0,1-.2-.33.13.13,0,0,1,0-.06l23.22,15.4v.06A2.64,2.64,0,0,0,377.3,677Z"/></clipPath><clipPath id="clip-path-104"><path class="cls-1" d="M354.24,660.91l23.23,15.39a1.68,1.68,0,0,1,.19.34v.06l-23.23-15.39v-.07A1.4,1.4,0,0,0,354.24,660.91Z"/></clipPath><clipPath id="clip-path-105"><path class="cls-1" d="M354.43,661.31l23.23,15.39c0,.14-.24.22-.37.34l-23.22-15.4C354.2,661.53,354.4,661.44,354.43,661.31Z"/></clipPath><clipPath id="clip-path-106"><path class="cls-1" d="M383.8,677.62l-23.23-15.4v0l23.23,15.4Z"/></clipPath><clipPath id="clip-path-107"><path class="cls-1" d="M383.8,677.62c0,.21,0,.42,0,.63l-23.23-15.4c0-.21,0-.41,0-.63Z"/></clipPath><clipPath id="clip-path-108"><path class="cls-1" d="M362.3,662.25l23.22,15.4-1.72,0-23.23-15.4Z"/></clipPath><clipPath id="clip-path-109"><path class="cls-1" d="M362.3,662.25l23.22,15.4-.12.82-23.23-15.4C362.22,662.8,362.25,662.53,362.3,662.25Z"/></clipPath><clipPath id="clip-path-110"><path class="cls-1" d="M362.17,663.07l23.23,15.4-1.64-.22-23.23-15.4Z"/></clipPath><clipPath id="clip-path-111"><path class="cls-1" d="M365,662.34l23.23,15.39-1.5.79-23.23-15.39Z"/></clipPath><clipPath id="clip-path-112"><path class="cls-1" d="M166.11,529l23.22,15.4q32.19,21.43,64.29,43l132.66,88.86c.68.46,1.32,1,2,1.49L365,662.34c-.66-.5-1.29-1-2-1.5Q296.73,616.41,230.39,572,198.26,550.45,166.11,529Z"/></clipPath><clipPath id="clip-path-113"><path class="cls-1" d="M365,662.34l23.22,15.39,1.89,1.33-23.23-15.4Z"/></clipPath><clipPath id="clip-path-114"><path class="cls-1" d="M366.91,663.66l23.23,15.4c-1.1,0-2.18,0-3.27,0l-23.23-15.4Z"/></clipPath><clipPath id="clip-path-115"><path class="cls-1" d="M395.21,289.28l23.23,15.4A25.15,25.15,0,0,0,403,300.73a56.82,56.82,0,0,0-11.56,1.91c-2.37.62-4.71,1.35-7,2.12-13.28,4.44-21.27,14.61-22.09,28.64-1,17.29,2.24,33.68,10.45,48.38a27.81,27.81,0,0,0,8.84,9.85l-23.23-15.4a27.72,27.72,0,0,1-8.84-9.85c-8.2-14.7-11.47-31.08-10.45-48.37.82-14,8.82-24.21,22.09-28.64,2.3-.77,4.65-1.5,7-2.12a56.16,56.16,0,0,1,11.56-1.92A25.18,25.18,0,0,1,395.21,289.28Z"/></clipPath><clipPath id="clip-path-116"><path class="cls-1" d="M377.88,304.58,401.1,320a8.46,8.46,0,0,1,2.35,2.38,44.84,44.84,0,0,1,4.94,10.27c1.46,4.27,2.33,8.79,4,15.2l-23.22-15.4c-1.64-6.41-2.5-10.92-4-15.19A44.5,44.5,0,0,0,380.22,307,8.7,8.7,0,0,0,377.88,304.58Z"/></clipPath><clipPath id="clip-path-117"><path class="cls-1" d="M399.16,376.23l-23.23-15.4a7.87,7.87,0,0,0,6.43,1,10,10,0,0,0,6.42-5.61,16.17,16.17,0,0,0,1.61-7c-.22-6.3-.92-12.56-1.26-16.83l23.22,15.4c.35,4.26,1,10.52,1.26,16.83a16.06,16.06,0,0,1-1.61,7,10,10,0,0,1-6.41,5.6A7.9,7.9,0,0,1,399.16,376.23Z"/></clipPath><clipPath id="clip-path-118"><path class="cls-1" d="M554.51,108.87l23.23,15.4.32.22L554.83,109.1Z"/></clipPath><clipPath id="clip-path-119"><path class="cls-1" d="M578.08,124.51l-23.23-15.4,0,0,23.23,15.39Z"/></clipPath><clipPath id="clip-path-120"><path class="cls-1" d="M555,109.16l23.22,15.39-.1,0-23.23-15.39Z"/></clipPath><clipPath id="clip-path-121"><path class="cls-1" d="M555,109.07l23.22,15.39a.41.41,0,0,1,.05.09L555,109.16A.41.41,0,0,1,555,109.07Z"/></clipPath><clipPath id="clip-path-122"><path class="cls-1" d="M555.58,109.28l23.23,15.39c-.12.09-.24.18-.37.26l-23.22-15.39Z"/></clipPath><clipPath id="clip-path-123"><path class="cls-1" d="M463,214.81l23.23,15.4,28.1,30.49-23.23-15.39Z"/></clipPath><clipPath id="clip-path-124"><path class="cls-1" d="M491.13,245.31l23.23,15.39c-3.1,2.77-6,5.35-8.9,8l-23.23-15.39Z"/></clipPath><clipPath id="clip-path-125"><path class="cls-1" d="M515.23,224.15l23.23,15.4-14,12.38-23.23-15.39Z"/></clipPath><clipPath id="clip-path-126"><path class="cls-1" d="M528.41,213.43l23.23,15.4a5.82,5.82,0,0,0-2.37-.84q-25.08-3.21-50.19-6.26a4.88,4.88,0,0,0-1.86.08,2,2,0,0,0-.76.34c-3.42,2.57-6.73,5.29-10.2,8L463,214.81c3.48-2.77,6.78-5.49,10.2-8.05a2.22,2.22,0,0,1,.76-.35,5.32,5.32,0,0,1,1.86-.08Q501,209.4,526,212.6A5.7,5.7,0,0,1,528.41,213.43Z"/></clipPath><clipPath id="clip-path-127"><path class="cls-1" d="M482.23,253.27l23.23,15.39,13.9,15.14-23.23-15.39C491.52,263.39,487,258.43,482.23,253.27Z"/></clipPath><clipPath id="clip-path-128"><path class="cls-1" d="M505,260.3l23.23,15.4c2.49,2.68,4.87,5.21,7.24,7.75L512.2,268.06C509.82,265.51,507.45,263,505,260.3Z"/></clipPath><clipPath id="clip-path-129"><path class="cls-1" d="M404.53,520.76l23.22,15.4c-4.64-3.08-10-4-15.59-3.79A104.45,104.45,0,0,0,390,535.82,141.63,141.63,0,0,0,371.74,542c-6,2.5-11.51,6-15.49,11.54-5.72,8-4.32,17,2.41,21.5l-23.23-15.4c-6.73-4.46-8.12-13.48-2.4-21.5,4-5.56,9.47-9,15.48-11.53a142.21,142.21,0,0,1,18.24-6.23A104.54,104.54,0,0,1,388.93,517C394.56,516.74,399.88,517.68,404.53,520.76Z"/></clipPath><clipPath id="clip-path-130"><path class="cls-1" d="M366.27,602.07l-23.22-15.39c-5.8-3.85-6.36-11.41-1.2-17.48a78.46,78.46,0,0,1,6.6-6.15l23.23,15.4a75.49,75.49,0,0,0-6.6,6.15C359.91,590.66,360.47,598.23,366.27,602.07Z"/></clipPath><clipPath id="clip-path-131"><path class="cls-1" d="M383.69,565.07l-23.22-15.4a7,7,0,0,0,1.52.77c3.08,1.15,6.62,1.14,10.33,1.7l23.23,15.4c-3.71-.57-7.26-.55-10.33-1.7A7.82,7.82,0,0,1,383.69,565.07Z"/></clipPath><clipPath id="clip-path-132"><path class="cls-1" d="M380.08,533.05l23.23,15.39a7.79,7.79,0,0,1,1.34,12.13c-2.5,2.7-5.87,4.55-9.1,7l-23.23-15.4c3.24-2.41,6.61-4.26,9.1-7A7.79,7.79,0,0,0,380.08,533.05Z"/></clipPath><clipPath id="clip-path-133"><path class="cls-1" d="M389.87,591l-23.23-15.4a6.3,6.3,0,0,0,1.61.76c2.8.86,6,.62,9.08.88l23.22,15.39c-3.09-.25-6.28,0-9.07-.88A6.13,6.13,0,0,1,389.87,591Z"/></clipPath><clipPath id="clip-path-134"><path class="cls-1" d="M575.41,118.65l23.22,15.4c-8.43,96-16.87,191.81-25.34,288.24L550.06,406.9C558.54,310.46,567,214.64,575.41,118.65Z"/></clipPath><clipPath id="clip-path-135"><path class="cls-1" d="M585.87,265.36l23.22,15.4c-.71.77-.82.84-.83.91L585,266.28C585.05,266.2,585.15,266.14,585.87,265.36Z"/></clipPath><clipPath id="clip-path-136"><path class="cls-1" d="M384.57,562.48l23.23,15.39c3.25,2.16,3.7,6.42.4,9.64-2.08,2-4.87,3.31-7.65,5.12l-23.22-15.39c2.77-1.82,5.56-3.09,7.64-5.12C388.27,568.9,387.82,564.63,384.57,562.48Z"/></clipPath><clipPath id="clip-path-137"><path class="cls-1" d="M408.88,553.51l23.23,15.39a15.9,15.9,0,0,0-3-1.52c-2.27-.89-4.7-1.42-6.72-2L399.19,550c2,.6,4.45,1.14,6.73,2A16.14,16.14,0,0,1,408.88,553.51Z"/></clipPath><clipPath id="clip-path-138"><path class="cls-1" d="M544.78,414.79,568,430.18,193.12,532.26l-23.23-15.39Z"/></clipPath><clipPath id="clip-path-139"><path class="cls-1" d="M585,266.28l23.23,15.39Q605.59,312,603,342.4a6.09,6.09,0,0,0,.13,1.64c.19.91.51,1.83.69,2.74l-23.23-15.4c-.18-.91-.5-1.82-.69-2.74a5.64,5.64,0,0,1-.12-1.63C581.46,306.76,583.26,286.51,585,266.28Z"/></clipPath><clipPath id="clip-path-140"><path class="cls-1" d="M581.26,331.24l23.23,15.39-.68.15-23.23-15.4Z"/></clipPath><clipPath id="clip-path-141"><path class="cls-1" d="M585.87,265.36l23.22,15.4c.25,1.23.6,2.29.8,3.28a6.28,6.28,0,0,1,.14,1.71c-1.65,20.07-3.42,40.13-5.17,60.18a2.49,2.49,0,0,1-.37.7l-23.23-15.39c.13-.23.35-.46.37-.7,1.75-20.06,3.52-40.12,5.17-60.18a6,6,0,0,0-.14-1.72C586.46,267.66,586.11,266.6,585.87,265.36Z"/></clipPath><clipPath id="clip-path-142"><path class="cls-1" d="M597.34,297l23.23,15.39a3.32,3.32,0,0,0-2.66-.47l-.19,0c-2.76.73-3.12,3.71-3.57,6-3,15.86-3,31.52,1.65,46.64a36.66,36.66,0,0,0,4.33,8.76,4.23,4.23,0,0,0,1.14,1.22l-23.22-15.4a4,4,0,0,1-1.14-1.22,36.14,36.14,0,0,1-4.34-8.76c-4.64-15.12-4.67-30.77-1.64-46.64.44-2.33.81-5.32,3.56-6l.19,0A3.32,3.32,0,0,1,597.34,297Z"/></clipPath><clipPath id="clip-path-143"><path class="cls-1" d="M595.86,315.83l23.23,15.39a3,3,0,0,1,.82.92c4,6.35,4.92,13.45,3.52,21.06a10.1,10.1,0,0,1-1.35,2.38l-23.22-15.39a10.2,10.2,0,0,0,1.34-2.39c1.41-7.6.46-14.71-3.52-21.06A2.87,2.87,0,0,0,595.86,315.83Z"/></clipPath><clipPath id="clip-path-144"><path class="cls-1" d="M629.58,389.25l-23.22-15.4a3.24,3.24,0,0,1-1.54-2.24c.09-6.13.44-12.28.72-18.55l23.23,15.4c-.28,6.26-.63,12.41-.73,18.55A3.32,3.32,0,0,0,629.58,389.25Z"/></clipPath><clipPath id="clip-path-145"><path class="cls-1" d="M628.9,368.55l-23.22-15.39a2.25,2.25,0,0,0,1.7.54c.83-.22.93-1.55,1-2.55a34.56,34.56,0,0,0-2.75-16.75,20.23,20.23,0,0,1-1.46-4.35l23.23,15.4a19.87,19.87,0,0,0,1.46,4.35,34.38,34.38,0,0,1,2.74,16.74c-.1,1-.2,2.34-1,2.56A2.25,2.25,0,0,1,628.9,368.55Z"/></clipPath><clipPath id="clip-path-146"><path class="cls-1" d="M288.59,128.39l23.23,15.39L568,430.18l-23.23-15.39Z"/></clipPath><clipPath id="clip-path-147"><path class="cls-1" d="M379,671.44l23.22,15.39-.39.77-23.22-15.39C378.7,672,378.83,671.69,379,671.44Z"/></clipPath><clipPath id="clip-path-148"><path class="cls-1" d="M378.58,672.21,401.8,687.6a5.28,5.28,0,0,1-1.49,0q-25.8-7.55-51.59-15.15L325.49,657q25.78,7.59,51.59,15.15A6.24,6.24,0,0,0,378.58,672.21Z"/></clipPath><clipPath id="clip-path-149"><path class="cls-1" d="M380.26,672.55l23.23,15.39a3,3,0,0,0-.25.47L380,673A3.5,3.5,0,0,1,380.26,672.55Z"/></clipPath><clipPath id="clip-path-150"><path class="cls-1" d="M380,673l23.23,15.39-1.16-.46-23.22-15.39Z"/></clipPath><clipPath id="clip-path-151"><path class="cls-1" d="M380.81,672.85,404,688.25l-.8.16L380,673Z"/></clipPath><clipPath id="clip-path-152"><path class="cls-1" d="M545.56,423.82l23.22,15.39-146,250.37-23.22-15.4Z"/></clipPath><clipPath id="clip-path-153"><path class="cls-1" d="M415.46,664.45l23.23,15.39-.06.1-23.22-15.39Z"/></clipPath><clipPath id="clip-path-154"><path class="cls-1" d="M415.41,664.55l23.22,15.39a.16.16,0,0,1,0,.07l-23.23-15.4Z"/></clipPath><clipPath id="clip-path-155"><path class="cls-1" d="M415.49,664.9l23.23,15.4-.36.05L415.13,665Z"/></clipPath><clipPath id="clip-path-156"><path class="cls-1" d="M415.36,664.61,438.59,680c0,.1.08.19.13.29l-23.23-15.4C415.45,664.81,415.41,664.71,415.36,664.61Z"/></clipPath><clipPath id="clip-path-157"><path class="cls-1" d="M416.56,663.81l23.22,15.39-1.09.64-23.23-15.39C415.82,664.23,416.19,664,416.56,663.81Z"/></clipPath><clipPath id="clip-path-158"><path class="cls-1" d="M591.55,442.15l23.22,15.39c-3.27,2-6.4,3.84-9.5,5.78a2.81,2.81,0,0,0-.95,1.43c-1,3.25-1.86,6.54-2.94,9.76a6.17,6.17,0,0,1-1.93,3.12c-9,5.67-18.12,11.18-27.18,16.78a6.82,6.82,0,0,0-2.37,2c-3,4.83-5.86,9.75-9,15.08l-23.23-15.39c3.17-5.33,6-10.25,9-15.08A7.05,7.05,0,0,1,549,479c9.06-5.6,18.17-11.11,27.19-16.78a6.11,6.11,0,0,0,1.92-3.11c1.08-3.23,1.94-6.51,3-9.77a2.73,2.73,0,0,1,.94-1.42C585.14,446,588.28,444.12,591.55,442.15Z"/></clipPath><clipPath id="clip-path-159"><path class="cls-1" d="M563.54,495.2l23.23,15.4a5.16,5.16,0,0,0-3.33,0,5.22,5.22,0,0,0-1.14.42,145.28,145.28,0,0,0-16.06,9.25c-15.92,11.15-27.88,25.89-36.42,43.46-1,2.1-2.86,5.08-.72,6.58h0L505.9,554.93l0,0c-2.14-1.5-.3-4.47.72-6.57,8.53-17.58,20.49-32.31,36.41-43.47a149.5,149.5,0,0,1,16.06-9.25,6.51,6.51,0,0,1,1.14-.42C561.45,494.88,563,494.81,563.54,495.2Z"/></clipPath><clipPath id="clip-path-160"><path class="cls-1" d="M536,520.59,559.24,536a5.78,5.78,0,0,1,.16,1.83c-1.4,5.71-11.3,15.16-17.88,16.88a7.77,7.77,0,0,1-1,.21l-23.23-15.39a9.39,9.39,0,0,0,1-.21c6.59-1.73,16.49-11.17,17.89-16.88A5.77,5.77,0,0,0,536,520.59Z"/></clipPath><clipPath id="clip-path-161"><path class="cls-1" d="M535.68,537.9l23.22,15.39c-.08.2-.17.39-.26.6l-23.23-15.4Z"/></clipPath><clipPath id="clip-path-162"><path class="cls-1" d="M552,511.36l23.22,15.39a.53.53,0,0,1,.11.09,2.19,2.19,0,0,1-.11,2.07c-2.05,2.83-4.21,5.59-6.44,8.29-.93,1.12-2.41,1.86-3.09,3.07-2.39,4.27-4.54,8.67-6.79,13L535.68,537.9c2.24-4.35,4.39-8.76,6.79-13,.67-1.22,2.16-2,3.08-3.07,2.23-2.7,4.39-5.47,6.45-8.29a2.22,2.22,0,0,0,.1-2.07A.28.28,0,0,0,552,511.36Z"/></clipPath><clipPath id="clip-path-163"><path class="cls-1" d="M564.77,520.42,588,535.82l.48.4-23.23-15.39Z"/></clipPath><clipPath id="clip-path-164"><path class="cls-1" d="M566.64,518.91l23.22,15.39L588,535.82l-23.23-15.4Z"/></clipPath><clipPath id="clip-path-165"><path class="cls-1" d="M566.94,519.29l23.23,15.4-1.69,1.53-23.23-15.39Z"/></clipPath><clipPath id="clip-path-166"><path class="cls-1" d="M566.64,518.91l23.22,15.39.31.39-23.23-15.4Z"/></clipPath><clipPath id="clip-path-167"><path class="cls-1" d="M597.68,527A11.89,11.89,0,0,1,596,528.2l-11.64-7.72-4.53-3-2.93-1.94-2.8-1.85c-.4-.27-.85-.89-1.33-.89.26-.06.5-.33,1.68-1.17Z"/></clipPath><clipPath id="clip-path-168"><path class="cls-1" d="M597.68,527c-.42-.23-.94-.61-1.34-.88l-2.79-1.85-4.44-2.94-3-2-11.6-7.69h0l0,0,23.23,15.4Z"/></clipPath><clipPath id="clip-path-169"><path class="cls-1" d="M574.5,511.66l23.23,15.4a2.24,2.24,0,0,1,.63,1.16l-23.23-15.4C574.91,512.14,574.71,511.79,574.5,511.66Z"/></clipPath><clipPath id="clip-path-170"><path class="cls-1" d="M582.9,505.42l23.23,15.4-2.31.39-23.23-15.39Z"/></clipPath><clipPath id="clip-path-171"><path class="cls-1" d="M581.78,506.48,605,521.88l-1.18-.67L580.6,505.82Z"/></clipPath><clipPath id="clip-path-172"><path class="cls-1" d="M608,518.46l.29.33-23.23-15.4-.28-.33Z"/></clipPath><clipPath id="clip-path-173"><path class="cls-1" d="M587,501.49l23.23,15.4-2.85.82-23.23-15.4Z"/></clipPath><clipPath id="clip-path-174"><path class="cls-1" d="M614.45,511.27l-.44,0-23.23-15.4.44,0Z"/></clipPath><clipPath id="clip-path-175"><path class="cls-1" d="M590.78,495.85,614,511.25c0,.26,0,.52,0,.77l-23.22-15.39C590.77,496.37,590.78,496.12,590.78,495.85Z"/></clipPath><clipPath id="clip-path-176"><path class="cls-1" d="M592.05,496.68l23.23,15.4L614,512l-23.23-15.39Z"/></clipPath><clipPath id="clip-path-177"><path class="cls-1" d="M439.78,679.2l-10.09-6.69-13.13-8.7c.66-.57,1.36-1.1,2-1.7q52.15-49.65,104.28-99.32,20.28-19.32,40.51-38.69l23.22,15.39q-20.25,19.35-40.5,38.7-52.12,49.66-104.28,99.31C441.14,678.11,440.45,678.63,439.78,679.2Z"/></clipPath><clipPath id="clip-path-178"><path class="cls-1" d="M562.29,523l23.23,15.39c.34.35.69.7,1,1.06L563.33,524.1Z"/></clipPath><clipPath id="clip-path-179"><path class="cls-1" d="M564.82,522.62,588.05,538l-2.53.41L562.29,523Z"/></clipPath><clipPath id="clip-path-180"><path class="cls-1" d="M564.82,522.62,588.05,538l-1.5,1.47L563.33,524.1Z"/></clipPath><clipPath id="clip-path-181"><path class="cls-1" d="M565.8,521.73,589,537.12l-1,.9-23.23-15.4Z"/></clipPath><clipPath id="clip-path-182"><path class="cls-1" d="M566.41,521.08l23.22,15.4-.6.64L565.8,521.73Z"/></clipPath><clipPath id="clip-path-184"><path class="cls-1" d="M593.54,530.75l.86,1.3-23.23-15.4-.86-1.29Z"/></clipPath><clipPath id="clip-path-185"><path class="cls-1" d="M594.4,532.05c-1.58,1.48-3.18,3-4.77,4.43l-23.22-15.4,4.76-4.43Z"/></clipPath><clipPath id="clip-path-186"><path class="cls-1" d="M572.55,515.27l23.22,15.39-2.23.09-23.23-15.39C571.05,515.33,571.8,515.29,572.55,515.27Z"/></clipPath><clipPath id="clip-path-187"><path class="cls-1" d="M572.55,515.27l23.22,15.39-1.37,1.39-23.23-15.4Z"/></clipPath><clipPath id="clip-path-188"><path class="cls-1" d="M573.65,514.27l23.23,15.4-1.11,1-23.22-15.39Z"/></clipPath><clipPath id="clip-path-189"><path class="cls-1" d="M596.88,529.67,583.73,521l-7.37-4.89a12.9,12.9,0,0,0-2.71-1.8,6.55,6.55,0,0,1-.88-1.47L596,528.2A6.2,6.2,0,0,0,596.88,529.67Z"/></clipPath><clipPath id="clip-path-190"><path class="cls-1" d="M575.13,512.82l23.23,15.4-1.48,1.45-23.23-15.4Z"/></clipPath><clipPath id="clip-path-191"><path class="cls-1" d="M598.36,528.22l-5.59-3.71-6-4-11.62-7.7c1.34-1.27,2.66-2.54,4-3.82.32-.29.63-.6,1-.91l1.71-1.61L605,521.88l-1.7,1.6-.95.92C601,525.68,599.7,527,598.36,528.22Z"/></clipPath><clipPath id="clip-path-192"><path class="cls-1" d="M580.07,508.09l23.23,15.39-.95.92L579.12,509C579.44,508.71,579.75,508.4,580.07,508.09Z"/></clipPath><clipPath id="clip-path-193"><path class="cls-1" d="M582.9,505.42l23.23,15.4L605,521.88l-23.22-15.4Z"/></clipPath><clipPath id="clip-path-194"><path class="cls-1" d="M608,518.46l-23.22-15.4-.65-.75,23.23,15.4Z"/></clipPath><clipPath id="clip-path-195"><path class="cls-1" d="M585.07,503.39l23.23,15.4-2.17,2-23.23-15.4Z"/></clipPath><clipPath id="clip-path-196"><path class="cls-1" d="M587,501.49l23.23,15.4-1.92,1.9-23.23-15.4Z"/></clipPath><clipPath id="clip-path-197"><path class="cls-1" d="M588.89,499.73l23.23,15.4-1.9,1.76L587,501.49C587.63,500.91,588.26,500.32,588.89,499.73Z"/></clipPath><clipPath id="clip-path-198"><path class="cls-1" d="M589.51,499.08l23.22,15.39c-.2.23-.41.44-.61.66l-23.23-15.4C589.1,499.52,589.3,499.3,589.51,499.08Z"/></clipPath><clipPath id="clip-path-200"><path class="cls-1" d="M615.28,512.08l-2.55,2.39-23.22-15.39,2.54-2.4Z"/></clipPath><clipPath id="clip-path-201"><path class="cls-1" d="M614.45,511.27a2,2,0,0,1-.28-.19l-1.21-.8-.64-.42-.64-.43-3.17-2.1-9.32-6.18-2.39-1.58-3.44-2.28a9.59,9.59,0,0,0-2.14-1.42l1.64.06,23.23,15.39Z"/></clipPath><clipPath id="clip-path-202"><path class="cls-1" d="M592.86,495.93l23.23,15.39-.81.76-23.23-15.4Z"/></clipPath><clipPath id="clip-path-203"><path class="cls-1" d="M584.23,119.08l23.23,15.39q31.39,158.87,63,319.09l-23.23-15.4Q615.62,277.87,584.23,119.08Z"/></clipPath><clipPath id="clip-path-204"><path class="cls-1" d="M582.61,430.27l-23.23-15.4a5.18,5.18,0,0,0,1.57.62c18.33,4.75,36.62,9.62,54.93,14.45,10.2,2.69,20.41,5.35,31.4,8.22l23.23,15.4-31.4-8.22c-18.31-4.83-36.6-9.7-54.94-14.45A5.81,5.81,0,0,1,582.61,430.27Z"/></clipPath><clipPath id="clip-path-205"><path class="cls-1" d="M616.09,511.32l-23.23-15.39c2.69-2.51,5.38-5,8-7.51q12.57-11.9,25.09-23.83c6-5.77,12.09-11.55,18.37-17.56l23.23,15.39c-6.29,6-12.32,11.8-18.37,17.56q-12.53,11.92-25.09,23.83C621.47,506.34,618.77,508.82,616.09,511.32Z"/></clipPath></defs><g id="Original_Dicce" data-name="Original Dicce"><g class="cls-2"><path class="cls-3" d="M43.55,246.48s0,0,.09-.1h0Z"/><g class="cls-2"><g class="cls-4"><g class="cls-2"><path class="cls-5" d="M43.64,246.39l23.23,15.4-.1.08L43.55,246.48l.09-.09"/></g></g></g><g class="cls-2"><g class="cls-6"><g class="cls-2"><polyline class="cls-5" points="43.64 246.38 66.87 261.78 66.87 261.79 43.64 246.39 43.64 246.38"/></g></g></g><path class="cls-7" d="M43.69,246.23l.07,0-.12.11Z"/><polygon class="cls-8" points="43.76 246.27 66.99 261.66 66.91 261.63 43.69 246.23 43.76 246.27"/><g class="cls-2"><g class="cls-9"><g class="cls-2"><path class="cls-5" d="M43.76,246.27,67,261.66l-.12.12-23.23-15.4.12-.11"/></g></g></g><g class="cls-2"><g class="cls-10"><g class="cls-2"><polyline class="cls-5" points="43.61 246.5 66.84 261.89 66.84 261.89 43.61 246.5 43.61 246.5"/></g></g></g><path class="cls-3" d="M43.61,246.5a1,1,0,0,1,0-.11h0Z"/><g class="cls-2"><g class="cls-11"><g class="cls-2"><path class="cls-5" d="M43.64,246.39l23.23,15.39,0,.11L43.61,246.5l0-.11"/></g></g></g><g class="cls-2"><g class="cls-12"><g class="cls-2"><path class="cls-5" d="M43.86,246.17l23.23,15.4-.1.09L43.76,246.27l.1-.1"/></g></g></g><path class="cls-7" d="M43.76,246.27l-.07,0,.17-.06Z"/><g class="cls-2"><g class="cls-13"><g class="cls-2"><path class="cls-5" d="M149.23,149.8l23.22,15.39c-.14.32-.28.63-.43.94L148.8,150.74c.14-.32.28-.62.43-.94"/></g></g></g><g class="cls-2"><g class="cls-14"><g class="cls-2"><path class="cls-5" d="M195.86,111.63,219.09,127c-4.91,2.73-9.14,4.83-13.12,7.37-2.07,1.33-3.63,3.53-5.58,5.14-5.24,4.33-10.35,8.94-15.94,12.73a38,38,0,0,0-12,12.92L149.23,149.8a37.92,37.92,0,0,1,12-12.92c5.59-3.79,10.7-8.4,15.94-12.74,2-1.61,3.51-3.81,5.59-5.14,4-2.54,8.2-4.64,13.11-7.37"/></g></g></g><g class="cls-2"><g class="cls-15"><g class="cls-2"><path class="cls-5" d="M167.53,137.81l23.23,15.4c-.1.29-.19.6-.3.89l-23.22-15.39c.1-.3.19-.6.29-.9"/></g></g></g><g class="cls-2"><g class="cls-16"><g class="cls-2"><path class="cls-5" d="M167.24,138.71l23.22,15.39-.77-.36-23.23-15.4.78.37"/></g></g></g><path class="cls-7" d="M167.53,137.81c-.1.3-.19.6-.29.9l-.78-.37Z"/><g class="cls-2"><g class="cls-17"><g class="cls-2"><path class="cls-5" d="M167.24,138.71l23.22,15.39-16.79,25.05-23.23-15.4,16.8-25"/></g></g></g><g class="cls-2"><g class="cls-18"><g class="cls-2"><path class="cls-5" d="M253.23,83.63,276.46,99c-1.75.07-3.65-.3-5.28.12a5.66,5.66,0,0,0-.58.2,103.26,103.26,0,0,0-27.11,16,118.62,118.62,0,0,0-13.21,13.58c-1.47,1.7-1.58,2.72-.47,3.45L206.58,117c-1.11-.74-1-1.75.47-3.45A117.07,117.07,0,0,1,220.27,100a103.12,103.12,0,0,1,27.1-16,3.93,3.93,0,0,1,.58-.19c1.63-.43,3.54-.06,5.28-.12"/></g></g></g><g class="cls-2"><g class="cls-19"><g class="cls-2"><path class="cls-5" d="M208.54,117.79l23.23,15.39a34.61,34.61,0,0,0-4.17,3.21c-4.31,4.5-8.59,9-12.65,13.77-.84,1-.67,2.85-1,4.31l-23.22-15.4c.3-1.45.14-3.33,1-4.3,4.05-4.74,8.33-9.27,12.64-13.77a32.68,32.68,0,0,1,4.17-3.21"/></g></g></g><g class="cls-2"><g class="cls-20"><g class="cls-2"><path class="cls-21" d="M225.48,111.63,248.71,127l.39,1.05-23.22-15.39-.4-1.06"/></g></g></g><g class="cls-2"><g class="cls-22"><g class="cls-2"><path class="cls-21" d="M225.88,112.69l23.22,15.39c-2.91,5.86-7.72,9.81-13.13,13.06a5.07,5.07,0,0,1-1.4.56c-1,.26-2,.35-3,.59L208.34,126.9c1-.24,2-.34,3-.59a5.61,5.61,0,0,0,1.41-.56c5.41-3.25,10.22-7.21,13.13-13.06"/></g></g></g><path class="cls-23" d="M223.33,112.05c.69-.18,1.46-.24,2.15-.42l.4,1.06c-2.91,5.85-7.72,9.81-13.13,13.06a5.61,5.61,0,0,1-1.41.56c-1,.25-2,.35-3,.59.6-1.52.8-3.51,1.87-4.48,3.84-3.5,7.93-6.71,12-9.88A3.37,3.37,0,0,1,223.33,112.05Z"/><g class="cls-2"><g class="cls-24"><g class="cls-2"><path class="cls-21" d="M236.26,95.06l23.23,15.39c-.3,3.92-7.63,10.4-12.75,11.74a7.44,7.44,0,0,1-1.6.25L221.91,107a7.3,7.3,0,0,0,1.6-.24c5.12-1.35,12.45-7.83,12.75-11.74"/></g></g></g><path class="cls-23" d="M234.66,95.31a6.79,6.79,0,0,1,1.6-.25c-.3,3.91-7.63,10.39-12.75,11.74a7.3,7.3,0,0,1-1.6.24C222.24,103.11,229.54,96.65,234.66,95.31Z"/><g class="cls-2"><g class="cls-25"><g class="cls-2"><path class="cls-5" d="M241.84,101.55,265.07,117a11.77,11.77,0,0,0-2.31-.69l-23.23-15.39a11.07,11.07,0,0,1,2.31.68"/></g></g></g><g class="cls-2"><g class="cls-26"><g class="cls-2"><path class="cls-5" d="M147.85,259.6,171.08,275a11.92,11.92,0,0,0-9.76-1.28,16.34,16.34,0,0,0-2.81,1,25.41,25.41,0,0,0-11.72,11.5,88.33,88.33,0,0,0-10.36,33c-.93,8.71,1.64,14.86,7.47,18.72l-23.23-15.4c-5.82-3.86-8.39-10-7.47-18.72a88.46,88.46,0,0,1,10.37-33,25.41,25.41,0,0,1,11.72-11.5,17.47,17.47,0,0,1,2.8-1,12,12,0,0,1,9.76,1.28"/></g></g></g><g class="cls-2"><g class="cls-27"><g class="cls-2"><path class="cls-5" d="M133,301.93l23.23,15.39c-.32-.18-.62-.36-.91-.56l-23.23-15.39c.29.19.6.38.91.56"/></g></g></g><g class="cls-2"><g class="cls-28"><g class="cls-2"><path class="cls-5" d="M266.58,33.81l23.22,15.4c.91,4.58,1.91,9,2.65,13.52,3.37,20.54,6.62,41.11,10.06,61.63.51,3,.08,4.57-3,6.28Q184.21,195.62,69,260.86a11.51,11.51,0,0,1-1.91.71l-23.23-15.4a11.15,11.15,0,0,0,1.91-.7Q161,180.33,276.32,115.24c3.05-1.71,3.47-3.24,3-6.28-3.44-20.52-6.68-41.08-10.06-61.62-.74-4.51-1.74-8.94-2.64-13.53"/></g></g></g><path class="cls-7" d="M266.58,33.81c.9,4.59,1.9,9,2.64,13.53,3.38,20.54,6.62,41.1,10.06,61.62.51,3,.09,4.57-3,6.28Q161,180.22,45.77,245.47a11.15,11.15,0,0,1-1.91.7c8-7.75,16.07-15.54,24.16-23.25L237.93,61.11Zm-15.45,55c1.15-1.31,1.43-3.43,2.1-5.18-1.74.06-3.65-.31-5.28.12a3.93,3.93,0,0,0-.58.19,103.12,103.12,0,0,0-27.1,16,117.07,117.07,0,0,0-13.22,13.58c-2.07,2.39-1.44,3.42,1.49,4.24a32.68,32.68,0,0,0-4.17,3.21c-4.31,4.5-8.59,9-12.64,13.77-.84,1-.68,2.85-1,4.3a37.28,37.28,0,0,0,4.22.22,4,4,0,0,0,.82-.14,6.4,6.4,0,0,0,1.62-.68c9.08-5.29,18.36-10.25,27.15-16a55.48,55.48,0,0,0,16.59-16.79,5.7,5.7,0,0,0,1-3.75c-.13-.64-2-.8-2.58-1,3.79-3.89,7.86-7.83,11.6-12.06m-85.47,67.12a7.47,7.47,0,0,0,2.14-2.29q12.91-19.23,25.74-38.5c.62-.92,1.23-1.85,2.32-3.51-4.91,2.73-9.14,4.83-13.11,7.37-2.08,1.33-3.64,3.53-5.59,5.14-5.24,4.34-10.35,9-15.94,12.74a37.92,37.92,0,0,0-12,12.92c-.15.32-.29.62-.43.94l1.06-.61,16.6-11.79.78.37-16.8,25a7.51,7.51,0,0,0,1.27-.1,1.08,1.08,0,0,0,.28-.11c4.57-2.48,9.15-5,13.67-7.61"/><g class="cls-2"><g class="cls-29"><g class="cls-2"><path class="cls-5" d="M138.64,281.39l23.23,15.39a7.45,7.45,0,0,1,2.34,2.75,39,39,0,0,1,2.93,8.22c2,7.43,3.61,15,5.67,22.35,1.75,6.25,4.47,12,9.2,16.43l-23.23-15.4c-4.72-4.38-7.45-10.18-9.2-16.42-2.05-7.4-3.7-14.92-5.67-22.35a38.44,38.44,0,0,0-2.93-8.22,7.28,7.28,0,0,0-2.34-2.75"/></g></g></g><g class="cls-2"><g class="cls-30"><g class="cls-2"><path class="cls-5" d="M173.42,261.73l23.22,15.39c-3.57,12.14-7.09,24.07-10.8,36.7l-23.23-15.39c3.72-12.63,7.23-24.56,10.81-36.7"/></g></g></g><g class="cls-2"><g class="cls-31"><g class="cls-2"><path class="cls-5" d="M187.87,263.75l23.23,15.4-14.46-2-23.22-15.39,14.45,2"/></g></g></g><g class="cls-2"><g class="cls-32"><g class="cls-2"><path class="cls-5" d="M68.88,392.51l23.23,15.4c-.18,2-.17,3.55-.47,5-.87,4.33.27,8,2.32,11.61,3.42,6.07,6.47,12.38,9.69,18.59l-23.23-15.4c-3.21-6.21-6.26-12.52-9.69-18.58-2-3.64-3.18-7.28-2.32-11.61a48.51,48.51,0,0,0,.47-5.06"/></g></g></g><g class="cls-2"><g class="cls-33"><g class="cls-2"><path class="cls-5" d="M80.42,427.76l23.23,15.4-.39.6L80,428.37l.39-.61"/></g></g></g><g class="cls-2"><g class="cls-34"><g class="cls-2"><path class="cls-5" d="M80.42,427.76l23.23,15.4-.39.6L80,428.37l.39-.61"/></g></g></g><g class="cls-2"><g class="cls-35"><g class="cls-2"><path class="cls-5" d="M80.42,427.76l23.23,15.4.33.86-23.23-15.4-.33-.86"/></g></g></g><g class="cls-2"><g class="cls-36"><g class="cls-2"><path class="cls-5" d="M80.75,428.62,104,444l-.72-.26L80,428.37l.72.25"/></g></g></g><g class="cls-2"><g class="cls-37"><g class="cls-2"><path class="cls-5" d="M80,428.37l23.23,15.39c-2.55-1.48-5-3.06-7.66-4.4a4.85,4.85,0,0,0-3.33-.67c-1.29.34-2.1,1.65-2.36,3.93a35.63,35.63,0,0,0,0,8.32c1.82,14.8,8.17,27.55,15.63,39.77a16.45,16.45,0,0,0,3.92,4.23l0,0L86.24,479.58l0,0a16.33,16.33,0,0,1-3.92-4.24c-7.45-12.21-13.81-25-15.63-39.76a35.72,35.72,0,0,1,0-8.33c.26-2.28,1.07-3.59,2.36-3.92a4.83,4.83,0,0,1,3.33.66c2.63,1.35,5.11,2.93,7.66,4.41"/></g></g></g><g class="cls-2"><g class="cls-38"><g class="cls-2"><path class="cls-5" d="M82.72,457.45l23.22,15.39c-.61,1.21-1.06,2.09-1.83,3.58L80.89,461l1.83-3.58"/></g></g></g><g class="cls-2"><g class="cls-39"><g class="cls-2"><path class="cls-5" d="M102.75,457.32,126,472.71a11.13,11.13,0,0,0-.36,1.4q-1.8,23.73-3.53,47.45a5,5,0,0,0,.4,2.51c2,4,4.16,7.91,6.19,11.77l-23.23-15.4c-2-3.85-4.16-7.78-6.18-11.77a4.78,4.78,0,0,1-.4-2.5q1.72-23.73,3.52-47.45a10.71,10.71,0,0,1,.36-1.4"/></g></g></g><g class="cls-2"><g class="cls-40"><g class="cls-2"><path class="cls-5" d="M111.13,521l23.23,15.39c2.27,1.51,3.67,4.42,5.92,5.87l-23.22-15.39c-2.26-1.46-3.65-4.37-5.93-5.87"/></g></g></g><path class="cls-7" d="M155.33,517.26c.72,1.41,1.31,2.34-.36,3.9Q122.6,551.4,90.38,581.8c-.41.37-.83.73-1.15,1L28.13,273.6l.74-.25q7.65,14.77,15.33,29.57Q99.75,410.1,155.33,517.26ZM89,479.32c.77-1.7,2-4,1.42-5.38-2.24-5.61-5.06-11-7.7-16.49L80.89,461a24.09,24.09,0,0,1-6-15.61c0-1.94.34-3,1.23-3.2a4.41,4.41,0,0,1,2.79.69C81.57,444.29,84.15,446,87,447a5.51,5.51,0,0,0,3,0,4.07,4.07,0,0,0,1.82-.92c1.69-1.65,2.91-4.16,1.64-6.6-8.07-15.53-16.21-31-24.55-46.93a48.51,48.51,0,0,1-.47,5.06c-.86,4.33.28,8,2.32,11.61,3.43,6.06,6.48,12.37,9.69,18.58l-.39.61c-2.55-1.48-5-3.06-7.66-4.41A4.83,4.83,0,0,0,69,423.3c-1.29.33-2.1,1.64-2.36,3.92a35.72,35.72,0,0,0,0,8.33c1.82,14.79,8.18,27.55,15.63,39.76a16.33,16.33,0,0,0,3.92,4.24,3.25,3.25,0,0,0,2.19.11c.32-.09.56-.2.62-.34m21.82-4.14a6.19,6.19,0,0,0-.32-3.06c-2.46-4.89-5.06-9.71-7.75-14.8a10.71,10.71,0,0,0-.36,1.4q-1.78,23.71-3.52,47.45a4.78,4.78,0,0,0,.4,2.5c2,4,4.15,7.92,6.18,11.77l.64-.18c6-1.58,7.43,4.28,11,6.56.23-3,.55-5.9.61-8.77a5.51,5.51,0,0,0-.86-3.41c-2.12-2.56-4.57-4.81-6.75-7.32a4.7,4.7,0,0,1-1.25-3c.59-9.71,1.35-19.43,2-29.15"/><path class="cls-7" d="M80.42,427.76l.33.86-.72-.25Z"/><g class="cls-2"><g class="cls-41"><g class="cls-2"><path class="cls-5" d="M158.78,331.13,182,346.53a86.36,86.36,0,0,0,7.85,5.78l-23.23-15.39a84.55,84.55,0,0,1-7.85-5.79"/></g></g></g><g class="cls-2"><g class="cls-42"><g class="cls-2"><path class="cls-5" d="M379.9,68.42l23.23,15.4a14.28,14.28,0,0,0-8.72-2.46c-5.32.18-10.87-1-15.9.28l-.33.09c-5.21,1.49-9.85,5.57-14.73,8.52-1,.59-2,1.18-3,1.81-.58.38-1.09.84-2.38,1.84L334.87,78.5c1.29-1,1.8-1.45,2.38-1.83,1-.63,2-1.22,3-1.82,4.88-2.94,9.52-7,14.73-8.52l.34-.09c5-1.32,10.57-.09,15.89-.27a14.27,14.27,0,0,1,8.72,2.45"/></g></g></g><g class="cls-2"><g class="cls-43"><g class="cls-2"><path class="cls-21" d="M375.28,78.6,398.51,94l-19.12-.24-23.22-15.4,19.11.25"/></g></g></g><g class="cls-2"><g class="cls-44"><g class="cls-2"><path class="cls-21" d="M375.47,78,398.69,93.4l-.18.59L375.28,78.6c.06-.2.13-.4.19-.59"/></g></g></g><g class="cls-2"><g class="cls-45"><g class="cls-2"><path class="cls-5" d="M390,74.93l23.23,15.4c-2.49-1.65-5.09-3.16-7.58-4.81l-23.23-15.4c2.49,1.66,5.09,3.16,7.58,4.81"/></g></g></g><g class="cls-2"><g class="cls-46"><g class="cls-2"><path class="cls-5" d="M384.11,83.13l23.22,15.39a.35.35,0,0,1,.09.07l.49.33L384.68,83.53l-.48-.34-.09-.06"/></g></g></g><g class="cls-2"><g class="cls-47"><g class="cls-2"><path class="cls-5" d="M408.57,80.56,431.8,96a10.14,10.14,0,0,0-7.37-1.79,12.4,12.4,0,0,1-9-2.28L392.22,76.49a12.36,12.36,0,0,0,9,2.27,10.1,10.1,0,0,1,7.37,1.8"/></g></g></g><g class="cls-2"><g class="cls-48"><g class="cls-2"><path class="cls-5" d="M554.83,109.1l23.23,15.39a8,8,0,0,1-2,.42q-102.72-.24-205.42-.55-28.31-.08-56.62-.14a3.93,3.93,0,0,1-2.16-.39l-23.23-15.4a3.93,3.93,0,0,0,2.16.39q28.32,0,56.62.14,102.71.3,205.42.56a7.85,7.85,0,0,0,2-.42"/></g></g></g><path class="cls-49" d="M554.22,108.73a2.17,2.17,0,0,1,.61.37,7.85,7.85,0,0,1-2,.42q-102.71-.26-205.42-.56-28.31-.08-56.62-.14c-1.75,0-2.79-.15-3.14-2.37-4.05-25.86-8.24-51.68-12.39-77.52-.05-.26,0-.55-.06-1.06a15.63,15.63,0,0,1,1.87.26ZM406,85.28l-3.7-2.51,9,0c-3.07-2.85-6.13-4.53-10.07-4-3.66.54-6.69-.63-9.59-2.69-3.6-2.56-7.54-4.67-11.13-7.25a14.36,14.36,0,0,0-9.3-2.85c-5.32.18-10.87-1-15.89.27l-.34.09c-5.21,1.5-9.85,5.58-14.73,8.52-1,.6-2,1.19-3,1.82-.58.38-1.09.83-2.38,1.83,4.34,1.4,7.9,3.42,11.64,3.59,11.29.48,22.65.24,34,.34a6.76,6.76,0,0,1,3.71.76c3.16,2.29,6.65,2.83,10.52,2.6s7.48,0,11.21,0c0-.17.05-.34.08-.51"/><path class="cls-23" d="M365.39,72.77A2.47,2.47,0,0,1,367,73c2.86,1.62,5.67,3.32,8.5,5-.06.19-.13.39-.19.59l-19.11-.25-.12-.47c3-1.69,6.06-3.42,9.13-5Z"/><g class="cls-2"><g class="cls-50"><g class="cls-2"><path class="cls-5" d="M28.87,273.35l23.22,15.4,15.33,29.56Q123,425.49,178.55,532.66l-23.22-15.4Q99.73,410.1,44.2,302.92q-7.68-14.79-15.33-29.57"/></g></g></g><g class="cls-2"><g class="cls-51"><g class="cls-2"><path class="cls-5" d="M155.33,517.26l23.22,15.4c.73,1.4,1.32,2.33-.36,3.9q-32.37,30.23-64.58,60.63c-.41.38-.83.73-1.15,1L89.23,582.8c.32-.27.74-.63,1.15-1q32.27-30.34,64.59-60.64c1.67-1.56,1.08-2.49.36-3.9"/></g></g></g><g class="cls-2"><g class="cls-52"><g class="cls-2"><path class="cls-5" d="M281.27,122.47l23.23,15.4c-39.66,129.76-79.14,259-118.8,388.76l-23.22-15.39c39.65-129.78,79.14-259,118.79-388.77"/></g></g></g><path class="cls-49" d="M33.51,262.55c82.58-46.7,164.94-93.26,247.76-140.08-39.65,129.77-79.14,259-118.79,388.77C119.35,428.09,76.51,345.48,33.51,262.55Zm125.27,68.58a84.55,84.55,0,0,0,7.85,5.79l21.24-73.17-14.45-2c-3.58,12.14-7.09,24.07-10.81,36.7a33.1,33.1,0,0,1-1.12-3.2c-1.5-6.38-2.63-12.89-4.55-19.11a51.57,51.57,0,0,0-6.05-13.45c-2.92-4.36-7.81-5.66-12.8-4.35a17.47,17.47,0,0,0-2.8,1,25.41,25.41,0,0,0-11.72,11.5,88.46,88.46,0,0,0-10.37,33c-1.11,10.51,2.85,17.29,11.49,20.82q4.14-11.4,8.27-22.73c-7.3-4.14-8.17-12.19-2.17-18.58a8.63,8.63,0,0,1,4-2.59c2.41-.63,4.7.47,6.23,3.38a38.44,38.44,0,0,1,2.93,8.22c2,7.43,3.62,14.95,5.67,22.35,1.75,6.24,4.48,12,9.2,16.42"/><g class="cls-2"><g class="cls-53"><g class="cls-2"><path class="cls-5" d="M316.43,310l23.23,15.39a25.39,25.39,0,0,0-15.92-3.87,75.61,75.61,0,0,0-14.35,2.32,77.08,77.08,0,0,0-11.88,4.2c-12.57,5.63-19.91,16.11-17.94,33.58l-23.23-15.4c-2-17.46,5.37-28,17.94-33.58a76.44,76.44,0,0,1,26.23-6.52A25.32,25.32,0,0,1,316.43,310"/></g></g></g><g class="cls-2"><g class="cls-54"><g class="cls-2"><path class="cls-5" d="M298.38,326.58,321.61,342c3.34,2.22,4.83,6.41,3.34,11.12a32.36,32.36,0,0,1-4.62,9.09c-4.4,6-9.26,11.7-13.83,17.6-7.2,9.28-13.86,18.92-15.94,30.74-.74,4.23-.83,8.55-1.24,13.09l-23.23-15.39c.41-4.55.5-8.86,1.24-13.1,2.08-11.82,8.74-21.45,15.94-30.74,4.57-5.9,9.43-11.58,13.83-17.6a32,32,0,0,0,4.62-9.09c1.49-4.7,0-8.9-3.34-11.12"/></g></g></g><g class="cls-2"><g class="cls-55"><g class="cls-2"><path class="cls-5" d="M154.9,571.26l23.22,15.4c-1.75,1.36-4.25,2.38-5.08,4.16-1.21,2.56,1.23,4.34,2.94,5.77l-23.22-15.4c-1.72-1.43-4.16-3.2-2.95-5.77.83-1.77,3.34-2.8,5.09-4.16"/></g></g></g><g class="cls-2"><g class="cls-56"><g class="cls-2"><path class="cls-5" d="M444.69,147.3l23.23,15.39c-3.6,2.23-7,4.58-11.09,7.37L433.6,154.67c4.13-2.8,7.5-5.14,11.09-7.37"/></g></g></g><g class="cls-2"><g class="cls-57"><g class="cls-2"><path class="cls-5" d="M152.76,581.19,176,596.59a82.7,82.7,0,0,0,7.12,5.31l-23.22-15.39a79.83,79.83,0,0,1-7.12-5.32"/></g></g></g><g class="cls-2"><g class="cls-58"><g class="cls-2"><path class="cls-5" d="M455.62,166.08l23.22,15.39-32.18,23-23.23-15.4,32.19-23"/></g></g></g><g class="cls-2"><g class="cls-59"><g class="cls-2"><path class="cls-5" d="M423.43,189.06l23.23,15.4L462,221.14l-23.23-15.4-15.3-16.68"/></g></g></g><g class="cls-2"><g class="cls-60"><g class="cls-2"><path class="cls-5" d="M335.34,369.16l23.22,15.39-36.91,9.69-23.22-15.39,36.91-9.69"/></g></g></g><g class="cls-2"><g class="cls-61"><g class="cls-2"><path class="cls-5" d="M475.63,158l23.22,15.4a6.43,6.43,0,0,0-5.07-1,11.75,11.75,0,0,1-3.59-.4c-7.56-1.09-14-4.76-20.27-8.64a3.53,3.53,0,0,0-2-.68L444.69,147.3a3.56,3.56,0,0,1,2,.67c6.31,3.88,12.71,7.55,20.27,8.65a11.5,11.5,0,0,0,3.6.39,6.51,6.51,0,0,1,5.07,1"/></g></g></g><g class="cls-2"><g class="cls-62"><g class="cls-2"><path class="cls-5" d="M205.22,580.93l23.23,15.4a59.74,59.74,0,0,0-26.14-10,88.16,88.16,0,0,0-24.19.35l-23.22-15.4a88.48,88.48,0,0,1,24.18-.35,59.86,59.86,0,0,1,26.14,10"/></g></g></g><g class="cls-2"><g class="cls-63"><g class="cls-2"><path class="cls-64" d="M197.74,582.68,221,598.08l1,.67c1.31,1,1.26,2.52-.46,3l-.12,0c-10.18,2.27-20.37,3.81-30-.86a3.07,3.07,0,0,1-.36-.2l-23.23-15.4a3.24,3.24,0,0,0,.36.2c9.59,4.67,19.78,3.13,30,.86l.12,0c1.71-.45,1.77-2,.45-3-.31-.23-.64-.46-1-.68"/></g></g></g><g class="cls-2"><g class="cls-65"><g class="cls-2"><path class="cls-5" d="M193.2,608.37l23.22,15.4c1.93,1.55,3.88,3.07,5.91,4.41l-23.23-15.4c-2-1.34-4-2.86-5.9-4.41"/></g></g></g><g class="cls-2"><g class="cls-66"><g class="cls-2"><path class="cls-5" d="M245,608.24l23.23,15.4c-1.52-1-3-2-4.54-2.92a6.52,6.52,0,0,0-3.69-.65c-7.24.55-14.47,1.22-21.7,1.84l-21.91,1.86-23.22-15.4,21.9-1.85c7.24-.63,14.46-1.3,21.7-1.84a6.57,6.57,0,0,1,3.7.65c1.52.93,3,1.9,4.53,2.91"/></g></g></g><g class="cls-2"><g class="cls-67"><g class="cls-2"><path class="cls-5" d="M223.69,616.44l23.23,15.39c-.26-.1-.53-.2-.78-.31l-23.22-15.39.77.31"/></g></g></g><g class="cls-2"><g class="cls-68"><g class="cls-2"><path class="cls-5" d="M224,615.93l23.23,15.39c-.08.18-.17.34-.26.51l-23.23-15.39c.09-.17.18-.34.26-.51"/></g></g></g><g class="cls-2"><g class="cls-69"><g class="cls-2"><path class="cls-5" d="M240.78,623.92,264,639.32a3.68,3.68,0,0,0-.58-.32q-8.25-3.6-16.51-7.17l-23.23-15.39Q232,620,240.2,623.6a4.71,4.71,0,0,1,.58.32"/></g></g></g><g class="cls-2"><g class="cls-70"><g class="cls-2"><path class="cls-5" d="M241.8,624.64,265,640l.06.26-23.23-15.4c0-.08,0-.17,0-.26"/></g></g></g><g class="cls-2"><g class="cls-71"><g class="cls-2"><path class="cls-5" d="M242.09,624.81l23.22,15.4L265,640l-23.22-15.4.29.17"/></g></g></g><g class="cls-2"><g class="cls-72"><g class="cls-2"><path class="cls-5" d="M325.05,655.44l23.22,15.4-1.83.9-23.23-15.39,1.84-.91"/></g></g></g><g class="cls-2"><g class="cls-73"><g class="cls-2"><path class="cls-5" d="M325.05,655.44l23.22,15.4-1.83.9-23.23-15.39,1.84-.91"/></g></g></g><g class="cls-2"><g class="cls-74"><g class="cls-2"><path class="cls-21" d="M325.05,655.44l23.22,15.4.45,1.58L325.49,657l-.44-1.59"/></g></g></g><polygon class="cls-75" points="333.59 657.33 356.82 672.73 356.6 672.7 333.37 657.31 333.59 657.33"/><g class="cls-2"><g class="cls-76"><g class="cls-2"><path class="cls-5" d="M333.37,657.31,356.6,672.7l0,.32-23.22-15.4c0-.1,0-.21,0-.31"/></g></g></g><polygon class="cls-21" points="333.61 657.51 356.84 672.91 356.63 673.02 333.41 657.62 333.61 657.51"/><polygon class="cls-77" points="333.59 657.33 356.82 672.73 356.84 672.91 333.61 657.51 333.59 657.33"/><g class="cls-2"><g class="cls-78"><g class="cls-2"><path class="cls-5" d="M341.36,658.47l23.23,15.4-1.11-.06-23.23-15.39,1.11.05"/></g></g></g><g class="cls-2"><g class="cls-79"><g class="cls-2"><path class="cls-80" d="M341.09,658.94l23.23,15.4-.84-.53-23.23-15.39c.28.17.57.34.84.52"/></g></g></g><g class="cls-2"><g class="cls-81"><g class="cls-2"><path class="cls-80" d="M341.36,658.47l23.23,15.4c-.08.16-.18.31-.27.47l-23.23-15.4c.09-.16.19-.31.27-.47"/></g></g></g><g class="cls-2"><g class="cls-82"><g class="cls-2"><path class="cls-5" d="M342.58,658.76l23.22,15.39-1.21-.28-23.23-15.4,1.22.29"/></g></g></g><g class="cls-2"><g class="cls-83"><g class="cls-2"><path class="cls-5" d="M320,654.87l23.23,15.39c-6-1.53-12.13-2.88-18.1-4.6Q222.3,635.84,119.56,605.92c-.51-.15-1-.35-1.8-.63l-23.23-15.4c.8.28,1.29.49,1.8.64q102.77,29.88,205.52,59.73c6,1.72,12.06,3.08,18.1,4.61"/></g></g></g><g class="cls-2"><g class="cls-84"><g class="cls-2"><path class="cls-5" d="M321.25,655.33l23.23,15.39-1.3-.46L320,654.87l1.3.46"/></g></g></g><g class="cls-2"><g class="cls-84"><g class="cls-2"><path class="cls-21" d="M321.25,655.33l23.23,15.39-1.3-.46L320,654.87l1.3.46"/></g></g></g><g class="cls-2"><g class="cls-85"><g class="cls-2"><path class="cls-5" d="M323.21,656.35l23.23,15.39-2-1-23.23-15.39,2,1"/></g></g></g><g class="cls-2"><g class="cls-86"><g class="cls-2"><path class="cls-21" d="M325.49,657l23.23,15.39-2.28-.68-23.23-15.39,2.28.68"/></g></g></g><path class="cls-87" d="M341.36,658.47l1.22.29-.26.45-1.23-.27C341.18,658.78,341.28,658.63,341.36,658.47Z"/><g class="cls-2"><g class="cls-88"><g class="cls-2"><path class="cls-80" d="M342.58,658.76l23.22,15.39-.25.45-23.23-15.39.26-.45"/></g></g></g><g class="cls-2"><g class="cls-89"><g class="cls-2"><path class="cls-80" d="M342.32,659.21l23.23,15.39-1.23-.26-23.23-15.4,1.23.27"/></g></g></g><g class="cls-2"><g class="cls-90"><g class="cls-2"><path class="cls-5" d="M343.77,659.08,367,674.48l-1.2-.33-23.22-15.39,1.19.32"/></g></g></g><path class="cls-87" d="M342.58,658.76l1.19.32-.18.32-1.27-.19Z"/><g class="cls-2"><g class="cls-91"><g class="cls-2"><path class="cls-80" d="M343.59,659.4l23.22,15.4-1.26-.2-23.23-15.39,1.27.19"/></g></g></g><g class="cls-2"><g class="cls-92"><g class="cls-2"><path class="cls-80" d="M343.77,659.08,367,674.48l-.19.32-23.22-15.4.18-.32"/></g></g></g><g class="cls-2"><g class="cls-93"><g class="cls-2"><path class="cls-5" d="M344.81,659.44,368,674.83l-1-.35-23.23-15.4,1,.36"/></g></g></g><g class="cls-2"><g class="cls-94"><g class="cls-2"><path class="cls-80" d="M344.81,659.44,368,674.83l-1.23,0-23.22-15.4,1.22,0"/></g></g></g><g class="cls-2"><g class="cls-95"><g class="cls-2"><path class="cls-5" d="M344.94,659.44l23.22,15.4H368l-23.23-15.39h.13"/></g></g></g><polygon class="cls-96" points="344.94 659.44 368.17 674.84 368.14 674.87 344.92 659.48 344.94 659.44"/><g class="cls-2"><g class="cls-97"><g class="cls-2"><path class="cls-80" d="M344.92,659.48l23.22,15.39-.1,0-23.23-15.39.11,0"/></g></g></g><g class="cls-2"><g class="cls-98"><g class="cls-2"><path class="cls-5" d="M345,659.45l23.23,15.4h0l-23.22-15.4h0"/></g></g></g><g class="cls-2"><g class="cls-99"><g class="cls-2"><path class="cls-80" d="M345,659.45l23.23,15.4-.07,0-23.22-15.39.06,0"/></g></g></g><g class="cls-2"><g class="cls-100"><g class="cls-2"><path class="cls-5" d="M345,659.45l23.23,15.4h0l-23.22-15.4h0"/></g></g></g><g class="cls-2"><g class="cls-101"><g class="cls-2"><path class="cls-5" d="M345.65,659.24l23.23,15.39-.07,0h-.07c-.18.05-.35.13-.53.19L345,659.45c.18-.06.36-.14.53-.18l.07,0h.07"/></g></g></g><g class="cls-2"><g class="cls-102"><g class="cls-2"><path class="cls-5" d="M345.65,659.24l23.23,15.39-.07,0h-.07c-.18.05-.35.13-.53.19L345,659.45c.18-.06.36-.14.53-.18l.07,0h.07"/></g></g></g><g class="cls-2"><g class="cls-103"><g class="cls-2"><path class="cls-5" d="M345.78,659.27,369,674.66l-.12,0-23.23-15.39a.15.15,0,0,1,.13,0"/></g></g></g><g class="cls-2"><g class="cls-104"><g class="cls-2"><path class="cls-80" d="M346,659.72l23.23,15.39-1-.26L345,659.45l1,.27"/></g></g></g><g class="cls-2"><g class="cls-105"><g class="cls-2"><path class="cls-80" d="M345.78,659.27,369,674.66a.66.66,0,0,1,.2.39.13.13,0,0,0,0,.06L346,659.72s0-.05,0-.07a.56.56,0,0,0-.19-.38"/></g></g></g><g class="cls-2"><g class="cls-106"><g class="cls-2"><path class="cls-5" d="M347.58,659.64,370.8,675l-.86.16-23.23-15.39.87-.17"/></g></g></g><g class="cls-2"><g class="cls-107"><g class="cls-2"><path class="cls-80" d="M347.29,660.11l23.23,15.4-.58-.31-23.23-15.39.58.3"/></g></g></g><g class="cls-2"><g class="cls-108"><g class="cls-2"><path class="cls-80" d="M347.58,659.64,370.8,675h0a4.34,4.34,0,0,1-.28.46l-23.23-15.4a3.14,3.14,0,0,0,.28-.46h0"/></g></g></g><path class="cls-87" d="M346.71,659.81l.87-.17h0a3.14,3.14,0,0,1-.28.46Z"/><g class="cls-2"><g class="cls-109"><g class="cls-2"><path class="cls-5" d="M348.42,660.19l23.23,15.4-.85-.55-23.22-15.4.84.55"/></g></g></g><g class="cls-2"><g class="cls-110"><g class="cls-2"><path class="cls-80" d="M348.42,660.19l23.23,15.4-1.13-.08-23.23-15.4,1.13.08"/></g></g></g><path class="cls-87" d="M347.58,659.64l.84.55-1.13-.08a3.14,3.14,0,0,0,.28-.46Z"/><g class="cls-2"><g class="cls-111"><g class="cls-2"><path class="cls-5" d="M349.49,660l23.23,15.4c0,.2,0,.4-.06.61l-23.22-15.39c0-.21,0-.42.05-.62"/></g></g></g><g class="cls-2"><g class="cls-112"><g class="cls-2"><path class="cls-5" d="M351.45,660.2l23.23,15.39-2-.17L349.49,660l2,.18"/></g></g></g><g class="cls-2"><g class="cls-113"><g class="cls-2"><path class="cls-80" d="M351.45,660.2l23.23,15.39c0,.21-.05.41-.07.62l-23.22-15.39.06-.62"/></g></g></g><g class="cls-2"><g class="cls-114"><g class="cls-2"><path class="cls-80" d="M351.39,660.82l23.22,15.39-1.95-.18-23.22-15.39,1.95.18"/></g></g></g><path class="cls-87" d="M349.49,660l2,.18-.06.62-1.95-.18C349.46,660.43,349.48,660.22,349.49,660Z"/><g class="cls-2"><g class="cls-115"><g class="cls-2"><path class="cls-5" d="M354.24,660.91l23.23,15.39c-.13.12-.32.21-.37.35l-23.22-15.4c.05-.14.23-.23.36-.34"/></g></g></g><g class="cls-2"><g class="cls-116"><g class="cls-2"><path class="cls-5" d="M354.24,660.91l23.23,15.39c-.13.12-.32.21-.37.35l-23.22-15.4c.05-.14.23-.23.36-.34"/></g></g></g><g class="cls-2"><g class="cls-117"><g class="cls-2"><path class="cls-5" d="M353.88,661.25l23.22,15.4v.06a2.64,2.64,0,0,0,.2.33l-23.23-15.4a2.42,2.42,0,0,1-.2-.33.13.13,0,0,1,0-.06"/></g></g></g><g class="cls-2"><g class="cls-118"><g class="cls-2"><path class="cls-21" d="M354.24,660.91l23.23,15.39a1.68,1.68,0,0,1,.19.34v.06l-23.23-15.39v-.07a1.4,1.4,0,0,0-.19-.33"/></g></g></g><g class="cls-2"><g class="cls-119"><g class="cls-2"><path class="cls-21" d="M354.43,661.31l23.23,15.39c0,.14-.24.22-.37.34l-23.22-15.4c.13-.11.33-.2.36-.33"/></g></g></g><g class="cls-2"><g class="cls-120"><g class="cls-2"><path class="cls-5" d="M360.57,662.2l23.23,15.4c0,.22,0,.43,0,.65l-23.23-15.4c0-.21,0-.43,0-.65"/></g></g></g><g class="cls-2"><g class="cls-121"><g class="cls-2"><path class="cls-5" d="M360.57,662.2l23.23,15.4c0,.22,0,.43,0,.65l-23.23-15.4c0-.21,0-.43,0-.65"/></g></g></g><g class="cls-2"><g class="cls-122"><g class="cls-2"><path class="cls-5" d="M362.3,662.25l23.22,15.4-1.72,0-23.23-15.4,1.73,0"/></g></g></g><g class="cls-2"><g class="cls-123"><g class="cls-2"><path class="cls-21" d="M362.3,662.25l23.22,15.4-.12.82-23.23-15.4c.05-.27.08-.54.13-.82"/></g></g></g><g class="cls-2"><g class="cls-124"><g class="cls-2"><path class="cls-21" d="M362.17,663.07l23.23,15.4-1.64-.22-23.23-15.4,1.64.22"/></g></g></g><g class="cls-2"><g class="cls-125"><g class="cls-2"><path class="cls-5" d="M365,662.34l23.23,15.39-1.5.79-23.23-15.39,1.5-.79"/></g></g></g><g class="cls-2"><g class="cls-126"><g class="cls-2"><path class="cls-5" d="M166.11,529l23.22,15.4q32.19,21.43,64.29,43l132.66,88.86c.68.46,1.32,1,2,1.49L365,662.34c-.66-.5-1.29-1-2-1.5Q296.73,616.41,230.39,572q-32.13-21.54-64.28-43"/></g></g></g><g class="cls-2"><g class="cls-127"><g class="cls-2"><path class="cls-21" d="M365,662.34l23.22,15.39,1.89,1.33-23.23-15.4L365,662.34"/></g></g></g><g class="cls-2"><g class="cls-128"><g class="cls-2"><path class="cls-21" d="M366.91,663.66l23.23,15.4c-1.1,0-2.18,0-3.27,0l-23.23-15.4h3.27"/></g></g></g><path class="cls-7" d="M366.91,663.66,379,671.44c-.14.25-.27.51-.39.77a6.24,6.24,0,0,1-1.5,0q-25.8-7.54-51.59-15.15c-.15-.53-.29-1.06-.44-1.59l-1.84.91-2-1-1.3-.46c-6-1.53-12.12-2.89-18.1-4.61Q199.07,620.44,96.33,590.53c-.51-.15-1-.36-1.8-.64l25.54-24c12.81-12.06,25.68-24.07,38.41-36.23a7.38,7.38,0,0,1,3.06-2c1.33-.35,2.68.1,4.57,1.36q32.17,21.43,64.28,43,66.33,44.41,132.66,88.85c.69.46,1.32,1,2,1.5l-1.5.79A7.5,7.5,0,0,0,366.91,663.66ZM152.76,581.19c11.16,9.3,23.82,15.26,38.78,15.85,5.82.23,11.65.26,17.38-1.25a32,32,0,0,0,3.56-1.15c3.07-1.19,3.81-3.29,2-5.86a18.33,18.33,0,0,0-3.63-3.78c-9.34-7.34-19.69-12.63-31.76-14.09a88.48,88.48,0,0,0-24.18.35c-1.75,1.36-4.26,2.39-5.09,4.16-1.21,2.57,1.23,4.34,2.95,5.77M224,615.93l28.84-2.47c-4.46-3-8.3-5.67-12.29-8.13a6.57,6.57,0,0,0-3.7-.65c-7.24.54-14.46,1.21-21.7,1.84l-21.9,1.85c3.72,3,7.5,5.87,11.78,7.56,7.52,3,15.56,4.79,23,8,4.66,2,9,1.58,13.71.66a9.27,9.27,0,0,0-1.47-1q-8.23-3.6-16.51-7.16c.09-.17.18-.34.26-.51m122,43.79s0-.05,0-.07c-.06-.32-.19-.43-.32-.41h-.07l-.07,0c-.17,0-.35.12-.53.18h-.17l-1-.36-1.19-.32-1.22-.29-1.11-.05c.28.17.57.34.84.52l1.23.26,1.27.2,1.22,0,.11,0,.06,0,1,.27m5.41,1.1.06-.62-2-.18c0,.2,0,.41-.05.62l1.95.18m10.78,2.25c.05-.27.08-.54.13-.82l-1.73,0c0,.22,0,.44,0,.65l1.64.22m-14.87-3,1.12.08-.84-.55-.87.17.59.3m7.13,1.2v-.07a1.4,1.4,0,0,0-.19-.33c-.13.11-.31.2-.36.34a.13.13,0,0,0,0,.06,2.42,2.42,0,0,0,.2.33c.13-.11.33-.2.36-.33m-20.82-3.8,0-.18-.22,0c0,.1,0,.21,0,.31l.2-.11M241.85,624.9l.24-.09-.29-.17c0,.09,0,.18,0,.26"/><path class="cls-129" d="M168.71,580.33c8.87-1.06,17-2.34,24.93.28a19,19,0,0,1,5.07,2.75c1.32,1,1.26,2.51-.45,3l-.12,0c-10.19,2.27-20.38,3.81-30-.86-1.2-.57-2-2-2.92-3Z"/><g class="cls-2"><g class="cls-130"><g class="cls-2"><path class="cls-5" d="M395.21,289.28l23.23,15.4A25.15,25.15,0,0,0,403,300.73a56.82,56.82,0,0,0-11.56,1.91c-2.37.62-4.71,1.35-7,2.12-13.28,4.44-21.27,14.61-22.09,28.64-1,17.29,2.24,33.68,10.45,48.38a27.81,27.81,0,0,0,8.84,9.85l-23.23-15.4a27.72,27.72,0,0,1-8.84-9.85c-8.2-14.7-11.47-31.08-10.45-48.37.82-14,8.82-24.21,22.09-28.64,2.3-.77,4.65-1.5,7-2.12a56.16,56.16,0,0,1,11.56-1.92,25.18,25.18,0,0,1,15.41,3.95"/></g></g></g><g class="cls-2"><g class="cls-131"><g class="cls-2"><path class="cls-5" d="M377.88,304.58,401.1,320a8.46,8.46,0,0,1,2.35,2.38,44.84,44.84,0,0,1,4.94,10.27c1.46,4.27,2.33,8.79,4,15.2l-23.22-15.4c-1.64-6.41-2.5-10.92-4-15.19A44.5,44.5,0,0,0,380.22,307a8.7,8.7,0,0,0-2.34-2.38"/></g></g></g><g class="cls-2"><g class="cls-132"><g class="cls-2"><path class="cls-5" d="M389.13,332.43l23.22,15.4c.35,4.26,1,10.52,1.26,16.83a16.06,16.06,0,0,1-1.61,7,10,10,0,0,1-6.41,5.6,7.9,7.9,0,0,1-6.43-1l-23.23-15.4a7.87,7.87,0,0,0,6.43,1,10,10,0,0,0,6.42-5.61,16.17,16.17,0,0,0,1.61-7c-.22-6.3-.92-12.56-1.26-16.83"/></g></g></g><path class="cls-7" d="M370.85,303.72c3.94-1,7.24.07,9.37,3.24a44.5,44.5,0,0,1,4.94,10.28c1.47,4.27,2.33,8.78,4,15.19.34,4.27,1,10.53,1.26,16.83a16.17,16.17,0,0,1-1.61,7,10,10,0,0,1-6.42,5.61,7.94,7.94,0,0,1-8.12-2.51,29.66,29.66,0,0,1-5.56-10.16,107,107,0,0,1-5.74-32.79,19.66,19.66,0,0,1,.47-4.59c.91-3.85,2.9-6.72,6.89-7.94Z"/><g class="cls-2"><g class="cls-133"><g class="cls-2"><path class="cls-5" d="M554.51,108.87l23.23,15.4.32.22L554.83,109.1l-.32-.23"/></g></g></g><g class="cls-2"><g class="cls-134"><g class="cls-2"><path class="cls-5" d="M554.89,109.14l23.23,15.39,0,0-23.23-15.4,0,0"/></g></g></g><polygon class="cls-8" points="554.95 109.07 578.17 124.46 578.12 124.53 554.89 109.14 554.95 109.07"/><path class="cls-49" d="M554.83,109.1l.12,0-.06.07Z"/><path class="cls-49" d="M554.89,109.14l.06-.07a.41.41,0,0,0,0,.09Z"/><g class="cls-2"><g class="cls-135"><g class="cls-2"><path class="cls-5" d="M555,109.16l23.22,15.39-.1,0-23.23-15.39.11,0"/></g></g></g><g class="cls-2"><g class="cls-136"><g class="cls-2"><path class="cls-5" d="M555,109.07l23.22,15.39a.41.41,0,0,1,.05.09L555,109.16a.41.41,0,0,1,0-.09"/></g></g></g><g class="cls-2"><g class="cls-137"><g class="cls-2"><path class="cls-5" d="M555.58,109.28l23.23,15.39c-.12.09-.24.18-.37.26l-23.22-15.39.36-.26"/></g></g></g><path class="cls-49" d="M555,109.16l.58.12-.36.26Z"/><path class="cls-7" d="M222.92,616.13l1-.2c-.08.17-.17.34-.26.51Z"/><g class="cls-2"><g class="cls-138"><g class="cls-2"><path class="cls-5" d="M463,214.81l23.23,15.39c9.42,10.24,18.72,20.33,28.1,30.5l-23.23-15.39L463,214.81"/></g></g></g><g class="cls-2"><g class="cls-139"><g class="cls-2"><path class="cls-5" d="M491.13,245.31l23.23,15.39c-3.1,2.77-6,5.35-8.9,8l-23.23-15.39,8.9-8"/></g></g></g><g class="cls-2"><g class="cls-140"><g class="cls-2"><path class="cls-141" d="M515.23,224.15l23.23,15.4-14,12.38-23.23-15.39,14-12.39"/></g></g></g><g class="cls-2"><g class="cls-142"><g class="cls-2"><path class="cls-5" d="M528.41,213.43l23.23,15.4a5.82,5.82,0,0,0-2.37-.84q-25.08-3.21-50.19-6.26a4.88,4.88,0,0,0-1.86.08,2,2,0,0,0-.76.34c-3.42,2.57-6.73,5.29-10.2,8L463,214.81c3.48-2.77,6.78-5.49,10.2-8.05a2.22,2.22,0,0,1,.76-.35,5.32,5.32,0,0,1,1.86-.08Q501,209.4,526,212.6a5.7,5.7,0,0,1,2.37.83"/></g></g></g><g class="cls-2"><g class="cls-143"><g class="cls-2"><path class="cls-5" d="M482.23,253.27l23.23,15.39,13.9,15.14-23.23-15.39c-4.61-5-9.14-10-13.9-15.14"/></g></g></g><g class="cls-2"><g class="cls-144"><g class="cls-2"><path class="cls-5" d="M505,260.3l23.23,15.4c2.49,2.68,4.87,5.21,7.24,7.75L512.2,268.06c-2.38-2.55-4.75-5.07-7.25-7.76"/></g></g></g><path class="cls-49" d="M291.55,117.87l283.86.78c-8.44,96-16.87,191.81-25.35,288.25Q420.58,262.15,291.55,117.87ZM512.2,268.06c3.4-3.25,6.55-6.26,9.69-9.24l-7-7.68c8.86-8.18,17.53-16.19,26.42-24.42-4.25-4.46-8.21-8.71-12.3-12.84A5.2,5.2,0,0,0,526,212.6q-25.08-3.22-50.19-6.27a5.32,5.32,0,0,0-1.86.08,2.22,2.22,0,0,0-.76.35c-3.42,2.56-6.72,5.28-10.2,8.05l28.1,30.5-8.9,8c4.76,5.16,9.29,10.12,13.9,15.14L505,260.3c2.5,2.69,4.87,5.21,7.25,7.76m-88.77-79,15.3,16.68,48.09-36.26c-2.95-3.1-5.84-5.93-8.49-9-2.08-2.41-4.24-4.16-7.77-3.49a11.5,11.5,0,0,1-3.6-.39c-7.56-1.1-14-4.77-20.27-8.65a3.56,3.56,0,0,0-2-.67c-3.59,2.23-7,4.57-11.09,7.37,7.76,4,14.85,7.69,22,11.41l-32.19,23"/><path class="cls-145" d="M486.43,220.66l28.8,3.49-14,12.39Z"/><g class="cls-2"><g class="cls-146"><g class="cls-2"><path class="cls-5" d="M404.53,520.76l23.22,15.4c-4.64-3.08-10-4-15.59-3.79A104.45,104.45,0,0,0,390,535.82,141.63,141.63,0,0,0,371.74,542c-6,2.5-11.51,6-15.49,11.54-5.72,8-4.32,17,2.41,21.5l-23.23-15.4c-6.73-4.46-8.12-13.48-2.4-21.5,4-5.56,9.47-9,15.48-11.53a142.21,142.21,0,0,1,18.24-6.23A104.54,104.54,0,0,1,388.93,517c5.63-.24,10.95.7,15.6,3.78"/></g></g></g><g class="cls-2"><g class="cls-147"><g class="cls-2"><path class="cls-5" d="M348.45,563.05l23.23,15.4a75.49,75.49,0,0,0-6.6,6.15c-5.17,6.06-4.61,13.63,1.19,17.47l-23.22-15.39c-5.8-3.85-6.36-11.41-1.2-17.48a78.46,78.46,0,0,1,6.6-6.15"/></g></g></g><g class="cls-2"><g class="cls-148"><g class="cls-2"><path class="cls-64" d="M372.32,552.14l23.23,15.4c-3.71-.57-7.26-.55-10.33-1.7a7.82,7.82,0,0,1-1.53-.77l-23.22-15.4a7,7,0,0,0,1.52.77c3.08,1.15,6.62,1.14,10.33,1.7"/></g></g></g><g class="cls-2"><g class="cls-149"><g class="cls-2"><path class="cls-64" d="M380.08,533.05l23.23,15.39a7.79,7.79,0,0,1,1.34,12.13c-2.5,2.7-5.87,4.55-9.1,7l-23.23-15.4c3.24-2.41,6.61-4.26,9.1-7a7.79,7.79,0,0,0-1.34-12.13"/></g></g></g><path class="cls-129" d="M368.57,531.69a15,15,0,0,1,10.74.9,7.82,7.82,0,0,1,2.11,12.59c-2.49,2.7-5.86,4.55-9.1,7-3.71-.56-7.25-.55-10.33-1.7-5-1.84-6.12-7.93-2.87-12.48A16.92,16.92,0,0,1,368.57,531.69Z"/><g class="cls-2"><g class="cls-150"><g class="cls-2"><path class="cls-64" d="M377.33,577.24l23.22,15.39c-3.09-.25-6.28,0-9.07-.88a6.13,6.13,0,0,1-1.61-.75l-23.23-15.4a6.3,6.3,0,0,0,1.61.76c2.8.86,6,.62,9.08.88"/></g></g></g><path class="cls-23" d="M325.05,655.44l.44,1.59-2.28-.68Z"/><g class="cls-2"><g class="cls-151"><g class="cls-2"><path class="cls-5" d="M575.41,118.65l23.22,15.4c-8.43,96-16.87,191.81-25.34,288.24L550.06,406.9c8.48-96.44,16.91-192.26,25.35-288.25"/></g></g></g><g class="cls-2"><g class="cls-152"><g class="cls-2"><path class="cls-5" d="M585.87,265.36l23.22,15.4c-.71.77-.82.84-.83.91L585,266.28c0-.08.12-.14.84-.92"/></g></g></g><g class="cls-2"><g class="cls-153"><g class="cls-2"><path class="cls-64" d="M384.57,562.48l23.23,15.39c3.25,2.16,3.7,6.42.4,9.64-2.08,2-4.87,3.31-7.65,5.12l-23.22-15.39c2.77-1.82,5.56-3.09,7.64-5.12,3.3-3.22,2.85-7.49-.4-9.64"/></g></g></g><g class="cls-2"><g class="cls-154"><g class="cls-2"><path class="cls-5" d="M408.88,553.51l23.23,15.39a15.9,15.9,0,0,0-3-1.52c-2.27-.89-4.7-1.42-6.72-2L399.19,550c2,.6,4.45,1.14,6.73,2a16.14,16.14,0,0,1,3,1.53"/></g></g></g><g class="cls-2"><g class="cls-155"><g class="cls-2"><path class="cls-5" d="M544.78,414.79,568,430.18,193.12,532.26l-23.23-15.39L544.78,414.79"/></g></g></g><path class="cls-49" d="M176,524.46,545.56,423.82l-146,250.36Zm234.18,47c6.21-7.65,4.36-16.11-4.3-19.51-2.28-.88-4.71-1.42-6.73-2,2.78-2.59,6-5,8.53-8.1,5.72-7.06,4.68-15.25-2.16-20.37-4.88-3.66-10.58-4.77-16.63-4.51a104.54,104.54,0,0,0-22.18,3.44,142.21,142.21,0,0,0-18.24,6.23c-6,2.49-11.51,6-15.48,11.53-7,9.82-3.35,21.14,7.72,23.76,2.56.6,5.24.77,7.7,1.11a78.46,78.46,0,0,0-6.6,6.15c-5.66,6.65-4.44,15.1,3,18.48a34.48,34.48,0,0,0,12.62,2.91,68.72,68.72,0,0,0,20.24-2.47,138.82,138.82,0,0,0,16.87-5.78c5.93-2.4,11.43-5.66,15.63-10.85"/><path class="cls-129" d="M374.57,561.77a15,15,0,0,1,8.29-.13c4.73,1.64,5.93,6.76,2.11,10.48-2.08,2-4.87,3.3-7.64,5.12-3.1-.26-6.28,0-9.08-.88-4.41-1.37-5.16-6.3-1.95-10A17.06,17.06,0,0,1,374.57,561.77Z"/><path class="cls-23" d="M333.37,657.31l.22,0,0,.19-.2.1Z"/><path class="cls-87" d="M340.25,658.42l1.11.05c-.08.16-.18.31-.27.47C340.82,658.76,340.53,658.59,340.25,658.42Z"/><path class="cls-87" d="M343.59,659.4l.18-.32,1,.36Z"/><path class="cls-87" d="M344.81,659.44h.13l0,0Z"/><path class="cls-87" d="M344.92,659.48l0,0h0Z"/><path class="cls-87" d="M345.65,659.24c.13,0,.26.09.32.41,0,0,0,.05,0,.07l-1-.27c.18-.06.36-.14.53-.18l.07,0Z"/><path class="cls-23" d="M354.24,660.91a1.4,1.4,0,0,1,.19.33v.07c0,.13-.23.22-.36.33a2.42,2.42,0,0,1-.2-.33.13.13,0,0,1,0-.06C353.93,661.11,354.11,661,354.24,660.91Z"/><g class="cls-2"><g class="cls-156"><g class="cls-2"><path class="cls-5" d="M585,266.28l23.23,15.39Q605.59,312,603,342.4a6.09,6.09,0,0,0,.13,1.64c.19.91.51,1.83.69,2.74l-23.23-15.4c-.18-.91-.5-1.82-.69-2.74a5.64,5.64,0,0,1-.12-1.63c1.69-20.25,3.49-40.5,5.26-60.73"/></g></g></g><g class="cls-2"><g class="cls-157"><g class="cls-2"><path class="cls-158" d="M581.26,331.24l23.23,15.39-.68.15-23.23-15.4.68-.14"/></g></g></g><g class="cls-2"><g class="cls-159"><g class="cls-2"><path class="cls-158" d="M585.87,265.36l23.22,15.4c.25,1.23.6,2.29.8,3.28a6.28,6.28,0,0,1,.14,1.71c-1.65,20.07-3.42,40.13-5.17,60.18a2.49,2.49,0,0,1-.37.7l-23.23-15.39c.13-.23.35-.46.37-.7,1.75-20.06,3.52-40.12,5.17-60.18a6,6,0,0,0-.14-1.72c-.2-1-.55-2-.79-3.28"/></g></g></g><g class="cls-2"><g class="cls-160"><g class="cls-2"><path class="cls-5" d="M597.34,297l23.23,15.39a3.32,3.32,0,0,0-2.66-.47l-.19,0c-2.76.73-3.12,3.71-3.57,6-3,15.86-3,31.52,1.65,46.64a36.66,36.66,0,0,0,4.33,8.76,4.23,4.23,0,0,0,1.14,1.22l-23.22-15.4a4,4,0,0,1-1.14-1.22,36.14,36.14,0,0,1-4.34-8.76c-4.64-15.12-4.67-30.77-1.64-46.64.44-2.33.81-5.32,3.56-6l.19,0a3.32,3.32,0,0,1,2.66.48"/></g></g></g><g class="cls-2"><g class="cls-161"><g class="cls-2"><path class="cls-141" d="M595.86,315.83l23.23,15.39a3,3,0,0,1,.82.92c4,6.35,4.92,13.45,3.52,21.06a10.1,10.1,0,0,1-1.35,2.38l-23.22-15.39a10.2,10.2,0,0,0,1.34-2.39c1.41-7.6.46-14.71-3.52-21.06a2.87,2.87,0,0,0-.82-.91"/></g></g></g><path class="cls-145" d="M595.06,315.66c.48-.13,1.05.16,1.62,1.08,4,6.35,4.93,13.46,3.52,21.06a10.2,10.2,0,0,1-1.34,2.39c-4-4.52-5.3-9.59-5.61-15a32.88,32.88,0,0,1,.63-7.7C594.06,316.54,594.5,315.81,595.06,315.66Z"/><g class="cls-2"><g class="cls-162"><g class="cls-2"><path class="cls-5" d="M605.54,353.06l23.23,15.4c-.28,6.26-.63,12.41-.73,18.55a3.32,3.32,0,0,0,1.54,2.24l-23.22-15.4a3.24,3.24,0,0,1-1.54-2.24c.09-6.13.44-12.28.72-18.55"/></g></g></g><g class="cls-2"><g class="cls-163"><g class="cls-2"><path class="cls-5" d="M604.21,330.05l23.23,15.4a19.87,19.87,0,0,0,1.46,4.35,34.38,34.38,0,0,1,2.74,16.74c-.1,1-.2,2.34-1,2.56a2.25,2.25,0,0,1-1.7-.55l-23.22-15.39a2.25,2.25,0,0,0,1.7.54c.83-.22.93-1.55,1-2.55a34.56,34.56,0,0,0-2.75-16.75,20.23,20.23,0,0,1-1.46-4.35"/></g></g></g><path class="cls-7" d="M584,120.11a7,7,0,0,1,.19-1q31.39,158.87,63,319.08c-11-2.87-21.2-5.53-31.4-8.22-18.31-4.83-36.6-9.7-54.93-14.45-2-.53-2.72-1.24-2.52-3.62q11.25-126.67,22.31-253.34C581.86,145.72,582.93,132.91,584,120.11ZM611.19,330a81,81,0,0,0-11-29.47c-1.24-2-2.58-4.64-5.47-4l-.19,0c-2.75.72-3.12,3.71-3.56,6-3,15.87-3,31.52,1.64,46.64a36.14,36.14,0,0,0,4.34,8.76c.83,1.3,1.85,1.79,2.82,1.54a3.72,3.72,0,0,0,2.18-2.21,15.69,15.69,0,0,0,1.61-5.56c.37-7.25.48-14.49.69-21.75a20.23,20.23,0,0,0,1.46,4.35,34.56,34.56,0,0,1,2.75,16.75c-.11,1-.21,2.33-1,2.55-.41.11-1-.05-1.84-.64-.28,6.27-.63,12.42-.72,18.55a3.39,3.39,0,0,0,1.93,2.46.92.92,0,0,0,.57,0,3.24,3.24,0,0,0,1.85-1.31,30.17,30.17,0,0,0,2.19-6.91,109.75,109.75,0,0,0-.17-35.81m-29.93,1.21c.13-.23.35-.46.37-.7,1.75-20.06,3.52-40.12,5.17-60.18a6,6,0,0,0-.14-1.72c-.2-1-.55-2-.79-3.28-.72.78-.82.84-.84.92-1.77,20.23-3.57,40.48-5.26,60.73a5.64,5.64,0,0,0,.12,1.63c.19.92.51,1.83.69,2.74l.68-.14"/><path class="cls-164" d="M585.87,265.36c.24,1.24.59,2.3.79,3.28a6,6,0,0,1,.14,1.72c-1.65,20.06-3.42,40.12-5.17,60.18,0,.24-.24.47-.37.7l-.68.14c-.18-.91-.5-1.82-.69-2.74a5.64,5.64,0,0,1-.12-1.63c1.69-20.25,3.49-40.5,5.26-60.73C585.05,266.2,585.15,266.14,585.87,265.36Z"/><path class="cls-23" d="M360.57,662.2l1.73,0c-.05.28-.08.55-.13.82l-1.64-.22C360.54,662.64,360.56,662.42,360.57,662.2Z"/><path class="cls-23" d="M365,662.34l1.88,1.32h-3.27c0-.17-.08-.35-.11-.53Z"/><path class="cls-49" d="M288.59,128.39l256.19,286.4L169.89,516.87C209.47,387.31,249,258.11,288.59,128.39ZM390.87,377c14.38-4.36,22.29-13.94,23.29-29.06.53-8-.42-16-.69-24-2.68-7.46-4.83-14.83-7.92-21.72-4.9-10.95-13.45-17.43-25.75-16.87a56.16,56.16,0,0,0-11.56,1.92c-2.36.62-4.71,1.35-7,2.12C348,293.8,340,304,339.14,318c-1,17.29,2.25,33.67,10.45,48.37,5.46,9.78,14.29,14.71,25.69,13.88a60.49,60.49,0,0,0,11-2c1.54-.4,3.07-.85,4.58-1.31m-51.61,12-3.92-19.85-36.91,9.69c-.21-.24-.42-.5-.62-.74,4.05-4.88,8.05-9.82,12.17-14.64,5.19-6.05,10.36-12.12,13.74-19.42,8.76-18.94-1.8-39.31-23.21-37.93a76.44,76.44,0,0,0-26.23,6.52c-12.57,5.63-19.9,16.12-17.94,33.58l24.23-4.33a75.31,75.31,0,0,1,1.08-8.47,11.34,11.34,0,0,1,8.17-8.11,11.12,11.12,0,0,1,5.23-.12c5.58,1.24,8.59,6.45,6.67,12.51a32,32,0,0,1-4.62,9.09c-4.4,6-9.26,11.7-13.83,17.6-7.2,9.29-13.86,18.92-15.94,30.74-.74,4.24-.83,8.55-1.24,13.1L339.26,389"/><g class="cls-2"><g class="cls-165"><g class="cls-2"><path class="cls-5" d="M288.59,128.39l23.23,15.39L568,430.18l-23.23-15.39L288.59,128.39"/></g></g></g><g class="cls-2"><g class="cls-166"><g class="cls-2"><path class="cls-5" d="M379,671.44l23.22,15.39-.39.77-23.22-15.39c.12-.26.25-.52.39-.77"/></g></g></g><g class="cls-2"><g class="cls-167"><g class="cls-2"><path class="cls-5" d="M378.58,672.21,401.8,687.6a5.28,5.28,0,0,1-1.49,0q-25.8-7.55-51.59-15.15L325.49,657q25.78,7.59,51.59,15.15a6.24,6.24,0,0,0,1.5,0"/></g></g></g><path class="cls-7" d="M379.07,672l1.19.53a3.5,3.5,0,0,0-.25.47l-1.15-.46Z"/><g class="cls-2"><g class="cls-168"><g class="cls-2"><path class="cls-5" d="M380.26,672.55l23.23,15.39a3,3,0,0,0-.25.47L380,673a3.5,3.5,0,0,1,.25-.47"/></g></g></g><g class="cls-2"><g class="cls-169"><g class="cls-2"><path class="cls-5" d="M380,673l23.23,15.39-1.16-.46-23.22-15.39L380,673"/></g></g></g><g class="cls-2"><g class="cls-170"><g class="cls-2"><path class="cls-5" d="M380.81,672.85,404,688.25l-.8.16L380,673l.8-.17"/></g></g></g><path class="cls-7" d="M380.26,672.55l.55.3-.8.17A3.5,3.5,0,0,1,380.26,672.55Z"/><g class="cls-2"><g class="cls-171"><g class="cls-2"><path class="cls-5" d="M545.56,423.82l23.22,15.39-146,250.37-23.22-15.4,146-250.36"/></g></g></g><g class="cls-2"><g class="cls-172"><g class="cls-2"><path class="cls-5" d="M415.46,664.45l23.23,15.39-.06.1-23.22-15.39,0-.1"/></g></g></g><path class="cls-7" d="M415.41,664.55l-.08,0,.13-.07Z"/><polygon class="cls-75" points="415.4 664.55 438.63 679.95 438.56 679.92 415.33 664.52 415.4 664.55"/><g class="cls-2"><g class="cls-173"><g class="cls-2"><path class="cls-5" d="M415.41,664.55l23.22,15.39a.16.16,0,0,1,0,.07l-23.23-15.4.05-.06"/></g></g></g><path class="cls-7" d="M415.33,664.52l.08,0-.05.06Z"/><path class="cls-7" d="M415.49,664.9l-.36.05a4,4,0,0,0,.23-.34C415.41,664.71,415.45,664.81,415.49,664.9Z"/><g class="cls-2"><g class="cls-174"><g class="cls-2"><path class="cls-5" d="M415.49,664.9l23.23,15.4-.36.05L415.13,665l.36-.05"/></g></g></g><g class="cls-2"><g class="cls-175"><g class="cls-2"><path class="cls-5" d="M415.36,664.61,438.59,680c0,.1.08.19.13.29l-23.23-15.4c0-.09-.08-.19-.13-.29"/></g></g></g><g class="cls-2"><g class="cls-176"><g class="cls-2"><path class="cls-5" d="M416.56,663.81l23.22,15.39-1.09.64-23.23-15.39c.36-.22.73-.43,1.1-.64"/></g></g></g><path class="cls-7" d="M416,663.45c.19.11.37.24.57.36-.37.21-.74.42-1.1.64Z"/><g class="cls-2"><g class="cls-177"><g class="cls-2"><path class="cls-5" d="M591.55,442.15l23.22,15.39c-3.27,2-6.4,3.84-9.5,5.78a2.81,2.81,0,0,0-.95,1.43c-1,3.25-1.86,6.54-2.94,9.76a6.17,6.17,0,0,1-1.93,3.12c-9,5.67-18.12,11.18-27.18,16.78a6.82,6.82,0,0,0-2.37,2c-3,4.83-5.86,9.75-9,15.08l-23.23-15.39c3.17-5.33,6-10.25,9-15.08A7.05,7.05,0,0,1,549,479c9.06-5.6,18.17-11.11,27.19-16.78a6.11,6.11,0,0,0,1.92-3.11c1.08-3.23,1.94-6.51,3-9.77a2.73,2.73,0,0,1,.94-1.42c3.1-1.94,6.24-3.81,9.51-5.78"/></g></g></g><g class="cls-2"><g class="cls-178"><g class="cls-2"><path class="cls-5" d="M563.54,495.2l23.23,15.4a5.16,5.16,0,0,0-3.33,0,5.22,5.22,0,0,0-1.14.42,145.28,145.28,0,0,0-16.06,9.25c-15.92,11.15-27.88,25.89-36.42,43.46-1,2.1-2.86,5.08-.72,6.58h0L505.9,554.93l0,0c-2.14-1.5-.3-4.47.72-6.57,8.53-17.58,20.49-32.31,36.41-43.47a149.5,149.5,0,0,1,16.06-9.25,6.51,6.51,0,0,1,1.14-.42c1.24-.32,2.75-.39,3.33,0"/></g></g></g><g class="cls-2"><g class="cls-179"><g class="cls-2"><path class="cls-141" d="M536,520.59,559.24,536a5.78,5.78,0,0,1,.16,1.83c-1.4,5.71-11.3,15.16-17.88,16.88a7.77,7.77,0,0,1-1,.21l-23.23-15.39a9.39,9.39,0,0,0,1-.21c6.59-1.73,16.49-11.17,17.89-16.88a5.77,5.77,0,0,0-.17-1.83"/></g></g></g><g class="cls-2"><g class="cls-180"><g class="cls-2"><path class="cls-5" d="M535.68,537.9l23.22,15.39c-.08.2-.17.39-.26.6l-23.23-15.4.27-.59"/></g></g></g><g class="cls-2"><g class="cls-181"><g class="cls-2"><path class="cls-5" d="M552,511.36l23.22,15.39a.53.53,0,0,1,.11.09,2.19,2.19,0,0,1-.11,2.07c-2.05,2.83-4.21,5.59-6.44,8.29-.93,1.12-2.41,1.86-3.09,3.07-2.39,4.27-4.54,8.67-6.79,13L535.68,537.9c2.24-4.35,4.39-8.76,6.79-13,.67-1.22,2.16-2,3.08-3.07,2.23-2.7,4.39-5.47,6.45-8.29a2.22,2.22,0,0,0,.1-2.07.28.28,0,0,0-.1-.09"/></g></g></g><g class="cls-2"><g class="cls-182"><g class="cls-2"><path class="cls-5" d="M564.77,520.42,588,535.82l.48.4-23.23-15.39-.48-.41"/></g></g></g><g class="cls-2"><g class="cls-183"><g class="cls-2"><path class="cls-5" d="M566.64,518.91l23.22,15.39L588,535.82l-23.23-15.4,1.87-1.51"/></g></g></g><g class="cls-2"><g class="cls-184"><g class="cls-2"><path class="cls-185" d="M566.94,519.29l23.23,15.4-1.69,1.53-23.23-15.39,1.69-1.54"/></g></g></g><g class="cls-2"><g class="cls-186"><g class="cls-2"><path class="cls-185" d="M566.64,518.91l23.22,15.39.31.39-23.23-15.4-.3-.38"/></g></g></g><g class="cls-2"><g class="cls-187"><g class="cls-2"><path class="cls-5" d="M574.45,511.63,597.68,527A11.89,11.89,0,0,1,596,528.2l-23.23-15.4c.26-.06.5-.33,1.68-1.17"/></g></g></g><g class="cls-2"><g class="cls-188"><g class="cls-2"><path class="cls-5" d="M574.5,511.66l23.23,15.4-.05,0-23.23-15.39,0,0"/></g></g></g><g class="cls-2"><g class="cls-189"><g class="cls-2"><path class="cls-185" d="M574.5,511.66l23.23,15.4a2.24,2.24,0,0,1,.63,1.16l-23.23-15.4c-.22-.68-.42-1-.63-1.16"/></g></g></g><g class="cls-2"><g class="cls-190"><g class="cls-2"><path class="cls-5" d="M582.9,505.42l23.23,15.4-2.31.39-23.23-15.39,2.31-.4"/></g></g></g><g class="cls-2"><g class="cls-191"><g class="cls-2"><path class="cls-185" d="M581.78,506.48,605,521.88l-1.18-.67L580.6,505.82l1.18.66"/></g></g></g><g class="cls-2"><g class="cls-192"><g class="cls-2"><path class="cls-5" d="M584.14,502.31l23.23,15.4.93,1.08-23.23-15.4-.93-1.08"/></g></g></g><g class="cls-2"><g class="cls-193"><g class="cls-2"><path class="cls-5" d="M587,501.49l23.23,15.4-2.85.82-23.23-15.4,2.85-.82"/></g></g></g><path class="cls-194" d="M587,501.49l-1.92,1.9-.93-1.08Z"/><g class="cls-2"><g class="cls-195"><g class="cls-2"><path class="cls-5" d="M592.86,495.93l23.23,15.39-2.08-.07-23.23-15.4,2.08.08"/></g></g></g><g class="cls-2"><g class="cls-196"><g class="cls-2"><path class="cls-5" d="M590.78,495.85,614,511.25c0,.26,0,.52,0,.77l-23.22-15.39c0-.26,0-.51,0-.78"/></g></g></g><g class="cls-2"><g class="cls-197"><g class="cls-2"><path class="cls-185" d="M592.05,496.68l23.23,15.4L614,512l-23.23-15.39,1.29.05"/></g></g></g><path class="cls-7" d="M641.17,446.07c1,.25,1.91.57,3.19,1-6.28,6-12.32,11.79-18.37,17.56q-12.53,11.93-25.09,23.83c-2.66,2.52-5.35,5-8,7.51l-2.08-.08c0,.27,0,.52,0,.78l1.29.05-2.54,2.4c-.21.22-.41.44-.62.65-.63.59-1.26,1.18-1.9,1.76l-2.85.82.93,1.08-2.17,2-2.31.4,1.19.66-1.71,1.61c-.32.31-.63.62-1,.91-1.33,1.28-2.65,2.55-4,3.82-.24-.74-.46-1.09-.68-1.19-1.18.84-1.42,1.11-1.68,1.17a6.55,6.55,0,0,0,.88,1.47l-1.1,1c-.75,0-1.5.06-2.24.09l.86,1.29-4.76,4.43-.61.65-1,.89-2.53.42,1,1.06q-20.26,19.33-40.51,38.69-52.13,49.68-104.28,99.32c-.62.6-1.32,1.13-2,1.7,12-21.94,24.53-43.52,37.1-65.1Q503.85,512.58,554,426.45c.77-1.33,1.43-2.08,2.38-2.33a4.65,4.65,0,0,1,2.42.17C586.23,431.65,613.71,438.83,641.17,446.07ZM563.9,500.44c.58-1.55.62-3.92-.19-5.08-.39-.56-2.11-.52-3.5-.16a6.51,6.51,0,0,0-1.14.42A149.5,149.5,0,0,0,543,504.87c-15.92,11.16-27.88,25.89-36.41,43.47-1,2.1-2.86,5.07-.72,6.57A4.08,4.08,0,0,0,509,555a13.22,13.22,0,0,0,3.31-1.38c12.94-7.89,22.59-19.07,29.85-32.44.85-1.57,1-3.51,1.54-5.26a3.3,3.3,0,0,1,1-1.79,47.39,47.39,0,0,1,5.42-2.73,1.83,1.83,0,0,1,.28-.1,2.06,2.06,0,0,1,1.74.19,2.22,2.22,0,0,1-.1,2.07c-2.06,2.82-4.22,5.59-6.45,8.29-.92,1.11-2.41,1.85-3.08,3.07-2.4,4.26-4.55,8.67-6.79,13l-.27.59.62-.38c3.59-3.43,7.47-6.63,10.72-10.37,7.11-8.19,13.3-17.07,17.15-27.3m28.38-45.71c-5.56-3.6-.9-8.19-.73-12.58-3.27,2-6.41,3.84-9.51,5.78a2.73,2.73,0,0,0-.94,1.42c-1,3.26-1.87,6.54-3,9.77a6.11,6.11,0,0,1-1.92,3.11c-9,5.67-18.13,11.18-27.19,16.78a7.05,7.05,0,0,0-2.37,2.05c-3,4.83-5.85,9.75-9,15.08a9.09,9.09,0,0,0,1.3-.45q20.56-12.58,41.1-25.21c1.71-1.05,3.76-2,4.85-3.57,2.73-3.93,5-8.18,7.38-12.18m-27,66.1,1.69-1.54-.3-.38-1.87,1.51.48.41"/><path class="cls-145" d="M534.18,520.86c.58-.15,1.23-.16,1.83-.27a5.77,5.77,0,0,1,.17,1.83c-1.4,5.71-11.3,15.15-17.89,16.88a9.39,9.39,0,0,1-1,.21,27.94,27.94,0,0,1,1.48-3.82,38.62,38.62,0,0,1,14.85-14.62A2.92,2.92,0,0,1,534.18,520.86Z"/><g class="cls-2"><g class="cls-198"><g class="cls-2"><path class="cls-5" d="M563.33,524.1l23.22,15.39q-20.25,19.35-40.5,38.7-52.12,49.66-104.28,99.31c-.63.61-1.32,1.13-2,1.7l-23.22-15.39c.66-.57,1.36-1.1,2-1.7q52.15-49.65,104.28-99.32,20.28-19.32,40.51-38.69"/></g></g></g><g class="cls-2"><g class="cls-199"><g class="cls-2"><path class="cls-5" d="M562.29,523l23.23,15.39c.34.35.69.7,1,1.06L563.33,524.1l-1-1.06"/></g></g></g><path class="cls-194" d="M566.64,518.91l.3.38-1.69,1.54-.48-.41Z"/><g class="cls-2"><g class="cls-200"><g class="cls-2"><path class="cls-5" d="M564.82,522.62,588.05,538l-2.53.41L562.29,523l2.53-.42"/></g></g></g><g class="cls-2"><g class="cls-201"><g class="cls-2"><path class="cls-185" d="M564.82,522.62,588.05,538l-1.5,1.47L563.33,524.1l1.49-1.48"/></g></g></g><path class="cls-194" d="M562.29,523l2.53-.42-1.49,1.48Z"/><g class="cls-2"><g class="cls-202"><g class="cls-2"><path class="cls-5" d="M565.8,521.73,589,537.12l-1,.9-23.23-15.4,1-.89"/></g></g></g><g class="cls-2"><g class="cls-203"><g class="cls-2"><path class="cls-5" d="M566.41,521.08l23.22,15.4-.6.64L565.8,521.73l.61-.65"/></g></g></g><g class="cls-2"><g class="cls-203"><g class="cls-2"><path class="cls-185" d="M566.41,521.08l23.22,15.4-.6.64L565.8,521.73l.61-.65"/></g></g></g><g class="cls-2"><g class="cls-204"><g class="cls-2"><path class="cls-5" d="M570.31,515.36l23.23,15.39.86,1.3-23.23-15.4-.86-1.29"/></g></g></g><g class="cls-2"><g class="cls-205"><g class="cls-2"><path class="cls-5" d="M571.17,516.65l23.23,15.4c-1.58,1.48-3.18,3-4.77,4.43l-23.22-15.4,4.76-4.43"/></g></g></g><g class="cls-2"><g class="cls-206"><g class="cls-2"><path class="cls-5" d="M572.55,515.27l23.22,15.39-2.23.09-23.23-15.39c.74,0,1.49-.07,2.24-.09"/></g></g></g><path class="cls-194" d="M570.31,515.36c.74,0,1.49-.07,2.24-.09l-1.38,1.38Z"/><g class="cls-2"><g class="cls-207"><g class="cls-2"><path class="cls-185" d="M572.55,515.27l23.22,15.39-1.37,1.39-23.23-15.4,1.38-1.38"/></g></g></g><g class="cls-2"><g class="cls-208"><g class="cls-2"><path class="cls-5" d="M573.65,514.27l23.23,15.4-1.11,1-23.22-15.39,1.1-1"/></g></g></g><g class="cls-2"><g class="cls-209"><g class="cls-2"><path class="cls-5" d="M572.77,512.8,596,528.2a6.2,6.2,0,0,0,.88,1.47l-23.23-15.4a6.55,6.55,0,0,1-.88-1.47"/></g></g></g><g class="cls-2"><g class="cls-210"><g class="cls-2"><path class="cls-185" d="M575.13,512.82l23.23,15.4-1.48,1.45-23.23-15.4,1.48-1.45"/></g></g></g><path class="cls-194" d="M574.2,511.61a.32.32,0,0,1,.25,0c.22.1.44.45.68,1.19l-1.48,1.45-1.08-1.46h.2a1.77,1.77,0,0,0,.73-.61l.09-.1a2.3,2.3,0,0,1,.39-.38A.42.42,0,0,1,574.2,511.61Z"/><g class="cls-2"><g class="cls-211"><g class="cls-2"><path class="cls-5" d="M581.78,506.48,605,521.88l-1.7,1.6-.95.92c-1.33,1.28-2.65,2.55-4,3.82l-23.23-15.4c1.34-1.27,2.66-2.54,4-3.82.32-.29.63-.6,1-.91l1.71-1.61"/></g></g></g><g class="cls-2"><g class="cls-212"><g class="cls-2"><path class="cls-185" d="M580.07,508.09l23.23,15.39-.95.92L579.12,509c.32-.29.63-.6,1-.91"/></g></g></g><g class="cls-2"><g class="cls-213"><g class="cls-2"><path class="cls-185" d="M582.9,505.42l23.23,15.4L605,521.88l-23.22-15.4,1.12-1.06"/></g></g></g><path class="cls-194" d="M580.6,505.82l2.3-.4-1.12,1.06Z"/><g class="cls-2"><g class="cls-214"><g class="cls-2"><path class="cls-5" d="M584.14,502.31l23.23,15.4.93,1.08-23.23-15.4-.93-1.08"/></g></g></g><g class="cls-2"><g class="cls-215"><g class="cls-2"><path class="cls-5" d="M585.07,503.39l23.23,15.4-2.17,2-23.23-15.4,2.17-2"/></g></g></g><g class="cls-2"><g class="cls-216"><g class="cls-2"><path class="cls-185" d="M587,501.49l23.23,15.4-1.92,1.9-23.23-15.4,1.92-1.9"/></g></g></g><g class="cls-2"><g class="cls-217"><g class="cls-2"><path class="cls-5" d="M588.89,499.73l23.23,15.4-1.9,1.76L587,501.49c.64-.58,1.27-1.17,1.9-1.76"/></g></g></g><g class="cls-2"><g class="cls-218"><g class="cls-2"><path class="cls-5" d="M589.51,499.08l23.22,15.39c-.2.23-.41.44-.61.66l-23.23-15.4c.21-.21.41-.43.62-.65"/></g></g></g><g class="cls-2"><g class="cls-218"><g class="cls-2"><path class="cls-185" d="M589.51,499.08l23.22,15.39c-.2.23-.41.44-.61.66l-23.23-15.4c.21-.21.41-.43.62-.65"/></g></g></g><g class="cls-2"><g class="cls-219"><g class="cls-2"><path class="cls-5" d="M592.05,496.68l23.23,15.4-2.55,2.39-23.22-15.39,2.54-2.4"/></g></g></g><g class="cls-2"><g class="cls-220"><g class="cls-2"><path class="cls-5" d="M592.86,495.93l23.23,15.39-2.08-.07-23.23-15.4,2.08.08"/></g></g></g><path class="cls-194" d="M590.78,495.85l2.08.08-.81.75-1.29-.05C590.77,496.37,590.78,496.12,590.78,495.85Z"/><g class="cls-2"><g class="cls-221"><g class="cls-2"><path class="cls-185" d="M592.86,495.93l23.23,15.39-.81.76-23.23-15.4.81-.75"/></g></g></g><g class="cls-2"><g class="cls-222"><g class="cls-2"><path class="cls-5" d="M584.23,119.08l23.23,15.39q31.39,158.87,63,319.09l-23.23-15.4q-31.66-160.29-63-319.08"/></g></g></g><g class="cls-2"><g class="cls-223"><g class="cls-2"><path class="cls-5" d="M647.28,438.16l23.23,15.4-31.4-8.22c-18.31-4.83-36.6-9.7-54.94-14.45a5.81,5.81,0,0,1-1.56-.62l-23.23-15.4a5.18,5.18,0,0,0,1.57.62c18.33,4.75,36.62,9.62,54.93,14.45,10.2,2.69,20.41,5.35,31.4,8.22"/></g></g></g><g class="cls-2"><g class="cls-224"><g class="cls-2"><path class="cls-5" d="M644.36,447l23.23,15.39c-6.29,6-12.32,11.8-18.37,17.56q-12.53,11.92-25.09,23.83c-2.66,2.53-5.36,5-8,7.51l-23.23-15.39c2.69-2.51,5.38-5,8-7.51q12.57-11.9,25.09-23.83c6-5.77,12.09-11.55,18.37-17.56"/></g></g></g></g></g></svg>